<svg width="89" height="77" viewBox="0 0 89 77" fill="none" xmlns="http://www.w3.org/2000/svg">
<path d="M24.4688 64.2322V62.0909H33.6893V64.2322H30.3814V73H27.782V64.2322H24.4688ZM42.9404 64.3388H44.32C44.32 64.978 44.2224 65.516 44.0271 65.9528C43.8318 66.386 43.5051 66.7127 43.047 66.9329C42.5924 67.1531 41.9727 67.2631 41.1879 67.2631V66.2031C41.6993 66.2031 42.0793 66.1339 42.3279 65.9954C42.5764 65.8569 42.7398 65.6491 42.8179 65.3722C42.896 65.0952 42.9369 64.7507 42.9404 64.3388ZM39.2064 69.4684V64.8182H41.8112V73H39.3289V71.4766H39.2437C39.0626 71.9773 38.7536 72.375 38.3169 72.6697C37.8801 72.9609 37.3563 73.1065 36.7455 73.1065C36.1844 73.1065 35.6926 72.9787 35.27 72.723C34.8509 72.4673 34.5242 72.1104 34.2899 71.6523C34.0555 71.1907 33.9365 70.6509 33.933 70.033V64.8182H36.5377V69.5217C36.5413 69.9656 36.6567 70.3153 36.884 70.571C37.1148 70.8267 37.4308 70.9545 37.8321 70.9545C38.0914 70.9545 38.324 70.8977 38.5299 70.7841C38.7394 70.6669 38.9046 70.4982 39.0253 70.2781C39.1496 70.0543 39.21 69.7844 39.2064 69.4684ZM37.0118 63.7795L35.3978 61.3771H37.7043L38.7856 63.7795H37.0118ZM56.0974 64.8182L53.2902 73H50.3073L47.5054 64.8182H50.2487L51.7561 70.4538H51.8414L53.3541 64.8182H56.0974ZM66.1729 64.3388H67.5525C67.5525 64.978 67.4548 65.516 67.2595 65.9528C67.0642 66.386 66.7375 66.7127 66.2794 66.9329C65.8248 67.1531 65.2052 67.2631 64.4204 67.2631V66.2031C64.9317 66.2031 65.3117 66.1339 65.5603 65.9954C65.8089 65.8569 65.9722 65.6491 66.0503 65.3722C66.1285 65.0952 66.1693 64.7507 66.1729 64.3388ZM62.4388 69.4684V64.8182H65.0436V73H62.5613V71.4766H62.4761C62.295 71.9773 61.9861 72.375 61.5493 72.6697C61.1125 72.9609 60.5887 73.1065 59.9779 73.1065C59.4168 73.1065 58.925 72.9787 58.5024 72.723C58.0834 72.4673 57.7567 72.1104 57.5223 71.6523C57.2879 71.1907 57.1689 70.6509 57.1654 70.033V64.8182H59.7702V69.5217C59.7737 69.9656 59.8891 70.3153 60.1164 70.571C60.3472 70.8267 60.6633 70.9545 61.0645 70.9545C61.3238 70.9545 61.5564 70.8977 61.7623 70.7841C61.9719 70.6669 62.137 70.4982 62.2577 70.2781C62.382 70.0543 62.4424 69.7844 62.4388 69.4684ZM61.5599 76.1854C61.1906 76.1854 60.8746 76.0629 60.6118 75.8178C60.3525 75.5728 60.2229 75.2798 60.2229 74.9389C60.2229 74.598 60.3543 74.305 60.6171 74.06C60.8799 73.815 61.1942 73.6925 61.5599 73.6925C61.9292 73.6925 62.2435 73.815 62.5028 74.06C62.7655 74.305 62.8969 74.598 62.8969 74.9389C62.8969 75.2798 62.7655 75.5728 62.5028 75.8178C62.2435 76.0629 61.9292 76.1854 61.5599 76.1854ZM70.7751 68.3338V73H68.1704V64.8182H70.6473V66.3203H70.7378C70.9189 65.8196 71.2279 65.4272 71.6647 65.1431C72.1015 64.8555 72.6217 64.7116 73.2254 64.7116C73.8007 64.7116 74.2996 64.8413 74.7222 65.1005C75.1483 65.3562 75.4786 65.7148 75.713 66.1765C75.9509 66.6346 76.0681 67.1708 76.0645 67.7852V73H73.4598V68.2965C73.4633 67.842 73.3479 67.4869 73.1135 67.2312C72.8827 66.9755 72.5613 66.8477 72.1494 66.8477C71.876 66.8477 71.6345 66.908 71.425 67.0288C71.219 67.146 71.0592 67.3146 70.9456 67.5348C70.8355 67.755 70.7787 68.0213 70.7751 68.3338ZM81.4911 76.2386C80.7134 76.2386 80.0476 76.1303 79.4936 75.9137C78.9396 75.6971 78.5046 75.4006 78.1886 75.0241C77.8725 74.6477 77.6825 74.2216 77.6186 73.7457L80.0849 73.6072C80.131 73.7741 80.2163 73.9197 80.3406 74.044C80.4684 74.1683 80.6335 74.2642 80.8359 74.3317C81.0419 74.3991 81.2834 74.4329 81.5604 74.4329C81.9972 74.4329 82.3576 74.3263 82.6417 74.1133C82.9293 73.9038 83.0732 73.5362 83.0732 73.0107V71.5724H82.9826C82.8796 71.8246 82.7234 72.0501 82.5138 72.2489C82.3043 72.4478 82.0433 72.604 81.7308 72.7177C81.4219 72.8313 81.0668 72.8881 80.6655 72.8881C80.0689 72.8881 79.522 72.7496 79.0249 72.4727C78.5313 72.1921 78.1353 71.7589 77.837 71.1729C77.5423 70.5835 77.3949 69.8253 77.3949 68.8984C77.3949 67.9432 77.5476 67.1566 77.853 66.5387C78.1584 65.9173 78.5579 65.4574 79.0515 65.1591C79.5487 64.8608 80.0831 64.7116 80.6548 64.7116C81.0845 64.7116 81.4521 64.7862 81.7575 64.9354C82.0664 65.081 82.3203 65.2692 82.5192 65.5C82.718 65.7308 82.869 65.9705 82.9719 66.2191H83.0465V64.8182H85.6406V73.032C85.6406 73.7244 85.4666 74.3086 85.1186 74.7844C84.7706 75.2603 84.2841 75.6207 83.6591 75.8658C83.0341 76.1143 82.3114 76.2386 81.4911 76.2386ZM81.571 70.9918C81.8871 70.9918 82.157 70.9084 82.3807 70.7415C82.6044 70.5746 82.7766 70.3349 82.8974 70.0224C83.0181 69.7099 83.0785 69.3352 83.0785 68.8984C83.0785 68.4545 83.0181 68.0728 82.8974 67.7532C82.7802 67.43 82.608 67.1815 82.3807 67.0075C82.157 66.8335 81.8871 66.7464 81.571 66.7464C81.2479 66.7464 80.9744 66.8352 80.7507 67.0128C80.527 67.1903 80.3565 67.4407 80.2393 67.7638C80.1257 68.0835 80.0689 68.4616 80.0689 68.8984C80.0689 69.3352 80.1275 69.7099 80.2447 70.0224C80.3619 70.3349 80.5305 70.5746 80.7507 70.7415C80.9744 70.9084 81.2479 70.9918 81.571 70.9918Z" fill="black"/>
<g clip-path="url(#clip0_14_112)">
<path d="M83.7062 32.336V26.1637C83.7062 25.9024 83.5091 25.6549 83.1787 25.5017C82.8487 25.3492 82.4166 25.3061 82.0317 25.387L78.7663 26.0707C75.249 23.4889 70.4152 21.9453 65.0985 21.7004C66.479 20.973 67.6885 20.1235 68.699 19.1711C68.9772 19.2051 69.2611 19.2222 69.5441 19.2222C72.0065 19.2222 74.0095 17.9389 74.0095 16.3614C74.0095 15.3464 73.1673 14.408 71.8034 13.8933C71.8986 13.4083 71.9471 12.9136 71.9471 12.4214C71.9471 5.81253 63.5522 0.436035 53.2339 0.436035C42.9168 0.436035 34.5233 5.81265 34.5233 12.4214C34.5233 12.9071 34.5715 13.4018 34.6661 13.8928C33.3019 14.4076 32.4596 15.3461 32.4596 16.3614C32.4596 17.9389 34.4636 19.2222 36.9269 19.2222C37.2077 19.2222 37.4899 19.205 37.7686 19.1711C38.7982 20.1395 40.0288 20.9998 41.4321 21.7325C36.0876 21.9526 31.2185 23.4822 27.6654 26.0635L24.4351 25.3871C24.05 25.306 23.6192 25.349 23.2886 25.5021C22.9593 25.6556 22.7626 25.9031 22.7626 26.1637V32.336C19.7802 32.4785 17.4688 34.0636 17.4688 35.9923V37.5969C17.4688 39.5266 19.78 41.1124 22.7626 41.2543V49.6331C22.7626 49.9872 23.1155 50.2994 23.6414 50.4101L52.8361 56.5235L52.8517 56.5264C52.9093 56.538 52.9632 56.5463 53.0213 56.5523L53.0548 56.5553C53.114 56.5601 53.1725 56.5636 53.2339 56.5636C53.2945 56.5636 53.351 56.5601 53.4108 56.5554L53.4485 56.5521C53.5047 56.5459 53.5581 56.5378 53.6156 56.5264L82.8251 50.41C83.3522 50.2994 83.7064 49.9871 83.7064 49.6331V41.2542C86.6884 41.1112 88.9993 39.5257 88.9993 37.5969V35.9923C88.9991 34.0643 86.6882 32.4791 83.7062 32.336ZM25.3144 41.2542C28.297 41.1111 30.6082 39.5256 30.6082 37.5969V35.9923C30.6082 34.0645 28.2968 32.4793 25.3144 32.336V27.2904L51.9559 32.87V54.6198L25.3144 49.0404V41.2542ZM28.0556 35.9923V37.5969C28.0556 38.7189 26.6307 39.6316 24.8792 39.6316H23.1954C21.4443 39.6316 20.0198 38.7188 20.0198 37.5969V35.9923C20.0198 34.8716 21.4445 33.9599 23.1954 33.9599H24.8792C26.6307 33.9599 28.0556 34.8716 28.0556 35.9923ZM51.8149 2.10939C51.8791 2.48513 51.9114 2.8647 51.9114 3.23939C51.9114 8.57575 45.4527 13.0827 37.1755 13.5495C37.1083 13.1612 37.0742 12.7822 37.0742 12.4214C37.0744 7.08049 43.5349 2.5726 51.8149 2.10939ZM46.6518 25.8793L45.709 23.4063C47.1168 23.8006 48.5997 24.0814 50.1278 24.2432L46.6518 25.8793ZM56.3383 24.2434C57.8649 24.0817 59.3489 23.801 60.7596 23.4072L59.8139 25.8794L56.3383 24.2434ZM42.7493 23.3383H43.0555L44.6272 27.4573C44.7293 27.7229 45.0297 27.9374 45.4318 28.031C45.8403 28.1249 46.2815 28.0814 46.6224 27.9218L53.2342 24.8095L59.8449 27.9218C60.1835 28.0809 60.6357 28.1241 61.0352 28.0309C61.4373 27.9371 61.7374 27.7228 61.8382 27.4573L63.4265 23.2997H63.6258C68.3637 23.2997 72.781 24.4806 76.098 26.6296L53.2339 31.4179L30.342 26.6235C33.6511 24.5034 38.0457 23.3383 42.7493 23.3383ZM69.5441 17.5882C69.2482 17.5882 68.9683 17.5476 68.7124 17.4676C68.5364 17.4127 68.3484 17.3849 68.1539 17.3849C67.7042 17.3849 67.296 17.5322 67.0619 17.7789C64.1062 20.9054 58.9369 22.772 53.2339 22.772C47.5359 22.772 42.3655 20.9053 39.4038 17.7787C39.1708 17.5322 38.7628 17.3849 38.3122 17.3849C38.1158 17.3849 37.9277 17.4131 37.7533 17.4682C37.5021 17.5467 37.2164 17.5882 36.9269 17.5882C35.8709 17.5882 35.0116 17.0378 35.0116 16.3614C35.0116 15.8615 35.4963 15.4046 36.2198 15.2201C43.7659 15.1 50.5393 12.0167 53.2346 7.50927C55.9282 12.0176 62.7022 15.1002 70.2516 15.2201C70.9732 15.4055 71.456 15.8617 71.456 16.3614C71.4558 17.0377 70.5981 17.5882 69.5441 17.5882ZM69.2936 13.5496C61.0155 13.0839 54.5561 8.57668 54.5561 3.23939C54.5561 2.87308 54.5881 2.4935 54.6513 2.10951C62.9343 2.57319 69.3968 7.08096 69.3968 12.4214C69.3968 12.7797 69.3621 13.1587 69.2936 13.5496ZM86.4477 35.9923V37.5969C86.4477 38.7189 85.0227 39.6316 83.271 39.6316H81.5869C79.8374 39.6316 78.4139 38.7188 78.4139 37.5969V35.9923C78.4139 34.8716 79.8374 33.9599 81.5869 33.9599H83.271C85.0227 33.9599 86.4477 34.8716 86.4477 35.9923ZM81.1533 32.336C78.1715 32.4785 75.8607 34.0636 75.8607 35.9923V37.5969C75.8607 39.5265 78.1715 41.1122 81.1533 41.2543V49.0404L54.5104 54.6198V32.8701L81.1533 27.2904V32.336Z" fill="#FB003C"/>
<path d="M53.2367 27.5736C53.9436 27.5736 54.5187 27.2057 54.5187 26.7534C54.5187 26.3008 53.9436 25.9326 53.2367 25.9326C52.5287 25.9326 51.9531 26.3008 51.9531 26.7534C51.9529 27.2057 52.5287 27.5736 53.2367 27.5736Z" fill="#FB003C"/>
<path d="M54.5187 29.6681C54.5187 29.2155 53.9436 28.8472 53.2367 28.8472C52.5287 28.8472 51.9531 29.2155 51.9531 29.6681C51.9531 30.1208 52.5289 30.4891 53.2367 30.4891C53.9436 30.4891 54.5187 30.1208 54.5187 29.6681Z" fill="#FB003C"/>
<path d="M25.7898 20.9999C28.1961 20.9999 29.972 20.6587 30.0464 20.6441C30.6087 20.5344 31.0008 20.1885 31 19.8028C30.9996 19.417 30.6064 19.0713 30.0437 18.962C28.4374 18.6502 27.028 18.0344 25.8515 17.1309C29.1266 15.7064 31 13.6688 31 11.5215C31 9.45499 29.3276 7.53292 26.2912 6.10889C23.3913 4.74892 19.5587 4 15.4991 4C11.4408 4 7.60871 4.74892 4.7086 6.10889C1.67218 7.53292 0 9.45512 0 11.5215C0 13.588 1.67218 15.5102 4.7086 16.9343C7.60852 18.2944 11.4408 19.0433 15.4991 19.0433C15.9979 19.0433 16.5103 19.0306 17.0236 19.0056C19.927 20.6526 23.3886 20.9999 25.7889 21H25.7898V20.9999ZM23.2696 16.0981C22.9355 16.2145 22.6909 16.4183 22.5983 16.6576C22.5055 16.898 22.5719 17.1541 22.7806 17.3604C23.5143 18.0872 24.3681 18.7181 25.3236 19.2403C23.2867 19.1945 20.5795 18.8295 18.4099 17.4646C18.1593 17.3076 17.8316 17.2212 17.487 17.2212C17.443 17.2212 17.3976 17.2231 17.3522 17.2261C16.7271 17.2676 16.1036 17.2886 15.4991 17.2886C8.42372 17.2886 2.66736 14.7014 2.66736 11.5214C2.66736 8.34154 8.42353 5.75435 15.4991 5.75435C22.5751 5.75435 28.3321 8.34154 28.3321 11.5214C28.3319 13.2925 26.4397 15.0033 23.2696 16.0981Z" fill="#FB003C"/>
<path d="M58.0967 4.37368C57.9523 4.04924 57.4848 3.82275 56.9593 3.82275C56.8496 3.82275 56.7399 3.83264 56.6338 3.85207C56.3292 3.90744 56.0769 4.0354 55.9229 4.2128C55.7691 4.38996 55.7326 4.59481 55.8199 4.78931C57.2459 8.0012 60.7271 10.7164 65.3711 12.2386C65.5406 12.2938 65.7216 12.3217 65.9093 12.3217C66.3579 12.3217 66.7628 12.1635 66.9664 11.9085C67.2632 11.536 67.0319 11.078 66.4511 10.8877C62.393 9.55823 59.3478 7.18401 58.0967 4.37368Z" fill="#FB003C"/>
<path d="M40.5608 12.3217C40.749 12.3217 40.9303 12.2938 41.0999 12.2384C45.7426 10.7156 49.2238 8.00039 50.6509 4.78966C50.7381 4.59516 50.7016 4.39043 50.5479 4.21338C50.3935 4.03575 50.1407 3.90744 49.8361 3.85218C49.7298 3.83264 49.6201 3.82275 49.5102 3.82275C48.9848 3.82275 48.5167 4.04936 48.3721 4.37379C47.1232 7.18215 44.0787 9.55649 40.0196 10.8878C39.4384 11.0782 39.2073 11.5361 39.505 11.909C39.7086 12.1636 40.1133 12.3217 40.5608 12.3217Z" fill="#FB003C"/>
<path d="M61.7089 14.5894C61.055 14.5894 60.523 14.9297 60.523 15.3479C60.523 15.612 60.1859 15.8268 59.7713 15.8268C59.3571 15.8268 59.0202 15.612 59.0202 15.3479C59.0202 14.9296 58.4882 14.5894 57.8345 14.5894C57.1804 14.5894 56.6484 14.9297 56.6484 15.3479C56.6484 16.449 58.0494 17.3447 59.7713 17.3447C61.4926 17.3447 62.8928 16.449 62.8928 15.3479C62.8928 14.9297 62.3617 14.5894 61.7089 14.5894Z" fill="#FB003C"/>
<path d="M48.6286 14.5894C47.9753 14.5894 47.4438 14.9297 47.4438 15.3479C47.4438 15.612 47.1082 15.8268 46.6957 15.8268C46.283 15.8268 45.947 15.612 45.947 15.3479C45.947 14.9296 45.4155 14.5894 44.7624 14.5894C44.1094 14.5894 43.5781 14.9297 43.5781 15.3479C43.5781 16.449 44.9767 17.3447 46.6957 17.3447C48.415 17.3447 49.8136 16.449 49.8136 15.3479C49.8136 14.9297 49.2819 14.5894 48.6286 14.5894Z" fill="#FB003C"/>
<path d="M35.4296 45.9573H41.9556V47.2443H35.4296V45.9573ZM34.7796 41.6413H42.5406V42.8763H34.7796V41.6413ZM34.7796 39.8213H42.5406V41.0563H34.7796V39.8213ZM32.7386 37.9233H44.5816V39.2493H32.7386V37.9233ZM35.0266 36.1163H42.3066V37.3383H35.0266V36.1163ZM34.5716 43.4743H42.7486V47.6473H41.1366V44.7743H36.1056V47.6863H34.5716V43.4743Z" fill="#FB003C"/>
<path d="M7.18 7.15H8.99V8.06H6.69L7.18 7.15ZM6.87 9.86V11.16H9.38V9.86H6.87ZM5.82 8.91H10.49V12.12H5.82V8.91ZM7.62 9.27H8.62V11.64H7.62V9.27ZM6.84 11.93H7.87C7.74 13.53 7.41 15.06 5.9 15.96C5.75 15.67 5.42 15.23 5.17 15.02C6.49 14.35 6.73 13.13 6.84 11.93ZM8.31 11.93H9.4V14.3C9.4 14.68 9.54 14.74 10.38 14.74C10.76 14.74 12.43 14.74 12.91 14.74C13.54 14.74 13.65 14.61 13.72 13.8C13.97 13.97 14.44 14.13 14.74 14.18C14.58 15.44 14.24 15.75 12.98 15.75C12.63 15.75 10.68 15.75 10.34 15.75C8.72 15.75 8.31 15.44 8.31 14.32V11.93ZM6.96 6.49L8.03 6.67C7.58 7.74 6.94 8.83 5.93 9.72C5.76 9.49 5.41 9.16 5.16 9.01C6.06 8.28 6.65 7.3 6.96 6.49ZM8.62 7.15H8.84L9 7.11L9.7 7.53C9.42 8.22 8.9 9.1 8.48 9.68C8.27 9.53 7.89 9.31 7.65 9.19C8.04 8.67 8.45 7.85 8.62 7.35V7.15ZM10.39 8.47H13.81V9.61H10.39V8.47ZM13.39 8.47H14.51C14.51 8.47 14.51 8.81 14.5 8.95C14.43 12.07 14.34 13.26 14.07 13.64C13.87 13.92 13.67 14.02 13.39 14.07C13.14 14.12 12.74 14.13 12.33 14.11C12.31 13.78 12.19 13.3 12.02 13C12.34 13.03 12.63 13.04 12.78 13.04C12.91 13.04 12.99 13 13.08 12.88C13.25 12.65 13.32 11.62 13.39 8.68V8.47ZM11.41 6.64H12.55C12.52 10.37 12.46 12.94 10.56 14.4C10.42 14.12 10.07 13.72 9.82 13.54C11.44 12.26 11.4 10.07 11.41 6.64ZM20.5 6.49L21.79 6.79C21.33 7.62 20.79 8.51 20.35 9.09L19.36 8.79C19.77 8.17 20.24 7.2 20.5 6.49ZM18.72 8.44C20 8.39 22.01 8.29 23.88 8.18L23.87 9.19C22.1 9.34 20.22 9.47 18.88 9.57L18.72 8.44ZM22.28 7.62L23.28 7.17C23.86 7.82 24.5 8.7 24.77 9.32L23.69 9.82C23.46 9.22 22.85 8.3 22.28 7.62ZM18.59 14.52C19.92 14.45 21.95 14.32 23.84 14.18L23.83 15.27C22.02 15.43 20.1 15.58 18.73 15.68L18.59 14.52ZM22.52 13.59L23.5 13.17C24.05 13.88 24.63 14.83 24.84 15.5L23.79 15.96C23.6 15.31 23.06 14.33 22.52 13.59ZM20.05 11.18V12.1H23.11V11.18H20.05ZM18.96 10.2H24.25V13.08H18.96V10.2ZM17.46 11.19H18.55C18.55 11.19 18.55 11.51 18.54 11.65C18.43 14.08 18.31 15.09 18.02 15.45C17.8 15.73 17.59 15.81 17.26 15.86C16.99 15.9 16.53 15.91 16.04 15.89C16.02 15.53 15.88 15.04 15.68 14.72C16.11 14.76 16.53 14.76 16.72 14.76C16.88 14.76 16.98 14.74 17.07 14.64C17.27 14.44 17.36 13.58 17.46 11.37V11.19ZM15.68 9.22H16.73C16.65 10.38 16.52 11.8 16.4 12.72L15.36 12.55C15.49 11.68 15.63 10.3 15.68 9.22ZM15.98 11.19H17.92V12.23H15.86L15.98 11.19ZM20.99 9.25H22.14V14.79L20.99 14.83V9.25ZM15.91 9.22H17.41V8.11H15.54V7.05H18.55V10.3H15.91V9.22Z" fill="black"/>
<path d="M59.944 36.0133H70.744V37.1173H59.944V36.0133ZM59.944 38.4133H70.72V39.5053H59.944V38.4133ZM62.536 35.3413H63.964V37.8493H62.536V35.3413ZM66.676 35.3413H68.104V37.8973H66.676V35.3413ZM59.872 43.0453H70.816V44.1373H59.872V43.0453ZM64.6 42.2293H66.016V46.6093H64.6V42.2293ZM64.264 43.6813L65.32 44.1853C64.18 45.2413 62.236 46.1173 60.484 46.5253C60.28 46.1893 59.884 45.6493 59.584 45.3613C61.312 45.0853 63.256 44.4493 64.264 43.6813ZM66.364 43.5493C67.324 44.4253 69.196 45.0613 71.056 45.3133C70.744 45.6133 70.336 46.1893 70.132 46.5613C68.236 46.1653 66.4 45.2293 65.284 43.9813L66.364 43.5493ZM61.36 37.6933H62.788V41.3413H70.372V42.4453H61.36V37.6933ZM64.384 37.6093H65.74V40.0573H67.588V37.7053H69.004V40.8973H64.384V37.6093Z" fill="#FB003C"/>
</g>
<defs>
<clipPath id="clip0_14_112">
<rect width="89" height="57" fill="white"/>
</clipPath>
</defs>
</svg>
