<svg width="91" height="87" viewBox="0 0 91 87" fill="none" xmlns="http://www.w3.org/2000/svg">
<path d="M45.4958 10.875V25.375M45.4958 25.375V61.625M45.4958 25.375L34.1209 14.5M45.4958 25.375L56.8708 14.5M45.4958 61.625V76.125M45.4958 61.625L34.1209 72.5M45.4958 61.625L56.8708 72.5M15.9468 27.1875L29.0815 34.4375M29.0815 34.4375L61.9183 52.5625M29.0815 34.4375L13.543 38.4181M29.0815 34.4375L24.918 19.5819M61.9183 52.5625L75.053 59.8125M61.9183 52.5625L66.0819 67.4181M61.9183 52.5625L77.4569 48.5819M15.9485 59.8125L29.0832 52.5625M29.0832 52.5625L61.9202 34.4375M29.0832 52.5625L13.5447 48.5819M29.0832 52.5625L24.9197 67.4181M61.9202 34.4375L75.0549 27.1875M61.9202 34.4375L66.0834 19.582M61.9202 34.4375L77.4584 38.4181" stroke="white" stroke-width="5" stroke-linecap="round" stroke-linejoin="round"/>
<ellipse cx="46" cy="42.5" rx="13" ry="12.5" fill="#FAB1B1"/>
<path d="M38.68 33.02H53.3V34.26H38.68V33.02ZM39.84 38.08H44.18V39.16H39.84V38.08ZM39.42 40.4H44.2V41.48H39.42V40.4ZM47.66 40.4H52.62V41.48H47.66V40.4ZM47.66 38.08H52.12V39.16H47.66V38.08ZM39.72 45.72H51.72V46.92H39.72V45.72ZM38.92 48.6H51.82V49.86H38.92V48.6ZM45.2 33.48H46.66V42H45.2V33.48ZM39.28 42.88H52.54V50.64H51.04V44.1H39.28V42.88ZM37.52 35.6H54.5V39.96H53.08V36.82H38.88V39.96H37.52V35.6Z" fill="white"/>
</svg>
