<svg width="52" height="51" viewBox="0 0 52 51" fill="none" xmlns="http://www.w3.org/2000/svg">
<path d="M9.87031 40.9993C9.38281 40.9993 8.97656 40.6806 8.85469 40.2024L3.65469 18.2485H3.04531C1.70469 18.2087 0.648438 17.1329 0.648438 15.8181C0.648438 14.5032 1.74531 13.4274 3.12656 13.4274C4.46719 13.4274 5.60469 14.5032 5.60469 15.8579C5.60469 16.1767 5.52344 16.5353 5.40156 16.854L5.03594 17.5313L16.0859 22.3923L25.1859 8.5665L24.5766 8.12822C23.9266 7.68994 23.5203 6.93291 23.5203 6.13604C23.5203 4.82119 24.6172 3.70557 25.9984 3.70557C27.3797 3.70557 28.4766 4.78135 28.4766 6.13604C28.4766 6.93291 28.0703 7.68994 27.4203 8.12822L26.8109 8.52666L34.9359 22.3923L46.9609 17.4915L46.6359 16.7743C46.5141 16.4556 46.4328 16.1368 46.4328 15.8181C46.4328 14.5032 47.5297 13.3876 48.9109 13.3876C50.2516 13.3876 51.3891 14.4634 51.3891 15.8181C51.3891 17.1329 50.2922 18.2485 48.9109 18.2485H48.2203L43.0203 40.2423C42.8984 40.7204 42.4922 41.0392 42.0047 41.0392H9.87031V40.9993ZM10.6828 39.0071H41.2328L45.7016 20.2009L34.9359 24.5837C34.8141 24.6235 34.6922 24.6634 34.5297 24.6634C34.1641 24.6634 33.8391 24.4642 33.6359 24.1853L25.9172 11.1563L17.3047 24.1853C17.1016 24.4642 16.7766 24.6634 16.4516 24.6634C16.2891 24.6634 16.1672 24.6235 16.0453 24.5837L6.25469 20.2806L10.6828 39.0071ZM8.20469 46.6173C7.51406 46.6173 6.98594 46.0993 6.98594 45.422C6.98594 44.7446 7.51406 44.2267 8.20469 44.2267H43.7109C44.4016 44.2267 44.9297 44.7446 44.9297 45.422C44.9297 46.0993 44.4016 46.6173 43.7109 46.6173H8.20469Z" fill="#FB003C"/>
</svg>
