<svg width="96" height="83" viewBox="0 0 96 83" fill="none" xmlns="http://www.w3.org/2000/svg">
<path d="M0.825639 79V68.0909H5.37464C6.19141 68.0909 6.875 68.2063 7.42543 68.4371C7.9794 68.668 8.39489 68.9911 8.67188 69.4066C8.95241 69.8221 9.09268 70.3033 9.09268 70.8501C9.09268 71.2656 9.00568 71.6367 8.83168 71.9634C8.65767 72.2866 8.41797 72.5547 8.11257 72.7678C7.80717 72.9808 7.45384 73.13 7.05256 73.2152V73.3217C7.4929 73.343 7.8995 73.462 8.27237 73.6786C8.64879 73.8952 8.95064 74.1971 9.17791 74.5842C9.40518 74.9677 9.51882 75.4222 9.51882 75.9478C9.51882 76.5337 9.36967 77.0575 9.07138 77.5192C8.77308 77.9773 8.34162 78.3395 7.77699 78.6058C7.21236 78.8686 6.52699 79 5.72088 79H0.825639ZM3.46236 76.8746H5.09233C5.66406 76.8746 6.08487 76.7663 6.35476 76.5497C6.6282 76.3331 6.76492 76.0312 6.76492 75.6442C6.76492 75.3636 6.69922 75.1222 6.56783 74.9197C6.43643 74.7138 6.25 74.5558 6.00852 74.4457C5.76705 74.332 5.47763 74.2752 5.14027 74.2752H3.46236V76.8746ZM3.46236 72.576H4.92188C5.20952 72.576 5.4652 72.5281 5.68892 72.4322C5.91264 72.3363 6.08665 72.1978 6.21094 72.0167C6.33878 71.8356 6.4027 71.6172 6.4027 71.3615C6.4027 70.9957 6.27308 70.7081 6.01385 70.4986C5.75462 70.2891 5.40483 70.1843 4.96449 70.1843H3.46236V72.576ZM13.093 79.1385C12.571 79.1385 12.1076 79.0515 11.7028 78.8775C11.3015 78.6999 10.9837 78.4336 10.7493 78.0785C10.5185 77.7198 10.4031 77.2706 10.4031 76.7308C10.4031 76.2763 10.483 75.8928 10.6428 75.5803C10.8026 75.2678 11.0227 75.0138 11.3033 74.8185C11.5838 74.6232 11.907 74.4759 12.2727 74.3764C12.6385 74.2734 13.0291 74.2042 13.4446 74.1687C13.9098 74.1261 14.2844 74.0817 14.5685 74.0355C14.8526 73.9858 15.0586 73.9165 15.1864 73.8278C15.3178 73.7354 15.3835 73.6058 15.3835 73.4389V73.4123C15.3835 73.1388 15.2894 72.9276 15.1012 72.7784C14.913 72.6293 14.6591 72.5547 14.3395 72.5547C13.995 72.5547 13.718 72.6293 13.5085 72.7784C13.299 72.9276 13.1658 73.1335 13.109 73.3963L10.7067 73.3111C10.7777 72.8139 10.9606 72.37 11.2553 71.9794C11.5536 71.5852 11.962 71.2763 12.4805 71.0526C13.0025 70.8253 13.6293 70.7116 14.3608 70.7116C14.8828 70.7116 15.364 70.7738 15.8043 70.8981C16.2447 71.0188 16.6282 71.1964 16.9549 71.4308C17.2816 71.6616 17.5337 71.9457 17.7113 72.283C17.8924 72.6204 17.983 73.0057 17.983 73.4389V79H15.5327V77.8601H15.4688C15.3232 78.1371 15.1367 78.3714 14.9094 78.5632C14.6857 78.755 14.4212 78.8988 14.1158 78.9947C13.8139 79.0906 13.473 79.1385 13.093 79.1385ZM13.8974 77.4339C14.1779 77.4339 14.43 77.3771 14.6538 77.2635C14.881 77.1499 15.0621 76.9936 15.1971 76.7947C15.332 76.5923 15.3995 76.358 15.3995 76.0916V75.3139C15.3249 75.353 15.2344 75.3885 15.1278 75.4205C15.0249 75.4524 14.9112 75.4826 14.7869 75.511C14.6626 75.5394 14.5348 75.5643 14.4034 75.5856C14.272 75.6069 14.146 75.6264 14.0252 75.6442C13.7802 75.6832 13.5707 75.7436 13.3967 75.8253C13.2262 75.907 13.0948 76.0135 13.0025 76.1449C12.9137 76.2727 12.8693 76.4254 12.8693 76.603C12.8693 76.8729 12.9652 77.0788 13.157 77.2209C13.3523 77.3629 13.5991 77.4339 13.8974 77.4339ZM15.3729 69.625H13.4766L13.3274 68.7301C13.7038 68.7159 13.9719 68.668 14.1317 68.5863C14.2915 68.5011 14.3697 68.3945 14.3661 68.2667C14.3697 68.0749 14.2738 67.9489 14.0785 67.8885C13.8832 67.8281 13.6346 67.7979 13.3327 67.7979L13.3913 66.6953C14.4141 66.6953 15.1918 66.8232 15.7244 67.0788C16.2571 67.3345 16.5217 67.6932 16.5181 68.1548C16.5217 68.4638 16.4045 68.7017 16.1665 68.8686C15.9286 69.032 15.6641 69.1349 15.3729 69.1776V69.625ZM22.1804 74.3338V79H19.5756V70.8182H22.0526V72.3203H22.1431C22.3242 71.8196 22.6332 71.4272 23.07 71.1431C23.5067 70.8555 24.027 70.7116 24.6307 70.7116C25.206 70.7116 25.7049 70.8413 26.1275 71.1005C26.5536 71.3562 26.8839 71.7148 27.1183 72.1765C27.3562 72.6346 27.4734 73.1708 27.4698 73.7852V79H24.8651V74.2965C24.8686 73.842 24.7532 73.4869 24.5188 73.2312C24.288 72.9755 23.9666 72.8477 23.5547 72.8477C23.2812 72.8477 23.0398 72.908 22.8303 73.0288C22.6243 73.146 22.4645 73.3146 22.3509 73.5348C22.2408 73.755 22.1839 74.0213 22.1804 74.3338ZM32.8964 82.2386C32.1187 82.2386 31.4529 82.1303 30.8989 81.9137C30.3449 81.6971 29.9099 81.4006 29.5938 81.0241C29.2778 80.6477 29.0878 80.2216 29.0239 79.7457L31.4901 79.6072C31.5363 79.7741 31.6215 79.9197 31.7458 80.044C31.8737 80.1683 32.0388 80.2642 32.2412 80.3317C32.4472 80.3991 32.6887 80.4329 32.9656 80.4329C33.4024 80.4329 33.7629 80.3263 34.047 80.1133C34.3346 79.9038 34.4784 79.5362 34.4784 79.0107V77.5724H34.3879C34.2849 77.8246 34.1286 78.0501 33.9191 78.2489C33.7096 78.4478 33.4486 78.604 33.1361 78.7177C32.8271 78.8313 32.472 78.8881 32.0708 78.8881C31.4742 78.8881 30.9273 78.7496 30.4301 78.4727C29.9365 78.1921 29.5406 77.7589 29.2423 77.1729C28.9475 76.5835 28.8002 75.8253 28.8002 74.8984C28.8002 73.9432 28.9529 73.1566 29.2583 72.5387C29.5637 71.9173 29.9632 71.4574 30.4568 71.1591C30.9539 70.8608 31.4884 70.7116 32.0601 70.7116C32.4898 70.7116 32.8573 70.7862 33.1627 70.9354C33.4717 71.081 33.7256 71.2692 33.9244 71.5C34.1233 71.7308 34.2742 71.9705 34.3772 72.2191H34.4518V70.8182H37.0459V79.032C37.0459 79.7244 36.8719 80.3086 36.5239 80.7844C36.1759 81.2603 35.6894 81.6207 35.0644 81.8658C34.4394 82.1143 33.7167 82.2386 32.8964 82.2386ZM32.9763 76.9918C33.2923 76.9918 33.5622 76.9084 33.786 76.7415C34.0097 76.5746 34.1819 76.3349 34.3026 76.0224C34.4234 75.7099 34.4838 75.3352 34.4838 74.8984C34.4838 74.4545 34.4234 74.0728 34.3026 73.7532C34.1855 73.43 34.0132 73.1815 33.786 73.0075C33.5622 72.8335 33.2923 72.7464 32.9763 72.7464C32.6531 72.7464 32.3797 72.8352 32.156 73.0128C31.9323 73.1903 31.7618 73.4407 31.6446 73.7638C31.531 74.0835 31.4742 74.4616 31.4742 74.8984C31.4742 75.3352 31.5328 75.7099 31.6499 76.0224C31.7671 76.3349 31.9358 76.5746 32.156 76.7415C32.3797 76.9084 32.6531 76.9918 32.9763 76.9918ZM45.7484 79.1545C44.8855 79.1545 44.1451 78.9769 43.5272 78.6218C42.9128 78.2667 42.4405 77.7731 42.1103 77.141C41.78 76.5053 41.6149 75.7702 41.6149 74.9357C41.6149 74.0977 41.78 73.3626 42.1103 72.7305C42.4441 72.0948 42.9181 71.5994 43.5325 71.2443C44.1504 70.8892 44.8873 70.7116 45.7431 70.7116C46.4995 70.7116 47.1582 70.8484 47.7193 71.1218C48.2839 71.3952 48.7243 71.7823 49.0403 72.283C49.3599 72.7802 49.5286 73.3643 49.5463 74.0355H47.112C47.0623 73.6165 46.9203 73.288 46.6859 73.0501C46.4551 72.8121 46.1532 72.6932 45.7804 72.6932C45.4785 72.6932 45.214 72.7784 44.9867 72.9489C44.7594 73.1158 44.5819 73.3643 44.454 73.6946C44.3297 74.0213 44.2676 74.4261 44.2676 74.9091C44.2676 75.392 44.3297 75.8004 44.454 76.1342C44.5819 76.4645 44.7594 76.7148 44.9867 76.8853C45.214 77.0522 45.4785 77.1357 45.7804 77.1357C46.0218 77.1357 46.2349 77.0842 46.4196 76.9812C46.6078 76.8782 46.7623 76.7273 46.883 76.5284C47.0037 76.326 47.0801 76.081 47.112 75.7933H49.5463C49.5215 76.468 49.3528 77.0575 49.0403 77.5618C48.7314 78.0661 48.2963 78.4585 47.7353 78.739C47.1777 79.016 46.5154 79.1545 45.7484 79.1545ZM53.4841 74.3338V79H50.8794V68.0909H53.3989V72.3203H53.4894C53.6741 71.8161 53.9759 71.4219 54.395 71.1378C54.8176 70.8537 55.3343 70.7116 55.945 70.7116C56.5203 70.7116 57.021 70.8395 57.4472 71.0952C57.8733 71.3473 58.2036 71.7042 58.4379 72.1658C58.6759 72.6275 58.7931 73.1673 58.7895 73.7852V79H56.1847V74.2965C56.1883 73.842 56.0747 73.4869 55.8438 73.2312C55.613 72.9755 55.2881 72.8477 54.8691 72.8477C54.5956 72.8477 54.3541 72.908 54.1446 73.0288C53.9387 73.146 53.7771 73.3146 53.6599 73.5348C53.5463 73.755 53.4877 74.0213 53.4841 74.3338ZM69.4922 70.3388H70.8718C70.8718 70.978 70.7741 71.516 70.5788 71.9528C70.3835 72.386 70.0568 72.7127 69.5987 72.9329C69.1442 73.1531 68.5245 73.2631 67.7397 73.2631V72.2031C68.2511 72.2031 68.631 72.1339 68.8796 71.9954C69.1282 71.8569 69.2915 71.6491 69.3697 71.3722C69.4478 71.0952 69.4886 70.7507 69.4922 70.3388ZM65.7582 75.4684V70.8182H68.3629V79H65.8807V77.4766H65.7955C65.6143 77.9773 65.3054 78.375 64.8686 78.6697C64.4318 78.9609 63.908 79.1065 63.2972 79.1065C62.7362 79.1065 62.2443 78.9787 61.8217 78.723C61.4027 78.4673 61.076 78.1104 60.8416 77.6523C60.6072 77.1907 60.4883 76.6509 60.4847 76.033V70.8182H63.0895V75.5217C63.093 75.9656 63.2085 76.3153 63.4357 76.571C63.6665 76.8267 63.9826 76.9545 64.3839 76.9545C64.6431 76.9545 64.8757 76.8977 65.0817 76.7841C65.2912 76.6669 65.4563 76.4982 65.5771 76.2781C65.7013 76.0543 65.7617 75.7844 65.7582 75.4684ZM62.951 69.8061L61.5927 69.7955C61.5927 69.0746 61.7649 68.5295 62.1094 68.1602C62.4538 67.7908 62.8729 67.6044 63.3665 67.6009C63.6293 67.6009 63.853 67.6435 64.0376 67.7287C64.2259 67.8104 64.391 67.908 64.533 68.0217C64.6786 68.1317 64.8136 68.2294 64.9379 68.3146C65.0657 68.3963 65.2006 68.4371 65.3427 68.4371C65.5451 68.4336 65.6942 68.359 65.7901 68.2134C65.8896 68.0643 65.9411 67.8636 65.9446 67.6115L67.2816 67.6275C67.271 68.3413 67.0952 68.8864 66.7543 69.2628C66.4134 69.6357 65.9979 69.8239 65.5078 69.8274C65.2379 69.831 65.0089 69.7901 64.8207 69.7049C64.6325 69.6197 64.4691 69.522 64.3306 69.4119C64.1957 69.3018 64.0661 69.206 63.9418 69.1243C63.8175 69.0391 63.6808 68.9964 63.5316 68.9964C63.3576 68.9964 63.2173 69.0675 63.1108 69.2095C63.0043 69.348 62.951 69.5469 62.951 69.8061ZM78.5316 79.1545C77.6687 79.1545 76.9283 78.9769 76.3104 78.6218C75.696 78.2667 75.2237 77.7731 74.8935 77.141C74.5632 76.5053 74.3981 75.7702 74.3981 74.9357C74.3981 74.0977 74.5632 73.3626 74.8935 72.7305C75.2273 72.0948 75.7013 71.5994 76.3157 71.2443C76.9336 70.8892 77.6705 70.7116 78.5263 70.7116C79.2827 70.7116 79.9414 70.8484 80.5025 71.1218C81.0671 71.3952 81.5075 71.7823 81.8235 72.283C82.1431 72.7802 82.3118 73.3643 82.3295 74.0355H79.8952C79.8455 73.6165 79.7035 73.288 79.4691 73.0501C79.2383 72.8121 78.9364 72.6932 78.5636 72.6932C78.2617 72.6932 77.9972 72.7784 77.7699 72.9489C77.5426 73.1158 77.3651 73.3643 77.2372 73.6946C77.1129 74.0213 77.0508 74.4261 77.0508 74.9091C77.0508 75.392 77.1129 75.8004 77.2372 76.1342C77.3651 76.4645 77.5426 76.7148 77.7699 76.8853C77.9972 77.0522 78.2617 77.1357 78.5636 77.1357C78.805 77.1357 79.0181 77.0842 79.2028 76.9812C79.391 76.8782 79.5455 76.7273 79.6662 76.5284C79.7869 76.326 79.8633 76.081 79.8952 75.7933H82.3295C82.3047 76.468 82.136 77.0575 81.8235 77.5618C81.5146 78.0661 81.0795 78.4585 80.5185 78.739C79.9609 79.016 79.2987 79.1545 78.5316 79.1545ZM85.969 79.1385C85.447 79.1385 84.9836 79.0515 84.5787 78.8775C84.1775 78.6999 83.8596 78.4336 83.6253 78.0785C83.3944 77.7198 83.279 77.2706 83.279 76.7308C83.279 76.2763 83.3589 75.8928 83.5187 75.5803C83.6785 75.2678 83.8987 75.0138 84.1792 74.8185C84.4598 74.6232 84.7829 74.4759 85.1487 74.3764C85.5145 74.2734 85.9051 74.2042 86.3206 74.1687C86.7858 74.1261 87.1604 74.0817 87.4445 74.0355C87.7286 73.9858 87.9346 73.9165 88.0624 73.8278C88.1938 73.7354 88.2595 73.6058 88.2595 73.4389V73.4123C88.2595 73.1388 88.1654 72.9276 87.9772 72.7784C87.789 72.6293 87.5351 72.5547 87.2155 72.5547C86.871 72.5547 86.594 72.6293 86.3845 72.7784C86.175 72.9276 86.0418 73.1335 85.985 73.3963L83.5827 73.3111C83.6537 72.8139 83.8366 72.37 84.1313 71.9794C84.4296 71.5852 84.838 71.2763 85.3564 71.0526C85.8785 70.8253 86.5052 70.7116 87.2368 70.7116C87.7588 70.7116 88.24 70.7738 88.6803 70.8981C89.1206 71.0188 89.5042 71.1964 89.8309 71.4308C90.1576 71.6616 90.4097 71.9457 90.5873 72.283C90.7684 72.6204 90.8589 73.0057 90.8589 73.4389V79H88.4086V77.8601H88.3447C88.1991 78.1371 88.0127 78.3714 87.7854 78.5632C87.5617 78.755 87.2971 78.8988 86.9917 78.9947C86.6899 79.0906 86.349 79.1385 85.969 79.1385ZM86.7733 77.4339C87.0539 77.4339 87.306 77.3771 87.5297 77.2635C87.757 77.1499 87.9381 76.9936 88.0731 76.7947C88.208 76.5923 88.2755 76.358 88.2755 76.0916V75.3139C88.2009 75.353 88.1104 75.3885 88.0038 75.4205C87.9008 75.4524 87.7872 75.4826 87.6629 75.511C87.5386 75.5394 87.4108 75.5643 87.2794 75.5856C87.148 75.6069 87.0219 75.6264 86.9012 75.6442C86.6562 75.6832 86.4466 75.7436 86.2726 75.8253C86.1022 75.907 85.9708 76.0135 85.8785 76.1449C85.7897 76.2727 85.7453 76.4254 85.7453 76.603C85.7453 76.8729 85.8412 77.0788 86.0329 77.2209C86.2282 77.3629 86.4751 77.4339 86.7733 77.4339ZM86.4271 69.7795L87.5031 67.3771H89.8096L88.2009 69.7795H86.4271ZM92.4516 79V70.8182H95.0564V79H92.4516ZM93.7567 69.8647C93.3909 69.8647 93.0766 69.744 92.8138 69.5025C92.551 69.2575 92.4197 68.9627 92.4197 68.6183C92.4197 68.2773 92.551 67.9862 92.8138 67.7447C93.0766 67.4996 93.3909 67.3771 93.7567 67.3771C94.126 67.3771 94.4403 67.4996 94.6995 67.7447C94.9623 67.9862 95.0937 68.2773 95.0937 68.6183C95.0937 68.9627 94.9623 69.2575 94.6995 69.5025C94.4403 69.744 94.126 69.8647 93.7567 69.8647Z" fill="black"/>
<g clip-path="url(#clip0_16_3)">
<path d="M84.1939 9.09372C83.6842 8.7679 83.0204 8.65031 82.401 8.78015C79.8791 9.27501 75.7539 10.0271 73.7447 10.2794V6.77864C73.7447 3.87071 71.6762 2.13379 68.2089 2.13379C62.516 2.13379 51.8148 7.54544 47.503 10.2035C43.1881 7.54544 32.487 2.13379 26.7971 2.13379C23.3268 2.13379 21.2583 3.87071 21.2583 6.77864V10.2819C19.2491 10.0296 15.1209 9.27501 12.599 8.78015C11.9826 8.65276 11.3158 8.77035 10.8061 9.09372C10.2993 9.41465 10 9.90706 10 10.4338V54.7338C10 55.2214 10.2608 55.6893 10.7261 56.02C11.1824 56.3385 11.7959 56.483 12.3975 56.412C33.1182 54.9004 44.415 58.6339 47.503 59.8662C50.588 58.6315 61.8848 54.9004 82.6085 56.412C83.2101 56.483 83.8205 56.3385 84.2769 56.02C84.7363 55.6868 85 55.2214 85 54.7338V10.4338C85 9.90706 84.7007 9.41465 84.1939 9.09372ZM26.7911 5.53659C31.6394 5.53659 42.308 10.9384 45.387 12.8076L47.497 14.035L49.607 12.8076C52.6861 10.936 63.3606 5.53659 68.2029 5.53659C69.1187 5.53659 69.5187 5.58558 69.5187 6.77864L69.5217 40.6523C56.1801 41.0075 49.7048 43.1658 47.497 44.0992C45.2892 43.1633 38.814 41.0051 25.4724 40.6523V6.77864C25.4724 5.58558 25.8754 5.53659 26.7911 5.53659ZM80.7859 49.6701C60.3082 47.6563 50.3924 51.0763 47.503 52.3624C44.6165 51.0787 34.6888 47.6563 14.217 49.6701V12.5798C16.4663 12.9963 19.5721 13.5475 21.2613 13.719V44.0404H23.6706C29.2834 44.0404 39.709 44.5009 46.4509 47.6269L47.5 48.1095L48.5491 47.6269C55.294 44.5034 65.7136 44.0404 71.3324 44.0404H73.7447V13.719C75.4309 13.5499 78.5396 12.9987 80.7859 12.5798V49.6701Z" fill="#F32456"/>
<path d="M38.96 15.96C38.9 16.15 38.86 16.33 38.82 16.49C38.63 17.42 38.46 18.86 38.46 20.1C38.46 21.68 38.75 22.8 39.08 23.81L37.93 24.15C37.63 23.25 37.34 21.77 37.34 20.3C37.34 18.99 37.52 17.52 37.63 16.53C37.65 16.33 37.67 16.1 37.66 15.92L38.96 15.96ZM37.17 17.06C39.07 17.06 40.58 16.97 42.11 16.6L42.12 17.75C40.75 18 38.65 18.15 37.14 18.15C36.61 18.15 35.83 18.1 35.36 18.08L35.33 16.93C35.69 16.98 36.56 17.06 37.17 17.06ZM41.49 18.53C41.41 18.71 41.26 19.17 41.19 19.38C40.62 21.18 39.59 22.53 38.64 23.23C37.99 23.71 37.12 24.15 36.25 24.15C35.52 24.15 34.91 23.71 34.91 22.69C34.91 21.28 36.17 19.81 37.76 19.23C38.42 18.99 39.24 18.84 39.99 18.84C41.86 18.84 43.24 19.92 43.24 21.48C43.24 22.9 42.4 24.27 39.95 24.65L39.28 23.59C41.21 23.38 42 22.41 42 21.42C42 20.57 41.27 19.85 39.92 19.85C39.01 19.85 38.29 20.11 37.8 20.33C36.8 20.8 36.09 21.76 36.09 22.43C36.09 22.76 36.22 22.93 36.55 22.93C37.02 22.93 37.69 22.6 38.3 22.03C39.03 21.36 39.71 20.47 40.11 19.09C40.18 18.88 40.25 18.45 40.26 18.23L41.49 18.53ZM46.59 16.86C46.52 17.21 46.47 17.8 46.47 18.08C46.47 18.73 46.47 19.47 46.53 20.2C46.67 21.64 46.97 22.63 47.6 22.63C48.08 22.63 48.47 21.45 48.66 20.66L49.67 21.87C49 23.62 48.38 24.22 47.58 24.22C46.47 24.22 45.52 23.24 45.24 20.56C45.14 19.64 45.13 18.46 45.13 17.85C45.13 17.58 45.12 17.15 45.05 16.84L46.59 16.86ZM51.59 17.08C52.54 18.23 53.31 20.73 53.42 22.26L52.1 22.78C51.95 21.16 51.41 18.74 50.32 17.5L51.59 17.08ZM60.84 20.73C60.84 20.07 60.33 19.54 59.39 19.54C58.29 19.54 57.29 19.87 56.79 20.02C56.5 20.11 56.1 20.26 55.82 20.38L55.44 18.94C55.78 18.92 56.2 18.84 56.53 18.77C57.26 18.61 58.38 18.32 59.56 18.32C61.14 18.32 62.25 19.22 62.25 20.78C62.25 22.93 60.26 24.25 57.48 24.64L56.77 23.39C59.25 23.11 60.84 22.3 60.84 20.73ZM56.91 15.93C58.08 16.18 60.35 16.38 61.4 16.38L61.21 17.61C60.04 17.53 57.87 17.33 56.72 17.13L56.91 15.93ZM37.12 27.9C38.24 28.11 40.16 28.32 41.19 28.38L41.03 29.56C39.98 29.47 38.12 29.25 36.92 29.06L37.12 27.9ZM41.55 31.07C41.28 31.25 41.07 31.43 40.89 31.58C40.44 31.97 39.5 32.84 39.26 33.09C39.35 33.09 39.53 33.12 39.65 33.17C39.93 33.25 40.11 33.47 40.25 33.85C40.34 34.11 40.45 34.49 40.53 34.76C40.63 35.07 40.85 35.22 41.24 35.22C42 35.22 42.69 35.15 43.2 35.05L43.11 36.36C42.7 36.43 41.67 36.5 41.15 36.5C40.21 36.5 39.69 36.29 39.45 35.65C39.34 35.35 39.23 34.88 39.15 34.63C39.04 34.27 38.83 34.14 38.62 34.14C38.42 34.14 38.21 34.3 37.97 34.55C37.62 34.9 36.87 35.72 36.18 36.59L35 35.77C35.18 35.61 35.42 35.4 35.69 35.14C36.21 34.62 38.25 32.59 39.16 31.63C38.46 31.65 37.27 31.75 36.7 31.8C36.35 31.83 36.04 31.88 35.83 31.92L35.72 30.54C35.95 30.56 36.31 30.57 36.67 30.57C37.15 30.56 39.41 30.46 40.25 30.36C40.43 30.34 40.71 30.28 40.81 30.24L41.55 31.07ZM58.36 27.88C58.32 28.07 58.28 28.5 58.27 28.75C58.22 29.54 58.19 30.62 58.19 31.55C58.19 32.64 58.25 34.37 58.25 34.95C58.25 36.18 57.81 36.52 57.15 36.52C56.18 36.52 54.8 35.68 54.8 34.62C54.8 33.65 56.05 32.63 57.44 32.14C58.33 31.82 59.34 31.66 60.1 31.66C61.64 31.66 62.86 32.46 62.86 33.84C62.86 35.03 62.24 35.92 60.65 36.31C60.19 36.41 59.74 36.44 59.33 36.48L58.88 35.18C59.32 35.18 59.76 35.18 60.1 35.11C60.91 34.97 61.56 34.56 61.56 33.84C61.56 33.15 60.96 32.76 60.09 32.76C59.24 32.76 58.36 32.94 57.58 33.25C56.68 33.59 56.04 34.13 56.04 34.56C56.04 34.88 56.51 35.15 56.77 35.15C56.95 35.15 57.08 35.07 57.08 34.72C57.08 34.2 57.03 32.81 57.03 31.6C57.03 30.46 57.04 29.22 57.04 28.76C57.04 28.56 57.01 28.06 56.98 27.88H58.36ZM61.21 28.97C61.97 29.34 63.13 29.99 63.67 30.37L63.06 31.39C62.58 30.99 61.28 30.24 60.66 29.94L61.21 28.97ZM55.07 29.52C55.66 29.59 56.09 29.59 56.45 29.59C57.49 29.59 59.05 29.4 60.08 29.1L60.11 30.34C58.98 30.6 57.37 30.78 56.49 30.78C55.83 30.78 55.44 30.77 55.1 30.73L55.07 29.52Z" fill="black"/>
</g>
<defs>
<clipPath id="clip0_16_3">
<rect width="75" height="62" fill="white" transform="translate(10)"/>
</clipPath>
</defs>
</svg>
