<svg width="117" height="92" viewBox="0 0 117 92" fill="none" xmlns="http://www.w3.org/2000/svg">
<g clip-path="url(#clip0_9_76)">
<path d="M109.417 64.0547L108.659 61.8219C108.659 61.8219 105.354 56.8751 105.207 56.6442C105.06 56.4132 105.648 55.47 105.648 55.47C108.047 48.6369 107.288 45.461 107.288 45.461C105.672 39.802 102.49 38.0697 102.368 37.9927C102.245 37.935 102.123 37.8772 102.025 37.8002C91.5726 32.5263 78.2807 30.1587 66.7268 34.7783C67.5591 36.0872 69.1012 39.5326 67.4367 45.0183C67.4367 45.0183 65.7232 50.4655 62.2228 53.4682C59.9218 55.4315 57.376 56.7981 55.8828 57.5103C56.6906 58.4535 57.6208 59.3774 58.6244 60.2243C59.1874 60.6863 59.7749 61.129 60.3869 61.5332C61.2681 62.0529 62.8103 62.7651 65.3805 63.458C70.1783 64.7476 75.2699 64.8631 79.6026 64.7476C83.4212 64.6514 90.2507 63.2655 90.9117 63.0923H90.8138C90.9851 63.073 91.0096 63.073 90.9117 63.0923C91.2299 63.073 92.3559 62.9383 94.7059 62.1491C97.5454 61.206 99.9443 61.8027 99.9443 61.8027C99.9443 61.8027 104.277 63.8045 107.116 64.7476C110.005 65.71 109.417 64.0547 109.417 64.0547ZM85.7222 55.7202C85.1347 56.086 84.5472 56.4709 83.9597 56.8366C83.666 57.0099 83.3233 57.1446 82.9561 57.0869C82.7358 57.0484 82.54 56.9329 82.3686 56.8174C81.3161 56.1245 80.3369 55.3353 79.2599 54.6616C76.9099 53.1795 74.6334 51.5434 72.9199 49.5801C72.1611 48.7139 71.5491 47.7708 71.2309 46.7506C70.7413 45.0953 71.1819 43.1705 72.773 41.9578C74.3886 40.7067 77.0323 40.4372 79.1375 40.9184C79.9697 41.1109 80.7531 41.4189 81.3895 41.8808C81.8546 42.2081 82.2462 42.6123 82.5645 43.0165C82.7358 43.2282 83.4457 44.0751 83.3478 44.3061C83.8374 43.1512 84.6452 42.0348 85.8201 41.2072C87.4602 40.0523 89.908 40.3217 91.8663 40.7645C93.996 41.2457 95.1709 43.132 95.4402 44.8258C96.2235 49.7918 90.006 53.0833 85.7222 55.7202Z" fill="#F29797"/>
<path d="M109.566 64.1704L108.808 61.9376C108.808 61.9376 105.503 56.9909 105.356 56.7599C105.209 56.5289 105.797 55.5857 105.797 55.5857C108.196 48.7527 107.437 45.5767 107.437 45.5767C105.821 39.9178 102.639 38.1854 102.517 38.1084C102.443 38.07 102.394 38.0315 102.321 38.0122C103.398 39.1286 104.744 41.0534 105.65 44.1716C105.65 44.1716 106.409 47.3475 104.01 54.1806C104.01 54.1806 103.422 55.1238 103.569 55.3548C103.716 55.5857 107.021 60.5325 107.021 60.5325L107.78 62.7653C107.78 62.7653 108.367 64.4206 105.528 63.4775C102.688 62.5343 98.3553 60.5325 98.3553 60.5325C98.3553 60.5325 95.9564 59.9358 93.1169 60.879C90.7425 61.6681 89.6409 61.8029 89.3227 61.8221C88.6618 61.9954 81.8323 63.362 78.0136 63.4775C73.6809 63.593 68.5893 63.4775 63.7915 62.1878C61.2458 61.4949 59.7036 60.7827 58.7979 60.263C58.6755 60.1668 58.5286 60.0898 58.4062 59.9936C58.5531 60.109 58.7 60.2438 58.8469 60.3593C59.4099 60.8212 59.9974 61.2639 60.6093 61.6681C61.4906 62.1878 63.0327 62.9 65.603 63.593C70.4008 64.8826 75.4923 64.9981 79.825 64.8826C83.6437 64.7863 90.4732 63.4005 91.1341 63.2272H91.0362C91.2076 63.208 91.232 63.208 91.1341 63.2272C91.4523 63.208 92.5784 63.0733 94.9283 62.2841C97.7678 61.3409 100.167 61.9376 100.167 61.9376C100.167 61.9376 104.499 63.9394 107.339 64.8826C110.154 65.8257 109.566 64.1704 109.566 64.1704Z" fill="#E57070"/>
<path d="M89.1992 61.8211H89.2971C89.3951 61.8031 89.3706 61.8031 89.1992 61.8211Z" fill="#E57070"/>
<path d="M83.5682 65.5563C83.201 65.5563 82.8828 65.3446 82.8339 65.0558C82.7849 64.7286 83.0542 64.4399 83.4703 64.3822C87.191 63.9587 91.1321 63.1888 95.1466 62.1109C96.5174 61.7452 98.0595 61.3217 99.773 61.8222C100.532 62.0531 101.34 62.3419 102.319 62.7461C102.686 62.9 102.833 63.2465 102.637 63.5352C102.441 63.824 102.001 63.9394 101.633 63.7855C100.703 63.4005 99.9689 63.131 99.259 62.9193C98.133 62.5921 97.1049 62.8231 95.6362 63.208C91.5238 64.3244 87.5093 65.0943 83.6906 65.537C83.6417 65.537 83.5927 65.5563 83.5682 65.5563Z" fill="#493B4E"/>
<path d="M79.9483 65.8639C79.5567 65.8639 79.2385 65.6329 79.214 65.3249C79.1895 64.9977 79.4832 64.7282 79.8994 64.6897C80.6093 64.6512 81.3436 64.5935 82.0535 64.5357C82.4696 64.4972 82.8368 64.7282 82.8858 65.0554C82.9347 65.3827 82.641 65.6714 82.2248 65.7099C81.466 65.7869 80.7316 65.8254 79.9973 65.8831C79.9728 65.8639 79.9483 65.8639 79.9483 65.8639ZM75.9338 65.9409C71.797 65.8831 67.9049 65.3634 64.38 64.3625C60.6102 63.3039 56.9385 60.9171 54.05 57.6257L53.6094 57.1252L54.2458 56.798C55.5677 56.1243 58.1134 54.7 60.341 52.6404C63.6211 49.6377 65.1633 44.152 65.1877 44.0942C66.6565 38.5508 65.0164 35.1439 64.2331 33.9505L63.9149 33.45L64.5513 33.1806C71.2829 30.2741 79.2385 29.6004 87.5367 31.198C87.9284 31.275 88.1731 31.6022 88.0752 31.9102C87.9773 32.2181 87.5612 32.4106 87.1695 32.3336C79.4832 30.8515 72.1397 31.4097 65.8731 33.9505C66.7789 35.5866 68.0517 39.0897 66.6565 44.3637C66.583 44.5947 65.0164 50.1959 61.4915 53.4296C59.5087 55.2389 57.3546 56.5863 55.7145 57.4717C58.3582 60.3012 61.5649 62.3607 64.8695 63.2846C68.2476 64.2278 71.9683 64.7282 75.9338 64.786C76.35 64.786 76.6682 65.0554 76.6682 65.3827C76.6682 65.6906 76.35 65.9409 75.9338 65.9409ZM108.613 66.1141C107.927 66.1141 107.266 65.9409 106.654 65.7676C106.263 65.6521 106.067 65.3057 106.214 65.0169C106.361 64.709 106.801 64.555 107.169 64.6705C107.683 64.8245 108.246 64.9784 108.784 64.94C108.955 64.9207 109.102 64.8822 109.176 64.8437C109.347 64.7282 109.421 64.4395 109.372 64.1123C108.931 61.995 107.487 60.0317 106.116 58.1454C105.945 57.9144 105.773 57.6834 105.626 57.4717C105.504 57.2985 105.357 57.0867 105.284 56.8172C105.21 56.4515 105.357 56.1243 105.455 55.8741C106.165 54.1995 106.557 52.5827 106.948 50.8888C107.071 50.4076 107.169 49.8879 107.315 49.3875C107.732 44.9027 106.14 40.9953 102.836 38.3968C102.052 37.7809 101.196 37.2419 100.217 36.78C97.1813 35.2401 94.0235 34.0467 90.8168 33.1806C90.4252 33.0651 90.2293 32.7378 90.3517 32.4299C90.4986 32.1219 90.9147 31.9679 91.3064 32.0642C94.611 32.9688 97.8667 34.2007 101 35.7406C102.052 36.2603 103.007 36.8569 103.864 37.5306C107.487 40.3794 109.225 44.6332 108.784 49.4837V49.5607C108.662 50.0804 108.539 50.6001 108.417 51.0813C108.025 52.8136 107.634 54.469 106.875 56.2398C106.826 56.3553 106.752 56.5285 106.777 56.6248C106.801 56.6825 106.875 56.798 106.924 56.8942C107.095 57.1252 107.242 57.3369 107.413 57.5679C108.858 59.5505 110.351 61.61 110.84 63.9391C111.012 64.709 110.718 65.4019 110.106 65.7869C109.788 65.9794 109.396 66.0948 108.931 66.1333C108.809 66.1141 108.711 66.1141 108.613 66.1141ZM104.231 64.8245C104.109 64.8245 103.986 64.8052 103.888 64.7475C103.546 64.5935 103.203 64.4587 102.836 64.3048C102.444 64.1315 102.028 63.9583 101.612 63.7851C101.245 63.6311 101.098 63.2846 101.294 62.9959C101.489 62.7072 101.93 62.5917 102.297 62.7457C102.713 62.9189 103.13 63.1114 103.546 63.2846C103.888 63.4386 104.231 63.5733 104.574 63.7273C104.941 63.8813 105.063 64.2278 104.892 64.5165C104.77 64.709 104.5 64.8245 104.231 64.8245Z" fill="#493B4E"/>
<path d="M38.0383 39.8407C38.6502 38.3971 39.6538 37.0112 41.1226 35.9911C43.1788 34.5667 46.1896 34.8939 48.613 35.4329C51.2322 36.0296 52.7254 38.3586 53.0681 40.4759C54.0473 46.616 46.3365 50.6966 41.0002 53.9688C40.2658 54.4308 39.5315 54.912 38.7971 55.3547C38.4544 55.5664 37.9893 55.7396 37.5732 55.6626C37.3039 55.6049 37.0591 55.4702 36.8388 55.3162C35.517 54.45 34.3175 53.4876 32.9712 52.6407C30.0582 50.8121 27.2187 48.7718 25.0891 46.3466C24.1589 45.2879 23.3756 44.1138 23.0084 42.8434C22.3964 40.8031 22.935 38.4163 24.9177 36.8957C26.925 35.3366 30.2051 35.0094 32.8243 35.6061C33.8524 35.8371 34.8316 36.2413 35.6149 36.8187C36.1779 37.2422 36.6675 37.7234 37.0836 38.2431C37.2549 38.5126 38.1606 39.552 38.0383 39.8407Z" fill="#EA4747"/>
<path d="M39.92 46.2298C41.71 46.1798 44.49 46.0798 47.01 45.9698L46.97 47.0698C44.52 47.2098 41.88 47.3298 40.08 47.3998L39.92 46.2298ZM39.87 43.2498H48.19V44.3698H39.87V43.2498ZM41.65 41.3298H46.34V42.4298H41.65V41.3298ZM42.32 43.9798L43.69 44.3598C43.22 45.2998 42.68 46.3398 42.23 47.0098L41.18 46.6598C41.59 45.9298 42.07 44.8198 42.32 43.9798ZM44.8 45.0098L45.86 44.4598C46.76 45.2298 47.69 46.2798 48.15 47.0398L47.04 47.7098C46.62 46.9498 45.66 45.8098 44.8 45.0098ZM43.99 39.4798C43.18 40.6198 41.62 41.8998 39.96 42.6898C39.82 42.3998 39.5 41.9498 39.25 41.6898C40.96 40.9398 42.56 39.5098 43.3 38.3298H44.57C45.63 39.7998 47.22 40.9398 48.81 41.5098C48.52 41.8098 48.25 42.2398 48.03 42.5998C46.53 41.8998 44.84 40.6398 43.99 39.4798Z" fill="black"/>
<path d="M13.863 58.8584C13.8861 59.0336 13.8398 59.2088 13.7936 59.384C13.0529 61.9149 12.9603 66.8208 12.9603 66.8208L15.2286 65.2634C15.2286 65.2634 16.1313 64.5625 17.1266 63.7838C18.284 62.9077 19.5802 61.9343 19.8811 61.7981C20.4366 61.5645 22.8438 61.4476 22.8438 61.4476L28.5147 61.6813L33.3292 61.4476L36.1531 61.214L39.8334 60.6105C41.9628 60.3769 46.3375 58.9363 46.3375 58.9363L50.5733 57.5151C52.5639 56.2107 54.6703 54.9064 54.6703 54.9064L56.6609 53.2321L59.207 49.7863C59.207 49.7863 61.1976 45.8538 61.7531 43.0114C62.3086 40.1691 61.7531 38.9621 61.7531 38.4948C61.7531 38.0276 61.4753 36.1197 60.3412 34.8154C59.207 33.511 55.8276 31.2138 53.3972 29.8121C48.0272 26.7167 46.8931 26.8335 43.6294 25.9964C40.3657 25.1592 36.8706 25.2176 36.8706 25.2176L36.8475 25.1787C36.778 25.1787 36.7086 25.1787 36.616 25.1982C27.2185 25.938 18.5617 30.474 12.0576 36.4507C11.2243 37.21 10.553 38.0081 9.99753 38.8453C7.35882 42.7778 7.52085 47.4501 9.39572 51.811C10.7382 54.0498 11.7798 56.1329 13.4695 58.2159C13.6778 58.3912 13.8398 58.6053 13.863 58.8584ZM23.978 37.0542C25.8529 35.4968 28.9314 35.1463 31.3849 35.7498C32.357 35.9835 33.2598 36.3923 34.0005 36.9569C34.5328 37.3657 34.9958 37.8524 35.3661 38.378C35.5513 38.6311 36.3845 39.6824 36.2688 39.9744C36.8243 38.5338 37.7965 37.1321 39.139 36.1197C41.0601 34.6791 43.9072 35.0101 46.1755 35.5552C48.6522 36.1392 50.041 38.4948 50.3419 40.6169C51.2677 46.7882 44.0229 50.896 39.0464 54.1666C38.352 54.6338 37.6807 55.1011 36.9863 55.5683C36.6623 55.7824 36.2457 55.9577 35.829 55.8603C35.5744 55.8019 35.3429 55.6656 35.1346 55.5099C33.9079 54.6338 32.7737 53.6799 31.5006 52.8233C28.7693 50.9933 26.1075 48.9297 24.1169 46.4962C23.2373 45.4255 22.5198 44.2574 22.1494 42.992C21.6171 40.9673 22.1263 38.5727 23.978 37.0542Z" fill="#F29797"/>
<path d="M62.8871 34.278C62.422 33.8161 61.8835 33.4119 61.3205 33.0269C60.6106 32.5264 59.8762 32.0645 59.1419 31.6025C59.2153 31.6603 59.2888 31.6988 59.3622 31.7565C59.9252 32.1415 60.4637 32.5457 60.9288 33.0077C64.1845 36.2991 63.6704 40.9571 62.3241 44.7298C60.9533 48.5794 58.1872 52.6407 53.9035 54.9698C44.773 59.955 32.8764 61.0907 21.9834 60.5902C20.4168 60.5132 18.9725 60.4747 17.6507 61.2061C16.182 62.0338 14.9091 63.0732 13.5872 64.0741L13.4648 66.2877L15.9617 64.6708L18.8991 62.592L19.7558 61.9953C19.7558 61.9953 21.5673 61.4179 23.0604 61.8221C23.3542 61.8221 23.6235 61.8413 23.9417 61.8606C34.8346 62.361 46.7312 61.2254 55.8618 56.2401C60.1455 53.8919 62.9116 49.8498 64.2824 46.0001C65.6042 42.2275 66.1183 37.5695 62.8871 34.278Z" fill="#E57070"/>
<path d="M84.0778 43.0532C84.5981 41.7819 85.4565 40.553 86.7052 39.6419C88.4481 38.3706 91.0494 38.6673 93.1305 39.1546C95.3936 39.6843 96.6422 41.7607 96.9284 43.6252C97.7608 49.0917 91.1534 52.7148 86.6011 55.6175C85.9768 56.0201 85.3525 56.4439 84.7282 56.8464C84.416 57.0371 84.0518 57.1854 83.6616 57.1219C83.4275 57.0795 83.2194 56.9524 83.0373 56.8253C81.9187 56.0625 80.8782 55.1938 79.7336 54.4522C77.2364 52.8208 74.8171 51.0198 72.9962 48.8586C72.1898 47.9052 71.5395 46.867 71.2013 45.744C70.681 43.9219 71.1493 41.8031 72.8401 40.4682C74.557 39.091 77.3664 38.7944 79.6036 39.3241C80.488 39.536 81.3204 39.875 81.9968 40.3835C82.491 40.7437 82.9072 41.1886 83.2454 41.6336C83.4275 41.8666 84.1819 42.7989 84.0778 43.0532Z" fill="#EA4747"/>
<path d="M87.72 48.5021H92.33V52.5021H91.13V49.5821H88.85V52.5521H87.72V48.5021ZM91.63 43.2521L92.47 44.2521C91.11 44.6521 89.27 44.8821 87.69 44.9921C87.65 44.7021 87.49 44.2521 87.35 43.9821C88.87 43.8521 90.57 43.5921 91.63 43.2521ZM89.35 44.1921H90.58V49.0421H89.35V44.1921ZM87.19 46.0521H92.74V47.1821H87.19V46.0521ZM88.48 50.9821H91.7V52.0621H88.48V50.9821ZM83.78 46.2921H86.8V47.1921H83.78V46.2921ZM83.84 43.4621H86.8V44.3721H83.84V43.4621ZM83.78 47.6921H86.8V48.5921H83.78V47.6921ZM83.29 44.8521H87.12V45.7921H83.29V44.8521ZM84.37 49.1021H86.85V52.1421H84.37V51.2021H85.82V50.0521H84.37V49.1021ZM83.75 49.1021H84.76V52.5421H83.75V49.1021Z" fill="black"/>
<path d="M21.1752 29.3887C20.906 29.3887 20.6612 29.2925 20.5388 29.1C20.3429 28.8113 20.4653 28.4648 20.808 28.2916C21.9341 27.7719 23.109 27.2907 24.2595 26.8865C24.6267 26.7517 25.0673 26.8865 25.2631 27.1752C25.4345 27.4639 25.2631 27.8104 24.896 27.9644C23.7699 28.3686 22.6684 28.8305 21.5669 29.331C21.42 29.3695 21.2976 29.3887 21.1752 29.3887Z" fill="#493B4E"/>
<path d="M20.1451 29.8701C19.9003 29.8701 19.6555 29.7739 19.5087 29.5814C19.2884 29.3119 19.4108 28.9462 19.7535 28.773C20.0962 28.5997 20.4389 28.4457 20.806 28.2918C21.1732 28.1378 21.6138 28.234 21.8341 28.5035C22.03 28.7922 21.9076 29.1387 21.5649 29.3119C21.2222 29.4659 20.8795 29.6199 20.5612 29.7931C20.4144 29.8508 20.2675 29.8701 20.1451 29.8701ZM11.5286 59.4352C11.4797 59.4352 11.4063 59.4352 11.3573 59.416C10.9656 59.339 10.7208 59.0117 10.8188 58.7038C10.8432 58.5883 10.8922 58.4536 10.8922 58.3766C10.8677 58.2803 10.7453 58.1263 10.6229 57.9916C9.20318 56.3555 8.22403 54.7579 7.17145 53.0641C6.87771 52.5829 6.55949 52.0824 6.24127 51.582L6.21679 51.5242C3.98924 46.6545 4.23402 41.9387 6.90219 38.2045C7.53863 37.3191 8.29747 36.4915 9.1787 35.7215C11.1125 34.0662 13.1932 32.5263 15.3718 31.179C15.69 30.9865 16.1551 31.025 16.4244 31.2752C16.6691 31.5254 16.6202 31.8911 16.302 32.1029C14.1968 33.431 12.1651 34.9131 10.2802 36.5299C9.47244 37.2229 8.76256 37.9928 8.19955 38.782C5.7517 42.1889 5.53139 46.5582 7.61207 51.0815C7.93029 51.582 8.22403 52.0632 8.51778 52.5444C9.54588 54.1997 10.5005 55.7588 11.8469 57.3179C12.0427 57.5296 12.2875 57.8376 12.3609 58.2226C12.4099 58.5113 12.312 58.7615 12.263 58.954C12.1651 59.2427 11.8469 59.4352 11.5286 59.4352ZM10.0354 65.4214H9.98649C9.57036 65.4021 9.25213 65.1327 9.27661 64.8054C9.35005 63.843 9.54588 62.8036 9.91306 61.5525C10.011 61.2445 10.4026 61.0328 10.7943 61.1098C11.1859 61.1868 11.4552 61.4948 11.3573 61.8027C11.0146 62.9961 10.8188 63.9778 10.7698 64.8632C10.7453 65.1711 10.4271 65.4214 10.0354 65.4214Z" fill="#493B4E"/>
<path d="M11.5548 68.5974C11.261 68.5974 10.9918 68.5589 10.7225 68.4819C9.96365 68.2317 9.42512 67.5965 9.32721 66.7881C9.22929 66.1529 9.22929 65.4984 9.27825 64.8055C9.30273 64.4783 9.64543 64.228 10.0616 64.2473C10.4777 64.2665 10.7959 64.536 10.7714 64.8632C10.7225 65.4984 10.747 66.0951 10.8204 66.6533C10.8694 66.9613 11.0162 67.2885 11.31 67.3847C11.4324 67.4232 11.5792 67.4232 11.7751 67.404C12.3381 67.327 12.8766 67.0383 13.3417 66.7688C13.6844 66.5763 14.1495 66.6341 14.3943 66.9035C14.6391 67.173 14.5656 67.5387 14.2229 67.7312C13.611 68.0777 12.9011 68.4626 12.0199 68.5781C11.873 68.5781 11.7016 68.5974 11.5548 68.5974ZM16.8177 65.7294C16.6218 65.7294 16.426 65.6717 16.2791 65.5562C15.9854 65.3252 15.9854 64.9595 16.2791 64.7285L16.5239 64.536L17.1114 64.0741C17.4051 63.8431 17.8702 63.8623 18.164 64.0933C18.4577 64.3243 18.4332 64.69 18.1395 64.921L17.552 65.3829L17.3072 65.5754C17.1848 65.6909 17.0135 65.7294 16.8177 65.7294Z" fill="#493B4E"/>
<path d="M18.0907 64.7668C17.8949 64.7668 17.6991 64.709 17.5522 64.5743C17.2585 64.3433 17.2829 63.9584 17.5767 63.7466C17.7236 63.6312 17.8704 63.5349 18.0173 63.4194C18.311 63.2077 18.8006 63.2077 19.0699 63.4579C19.3391 63.6889 19.3391 64.0739 19.0209 64.2856C18.874 64.3818 18.7272 64.4973 18.5803 64.6128C18.4579 64.709 18.2621 64.7668 18.0907 64.7668Z" fill="#493B4E"/>
<path d="M19.1427 64.0164C18.9224 64.0164 18.7265 63.9395 18.5797 63.8047C18.3104 63.5545 18.3349 63.1888 18.6531 62.977C19.0937 62.6691 19.5098 62.4189 19.926 62.1686C21.4681 61.2832 23.2061 61.3602 24.7483 61.4372C28.4445 61.6104 32.0184 61.5719 35.372 61.341C35.7881 61.3217 36.1553 61.5527 36.1798 61.8799C36.2287 62.2071 35.9105 62.4958 35.4944 62.5151C32.0674 62.7653 28.42 62.8038 24.6503 62.6113C23.2551 62.5536 21.9332 62.4766 20.8072 63.131C20.44 63.3428 20.0484 63.593 19.6322 63.8625C19.4854 63.9587 19.314 64.0164 19.1427 64.0164ZM39.3865 62.1301C39.0193 62.1301 38.701 61.9184 38.6521 61.6297C38.5787 61.3025 38.8724 61.0137 39.2641 60.956C43.7926 60.3786 47.9295 59.3776 51.5523 57.9918C51.9195 57.857 52.3601 57.9725 52.5559 58.2613C52.7273 58.55 52.5804 58.8964 52.2132 59.0504C48.468 60.494 44.1843 61.5334 39.5088 62.1301C39.4844 62.1109 39.4354 62.1301 39.3865 62.1301ZM54.4653 58.011C54.2205 58.011 53.9512 57.9148 53.8288 57.7223C53.6085 57.4528 53.7309 57.0871 54.0981 56.9139C54.808 56.5674 55.5178 56.221 56.2032 55.836C56.5459 55.6435 57.011 55.7205 57.2558 55.9707C57.5006 56.2402 57.4027 56.6059 57.0845 56.7984C56.3746 57.1834 55.6402 57.5683 54.8814 57.9148C54.71 57.9725 54.5877 58.011 54.4653 58.011ZM59.2631 55.0661C59.0917 55.0661 58.8959 55.0083 58.749 54.9121C58.4553 54.7004 58.4308 54.3154 58.7 54.0844C61.1479 52.0056 63.1307 49.0607 64.2812 45.7885C65.4561 42.4201 66.215 37.7043 63.0083 34.4321C62.5677 33.9894 62.0047 33.5852 61.5396 33.2387C56.2767 29.5238 50.9648 27.1948 45.3103 26.1361C40.0229 25.1545 34.5886 25.3277 29.1544 26.6751C28.9674 26.7177 28.7666 26.7009 28.5951 26.6283C28.4237 26.5557 28.2954 26.4331 28.2377 26.2869C28.1799 26.1406 28.1975 25.9824 28.2865 25.8463C28.3756 25.7101 28.529 25.6069 28.7138 25.5587C34.4173 24.1536 40.1208 23.9611 45.6774 25.0005C51.5768 26.0976 57.1089 28.5229 62.5677 32.3725C63.1062 32.7575 63.7182 33.2002 64.2322 33.7392C67.8061 37.4155 67.0228 42.497 65.7499 46.1349C64.526 49.5804 62.4453 52.6986 59.8261 54.9121C59.6792 55.0083 59.4834 55.0661 59.2631 55.0661Z" fill="#493B4E"/>
<path d="M26.3374 27.4064C26.0436 27.4064 25.7499 27.2717 25.652 27.0407C25.5051 26.7328 25.6764 26.4055 26.0681 26.2708C26.9493 26.0013 27.8306 25.7511 28.7118 25.5201C28.8988 25.4776 29.0996 25.4944 29.271 25.567C29.4425 25.6396 29.5708 25.7621 29.6285 25.9084C29.6862 26.0546 29.6687 26.2128 29.5797 26.3489C29.4906 26.4851 29.3372 26.5884 29.1524 26.6365C28.2956 26.8483 27.4389 27.0792 26.6066 27.3487C26.5332 27.3872 26.4353 27.4064 26.3374 27.4064ZM15.836 32.2377C15.6157 32.2377 15.3954 32.1607 15.2486 32.0067C15.0038 31.7565 15.0527 31.3908 15.371 31.1791C16.0808 30.7364 16.8152 30.3129 17.5495 29.9087C17.8922 29.7162 18.3573 29.7932 18.6021 30.0627C18.8469 30.3322 18.749 30.6979 18.4063 30.8904C17.6964 31.2753 16.9865 31.6988 16.3011 32.1222C16.1787 32.1992 16.0074 32.2377 15.836 32.2377Z" fill="#493B4E"/>
<path d="M14.8595 36.9533C16.9402 34.8938 19.6818 33.1422 22.3744 31.6024ZM14.7616 37.5308C14.6392 37.5115 14.4923 37.473 14.3944 37.4153C14.0762 37.2228 14.0272 36.8378 14.272 36.5876C16.5485 34.3356 19.5594 32.4685 21.9338 31.1212C22.2765 30.9287 22.7416 30.9864 22.9864 31.2559C23.2312 31.5254 23.1577 31.8911 22.815 32.0836C20.514 33.3924 17.6011 35.1825 15.447 37.3383C15.2756 37.473 15.0064 37.55 14.7616 37.5308Z" fill="white"/>
<path d="M22.3733 31.583C23.0832 31.1788 23.8175 30.7746 24.5764 30.3896ZM22.2754 32.1797C22.0795 32.1604 21.8837 32.0835 21.7613 31.9487C21.5165 31.6792 21.59 31.3135 21.9327 31.121C22.667 30.6976 23.4259 30.2934 24.1602 29.9084C24.5029 29.7352 24.968 29.8122 25.1883 30.0817C25.4086 30.3511 25.3107 30.7168 24.968 30.8901C24.2337 31.2558 23.5238 31.66 22.7894 32.0642C22.6426 32.1604 22.4467 32.1989 22.2754 32.1797Z" fill="white"/>
<path d="M12.875 71.6001L13.4625 65.5947Z" fill="#F29797"/>
<path d="M16.7682 63.8237L15.4219 66.5377Z" fill="#F29797"/>
<path d="M13.1305 39.0027C13.23 39.0067 13.3296 38.9953 13.4235 38.969C13.5174 38.9428 13.6039 38.9023 13.6779 38.8498C13.7519 38.7973 13.812 38.7338 13.8548 38.663C13.8976 38.5923 13.9223 38.5155 13.9274 38.4373C13.9325 38.359 13.9179 38.2807 13.8845 38.2069C13.8511 38.133 13.7995 38.0651 13.7327 38.0069C13.6659 37.9487 13.5852 37.9015 13.4952 37.8678C13.4052 37.8342 13.3076 37.8148 13.2081 37.8108C13.1085 37.8068 13.0089 37.8182 12.915 37.8445C12.8211 37.8707 12.7346 37.9112 12.6606 37.9637C12.5866 38.0162 12.5265 38.0797 12.4837 38.1505C12.4409 38.2213 12.4162 38.298 12.4111 38.3763C12.4061 38.4545 12.4206 38.5328 12.454 38.6067C12.4874 38.6805 12.539 38.7485 12.6058 38.8066C12.6726 38.8648 12.7533 38.9121 12.8433 38.9457C12.9334 38.9793 13.0309 38.9987 13.1305 39.0027Z" fill="white"/>
<path d="M24.0859 41.3418C24.0859 41.9914 24.2487 42.6347 24.5648 43.2348C24.881 43.835 25.3444 44.3803 25.9285 44.8397C26.5127 45.299 27.2062 45.6634 27.9695 45.912C28.7327 46.1606 29.5508 46.2886 30.3769 46.2886C31.2031 46.2886 32.0211 46.1606 32.7844 45.912C33.5477 45.6634 34.2412 45.299 34.8253 44.8397C35.4095 44.3803 35.8729 43.835 36.1891 43.2348C36.5052 42.6347 36.6679 41.9914 36.6679 41.3418C36.6679 40.6922 36.5052 40.0489 36.1891 39.4487C35.8729 38.8486 35.4095 38.3032 34.8253 37.8439C34.2412 37.3845 33.5477 37.0202 32.7844 36.7716C32.0211 36.523 31.2031 36.395 30.3769 36.395C29.5508 36.395 28.7327 36.523 27.9695 36.7716C27.2062 37.0202 26.5127 37.3845 25.9285 37.8439C25.3444 38.3032 24.881 38.8486 24.5648 39.4487C24.2487 40.0489 24.0859 40.6922 24.0859 41.3418Z" fill="#F29797"/>
<path d="M25.5524 42.1706C25.6519 42.1747 25.7515 42.1632 25.8454 42.137C25.9393 42.1108 26.0258 42.0703 26.0998 42.0178C26.1738 41.9652 26.2339 41.9018 26.2767 41.831C26.3195 41.7602 26.3442 41.6835 26.3493 41.6052C26.3544 41.527 26.3398 41.4487 26.3064 41.3748C26.273 41.301 26.2214 41.233 26.1546 41.1749C26.0878 41.1167 26.0071 41.0694 25.9171 41.0358C25.827 41.0022 25.7295 40.9828 25.6299 40.9788C25.5304 40.9748 25.4308 40.9862 25.3369 41.0124C25.243 41.0387 25.1565 41.0792 25.0825 41.1317C25.0085 41.1842 24.9484 41.2477 24.9056 41.3184C24.8628 41.3892 24.8381 41.4659 24.833 41.5442C24.8279 41.6225 24.8425 41.7008 24.8759 41.7746C24.9093 41.8485 24.9609 41.9164 25.0277 41.9746C25.0945 42.0328 25.1752 42.08 25.2652 42.1137C25.3552 42.1473 25.4528 42.1667 25.5524 42.1706Z" fill="white"/>
<path d="M25.8006 40.5337C25.5068 40.4182 25.36 40.1487 25.5068 39.9177C26.3391 38.4741 27.9302 37.3962 29.864 36.9535C30.1822 36.8765 30.5249 37.0305 30.5984 37.2807C30.6963 37.531 30.5005 37.8004 30.1822 37.8582C28.5911 38.2239 27.2693 39.1093 26.5839 40.3027C26.4615 40.5529 26.1188 40.6492 25.8006 40.5337Z" fill="white"/>
<path d="M72.6016 45.2302C72.6016 46.1337 73.058 47.0003 73.8706 47.6392C74.6831 48.2781 75.7852 48.6371 76.9343 48.6371C78.0834 48.6371 79.1854 48.2781 79.998 47.6392C80.8105 47.0003 81.267 46.1337 81.267 45.2302C81.267 44.3266 80.8105 43.46 79.998 42.8211C79.1854 42.1822 78.0834 41.8232 76.9343 41.8232C75.7852 41.8232 74.6831 42.1822 73.8706 42.8211C73.058 43.46 72.6016 44.3266 72.6016 45.2302Z" fill="#F29797"/>
<path d="M73.5934 45.7913C73.6608 45.794 73.7282 45.7863 73.7919 45.7685C73.8555 45.7507 73.914 45.7233 73.9642 45.6877C74.0143 45.6521 74.055 45.6092 74.084 45.5612C74.113 45.5133 74.1297 45.4613 74.1331 45.4083C74.1366 45.3553 74.1267 45.3022 74.1041 45.2522C74.0815 45.2022 74.0466 45.1562 74.0013 45.1167C73.9561 45.0773 73.9014 45.0453 73.8404 45.0225C73.7794 44.9998 73.7133 44.9866 73.6459 44.9839C73.5785 44.9812 73.511 44.9889 73.4474 45.0067C73.3838 45.0245 73.3253 45.052 73.2751 45.0875C73.225 45.1231 73.1843 45.1661 73.1553 45.214C73.1263 45.262 73.1096 45.3139 73.1061 45.3669C73.1027 45.42 73.1126 45.473 73.1352 45.523C73.1578 45.573 73.1927 45.6191 73.238 45.6585C73.2832 45.6979 73.3379 45.7299 73.3989 45.7527C73.4598 45.7755 73.5259 45.7886 73.5934 45.7913Z" fill="white"/>
<path d="M73.7772 44.6717C73.5814 44.5947 73.4835 44.4022 73.5814 44.2482C74.1689 43.2473 75.2459 42.5159 76.5922 42.2079C76.8126 42.1501 77.0329 42.2656 77.1063 42.4389C77.1797 42.6121 77.0329 42.7853 76.8126 42.8431C75.711 43.0933 74.8053 43.7092 74.3157 44.5369C74.2178 44.6717 73.973 44.7486 73.7772 44.6717Z" fill="white"/>
<path d="M27.9847 83.1598C27.9244 82.9361 27.8356 82.739 27.7184 82.5686C27.6012 82.3946 27.4574 82.2472 27.2869 82.1265C27.1165 82.0057 26.9212 81.9152 26.701 81.8548C26.4808 81.7909 26.2393 81.7589 25.9766 81.7589C25.4474 81.7589 24.9893 81.8868 24.6023 82.1424C24.2188 82.3981 23.9222 82.771 23.7127 83.2611C23.5032 83.7476 23.3984 84.3388 23.3984 85.0348C23.3984 85.7344 23.4996 86.331 23.7021 86.8246C23.9045 87.3182 24.1974 87.6946 24.581 87.9539C24.9645 88.2131 25.4297 88.3427 25.9766 88.3427C26.4595 88.3427 26.8679 88.2646 27.2017 88.1084C27.5391 87.9486 27.7947 87.7231 27.9688 87.4319C28.1428 87.1407 28.2298 86.798 28.2298 86.4038L28.7198 86.4624H26.0671V84.5395H30.7706V85.983C30.7706 86.9596 30.5629 87.7959 30.1474 88.4919C29.7354 89.1879 29.1673 89.7223 28.4428 90.0952C27.7219 90.4681 26.8928 90.6545 25.9553 90.6545C24.9148 90.6545 24.0004 90.429 23.212 89.978C22.4237 89.527 21.8093 88.8843 21.369 88.0498C20.9286 87.2117 20.7085 86.2174 20.7085 85.0668C20.7085 84.1719 20.8416 83.3782 21.108 82.6858C21.3743 81.9897 21.7454 81.4003 22.2212 80.9173C22.7006 80.4343 23.2546 80.0686 23.8832 79.82C24.5153 79.5714 25.1953 79.4471 25.9233 79.4471C26.5554 79.4471 27.1431 79.5377 27.6864 79.7188C28.2333 79.8999 28.7163 80.1556 29.1353 80.4858C29.5579 80.8161 29.9006 81.2085 30.1634 81.663C30.4261 82.1176 30.5895 82.6165 30.6534 83.1598H27.9847ZM32.8374 90.5054V82.3236H35.4421V90.5054H32.8374ZM34.1424 81.3701C33.7766 81.3701 33.4624 81.2493 33.1996 81.0079C32.9368 80.7628 32.8054 80.4681 32.8054 80.1236C32.8054 79.7827 32.9368 79.4915 33.1996 79.25C33.4624 79.005 33.7766 78.8825 34.1424 78.8825C34.5117 78.8825 34.826 79.005 35.0852 79.25C35.348 79.4915 35.4794 79.7827 35.4794 80.1236C35.4794 80.4681 35.348 80.7628 35.0852 81.0079C34.826 81.2493 34.5117 81.3701 34.1424 81.3701ZM39.4065 90.6439C38.8845 90.6439 38.4211 90.5569 38.0162 90.3829C37.615 90.2053 37.2971 89.939 37.0628 89.5839C36.8319 89.2252 36.7165 88.776 36.7165 88.2362C36.7165 87.7816 36.7964 87.3981 36.9562 87.0856C37.116 86.7731 37.3362 86.5192 37.6167 86.3239C37.8973 86.1286 38.2204 85.9812 38.5862 85.8818C38.952 85.7788 39.3426 85.7096 39.7581 85.674C40.2233 85.6314 40.5979 85.587 40.882 85.5409C41.1661 85.4912 41.3721 85.4219 41.4999 85.3331C41.6313 85.2408 41.697 85.1112 41.697 84.9443V84.9177C41.697 84.6442 41.6029 84.4329 41.4147 84.2838C41.2265 84.1346 40.9726 84.0601 40.653 84.0601C40.3085 84.0601 40.0315 84.1346 39.822 84.2838C39.6125 84.4329 39.4793 84.6389 39.4225 84.9017L37.0202 84.8165C37.0912 84.3193 37.2741 83.8754 37.5688 83.4848C37.8671 83.0906 38.2755 82.7816 38.7939 82.5579C39.316 82.3307 39.9427 82.217 40.6743 82.217C41.1963 82.217 41.6775 82.2792 42.1178 82.4035C42.5581 82.5242 42.9417 82.7017 43.2684 82.9361C43.5951 83.1669 43.8472 83.451 44.0248 83.7884C44.2059 84.1258 44.2964 84.5111 44.2964 84.9443V90.5054H41.8461V89.3655H41.7822C41.6366 89.6424 41.4502 89.8768 41.2229 90.0686C40.9992 90.2603 40.7346 90.4042 40.4292 90.5C40.1274 90.5959 39.7865 90.6439 39.4065 90.6439ZM40.2108 88.9393C40.4914 88.9393 40.7435 88.8825 40.9672 88.7689C41.1945 88.6552 41.3756 88.499 41.5106 88.3001C41.6455 88.0977 41.713 87.8633 41.713 87.597V86.8193C41.6384 86.8584 41.5479 86.8939 41.4413 86.9258C41.3383 86.9578 41.2247 86.988 41.1004 87.0164C40.9761 87.0448 40.8483 87.0696 40.7169 87.091C40.5855 87.1123 40.4594 87.1318 40.3387 87.1495C40.0937 87.1886 39.8841 87.249 39.7101 87.3307C39.5397 87.4123 39.4083 87.5189 39.316 87.6503C39.2272 87.7781 39.1828 87.9308 39.1828 88.1084C39.1828 88.3782 39.2787 88.5842 39.4704 88.7263C39.6657 88.8683 39.9126 88.9393 40.2108 88.9393ZM49.7084 90.6598C48.849 90.6598 48.1104 90.4841 47.4925 90.1325C46.8781 89.7774 46.404 89.2838 46.0702 88.6517C45.74 88.016 45.5748 87.2792 45.5748 86.4411C45.5748 85.5995 45.74 84.8626 46.0702 84.2305C46.404 83.5949 46.8781 83.1013 47.4925 82.7497C48.1104 82.3946 48.849 82.217 49.7084 82.217C50.5677 82.217 51.3046 82.3946 51.9189 82.7497C52.5368 83.1013 53.0109 83.5949 53.3412 84.2305C53.675 84.8626 53.8419 85.5995 53.8419 86.4411C53.8419 87.2792 53.675 88.016 53.3412 88.6517C53.0109 89.2838 52.5368 89.7774 51.9189 90.1325C51.3046 90.4841 50.5677 90.6598 49.7084 90.6598ZM49.7243 88.6943C50.0368 88.6943 50.3014 88.5984 50.518 88.4066C50.7346 88.2149 50.8998 87.9486 51.0134 87.6076C51.1306 87.2667 51.1892 86.8726 51.1892 86.4251C51.1892 85.9706 51.1306 85.5728 51.0134 85.2319C50.8998 84.891 50.7346 84.6247 50.518 84.4329C50.3014 84.2412 50.0368 84.1453 49.7243 84.1453C49.4012 84.1453 49.1278 84.2412 48.904 84.4329C48.6839 84.6247 48.5152 84.891 48.398 85.2319C48.2844 85.5728 48.2275 85.9706 48.2275 86.4251C48.2275 86.8726 48.2844 87.2667 48.398 87.6076C48.5152 87.9486 48.6839 88.2149 48.904 88.4066C49.1278 88.5984 49.4012 88.6943 49.7243 88.6943ZM63.0171 82.3236V84.2412H57.8556V82.3236H63.0171ZM58.9369 80.3633H61.5416V87.9326C61.5416 88.0924 61.5665 88.222 61.6162 88.3214C61.6695 88.4173 61.7458 88.4866 61.8453 88.5292C61.9447 88.5682 62.0637 88.5878 62.2021 88.5878C62.3016 88.5878 62.4063 88.5789 62.5164 88.5611C62.6301 88.5398 62.7153 88.5221 62.7721 88.5079L63.1663 90.3882C63.042 90.4237 62.8662 90.4681 62.6389 90.5214C62.4152 90.5746 62.1471 90.6084 61.8346 90.6226C61.2238 90.651 60.7 90.5799 60.2632 90.4095C59.83 90.2355 59.498 89.9656 59.2671 89.5998C59.0399 89.2341 58.9298 88.7742 58.9369 88.2202V80.3633ZM64.3461 90.5054V82.3236H66.9509V90.5054H64.3461ZM65.6512 81.3701C65.2854 81.3701 64.9711 81.2493 64.7084 81.0079C64.4456 80.7628 64.3142 80.4681 64.3142 80.1236C64.3142 79.7827 64.4456 79.4915 64.7084 79.25C64.9711 79.005 65.2854 78.8825 65.6512 78.8825C66.0205 78.8825 66.3348 79.005 66.594 79.25C66.8568 79.4915 66.9882 79.7827 66.9882 80.1236C66.9882 80.4681 66.8568 80.7628 66.594 81.0079C66.3348 81.2493 66.0205 81.3701 65.6512 81.3701ZM72.4334 90.6598C71.5776 90.6598 70.839 90.4912 70.2175 90.1538C69.5996 89.8129 69.1238 89.3282 68.79 88.6996C68.4597 88.0675 68.2946 87.3165 68.2946 86.4464C68.2946 85.6013 68.4615 84.8626 68.7953 84.2305C69.1291 83.5949 69.5996 83.1013 70.2069 82.7497C70.8141 82.3946 71.5297 82.217 72.3535 82.217C72.9359 82.217 73.4686 82.3076 73.9515 82.4887C74.4345 82.6698 74.8517 82.9379 75.2033 83.293C75.5549 83.6481 75.8283 84.0867 76.0236 84.6087C76.2189 85.1272 76.3166 85.722 76.3166 86.3932V87.043H69.2054V85.5302H73.8929C73.8894 85.2532 73.8237 85.0064 73.6958 84.7898C73.568 84.5732 73.3922 84.4045 73.1685 84.2838C72.9483 84.1595 72.6944 84.0973 72.4068 84.0973C72.1156 84.0973 71.8546 84.163 71.6238 84.2944C71.3929 84.4223 71.21 84.5981 71.0751 84.8218C70.9402 85.0419 70.8691 85.2923 70.862 85.5728V87.1123C70.862 87.4461 70.9277 87.739 71.0591 87.9912C71.1905 88.2397 71.377 88.4333 71.6184 88.5718C71.8599 88.7103 72.1475 88.7795 72.4814 88.7795C72.7122 88.7795 72.9217 88.7476 73.1099 88.6836C73.2981 88.6197 73.4597 88.5256 73.5946 88.4013C73.7296 88.277 73.8308 88.1243 73.8983 87.9432L76.29 88.0125C76.1905 88.5487 75.9721 89.0157 75.6348 89.4134C75.301 89.8076 74.8624 90.1147 74.3191 90.3349C73.7757 90.5515 73.1472 90.6598 72.4334 90.6598ZM69.525 81.4713L71.6664 79.9106H72.9075L75.0648 81.4713H73.3922L72.2949 80.651L71.187 81.4713H69.525ZM74.5055 80.651L75.8212 78.6321H77.6483L75.8532 80.651H74.5055ZM77.6469 93.5736V82.3236H80.2251V83.7245H80.305C80.4115 83.4759 80.5624 83.2362 80.7577 83.0054C80.9566 82.7745 81.2087 82.5863 81.5141 82.4407C81.8231 82.2916 82.1924 82.217 82.6221 82.217C83.1903 82.217 83.7211 82.3662 84.2148 82.6645C84.7119 82.9628 85.1132 83.4226 85.4186 84.0441C85.724 84.6655 85.8767 85.4574 85.8767 86.4198C85.8767 87.3466 85.7293 88.1226 85.4346 88.7476C85.1434 89.3726 84.7492 89.8413 84.252 90.1538C83.7584 90.4663 83.2098 90.6226 82.6061 90.6226C82.1942 90.6226 81.8373 90.5551 81.5354 90.4201C81.2336 90.2852 80.9797 90.1076 80.7737 89.8875C80.5713 89.6673 80.415 89.4312 80.305 89.179H80.2517V93.5736H77.6469ZM80.1984 86.4145C80.1984 86.8548 80.257 87.2383 80.3742 87.565C80.4949 87.8917 80.6672 88.1456 80.8909 88.3267C81.1182 88.5043 81.3898 88.5931 81.7059 88.5931C82.0255 88.5931 82.2971 88.5043 82.5209 88.3267C82.7446 88.1456 82.9133 87.8917 83.0269 87.565C83.1441 87.2383 83.2027 86.8548 83.2027 86.4145C83.2027 85.9741 83.1441 85.5924 83.0269 85.2692C82.9133 84.9461 82.7446 84.6957 82.5209 84.5182C82.3007 84.3406 82.029 84.2518 81.7059 84.2518C81.3863 84.2518 81.1146 84.3388 80.8909 84.5128C80.6672 84.6868 80.4949 84.9354 80.3742 85.2586C80.257 85.5817 80.1984 85.967 80.1984 86.4145Z" fill="black"/>
</g>
<defs>
<clipPath id="clip0_9_76">
<rect width="117" height="92" fill="white"/>
</clipPath>
</defs>
</svg>
