<svg width="101" height="84" viewBox="0 0 101 84" fill="none" xmlns="http://www.w3.org/2000/svg">
<path d="M94.4559 50.13L93.8008 48.3826C93.8008 48.3826 90.9481 44.5112 90.8213 44.3305C90.6945 44.1497 91.2017 43.4116 91.2017 43.4116C93.2725 38.0639 92.6175 35.5784 92.6175 35.5784C91.2228 31.1497 88.4758 29.7939 88.3701 29.7337C88.2645 29.6885 88.1588 29.6433 88.0743 29.5831C79.0513 25.4556 67.5771 23.6027 57.6033 27.218C58.3217 28.2424 59.653 30.9388 58.2161 35.232C58.2161 35.232 56.7369 39.495 53.7151 41.8449C51.7288 43.3814 49.5312 44.451 48.2422 45.0083C48.9395 45.7465 49.7425 46.4695 50.6089 47.1323C51.0949 47.4939 51.602 47.8403 52.1303 48.1567C52.891 48.5634 54.2223 49.1207 56.441 49.663C60.5827 50.6723 64.978 50.7627 68.7182 50.6723C72.0147 50.597 77.9102 49.5124 78.4808 49.3768H78.3963C78.5442 49.3618 78.5653 49.3618 78.4808 49.3768C78.7555 49.3618 79.7275 49.2563 81.7561 48.6387C84.2073 47.9006 86.2781 48.3675 86.2781 48.3675C86.2781 48.3675 90.0183 49.9342 92.4696 50.6723C94.963 51.4255 94.4559 50.13 94.4559 50.13ZM74.001 43.6074C73.4938 43.8936 72.9867 44.1949 72.4795 44.4811C72.226 44.6167 71.9301 44.7221 71.6132 44.6769C71.423 44.6468 71.2539 44.5564 71.106 44.466C70.1974 43.9237 69.3521 43.3061 68.4224 42.7789C66.3938 41.619 64.4286 40.3386 62.9494 38.8021C62.2944 38.1242 61.7661 37.3861 61.4914 36.5877C61.0688 35.2922 61.4491 33.7858 62.8226 32.8368C64.2173 31.8577 66.4994 31.6468 68.3167 32.0234C69.0352 32.174 69.7114 32.415 70.2608 32.7766C70.6623 33.0327 71.0004 33.349 71.2751 33.6653C71.423 33.831 72.0358 34.4938 71.9513 34.6746C72.3739 33.7708 73.0712 32.8971 74.0855 32.2493C75.5013 31.3455 77.6144 31.5564 79.3049 31.9029C81.1433 32.2795 82.1576 33.7557 82.39 35.0813C83.0662 38.9678 77.6989 41.5437 74.001 43.6074Z" fill="#F29797"/>
<path d="M94.5819 50.2202L93.9269 48.4728C93.9269 48.4728 91.0742 44.6014 90.9474 44.4206C90.8206 44.2399 91.3277 43.5017 91.3278 43.5017C93.3986 38.1541 92.7435 35.6686 92.7435 35.6686C91.3489 31.2398 88.6018 29.8841 88.4962 29.8239C88.4328 29.7937 88.3905 29.7636 88.3271 29.7485C89.2569 30.6222 90.4191 32.1286 91.201 34.5689C91.201 34.5689 91.856 37.0545 89.7852 42.4021C89.7852 42.4021 89.278 43.1402 89.4048 43.321C89.5316 43.5017 92.3843 47.3731 92.3843 47.3731L93.0394 49.1205C93.0394 49.1205 93.5465 50.416 91.0953 49.6779C88.6441 48.9397 84.9039 47.3731 84.9039 47.3731C84.9039 47.3731 82.8331 46.9061 80.3818 47.6443C78.3321 48.2619 77.3812 48.3673 77.1065 48.3824C76.536 48.518 70.6404 49.5875 67.344 49.6779C63.6038 49.7683 59.2085 49.6779 55.0668 48.6686C52.8692 48.1263 51.5379 47.5689 50.7561 47.1622C50.6504 47.0869 50.5236 47.0267 50.418 46.9513C50.5448 47.0417 50.6715 47.1472 50.7983 47.2375C51.2843 47.5991 51.7915 47.9455 52.3198 48.2619C53.0805 48.6686 54.4117 49.226 56.6305 49.7683C60.7722 50.7775 65.1675 50.8679 68.9077 50.7775C72.2041 50.7022 78.0997 49.6176 78.6702 49.482H78.5857C78.7336 49.467 78.7548 49.467 78.6702 49.482C78.9449 49.467 79.917 49.3615 81.9455 48.7439C84.3968 48.0058 86.4676 48.4728 86.4676 48.4728C86.4676 48.4728 90.2078 50.0394 92.659 50.7775C95.0891 51.5156 94.5819 50.2202 94.5819 50.2202Z" fill="#E57070"/>
<path d="M77 48.3817H77.0845C77.1691 48.3676 77.1479 48.3676 77 48.3817Z" fill="#E57070"/>
<path d="M72.1428 51.3046C71.8258 51.3046 71.5511 51.1389 71.5089 50.913C71.4666 50.6569 71.699 50.4309 72.0583 50.3857C75.2702 50.0543 78.6723 49.4518 82.1378 48.6082C83.3211 48.322 84.6524 47.9906 86.1316 48.3823C86.7866 48.563 87.484 48.789 88.3292 49.1053C88.6462 49.2258 88.773 49.497 88.6039 49.7229C88.4349 49.9489 88.0545 50.0393 87.7375 49.9188C86.9346 49.6175 86.3006 49.4066 85.6878 49.2409C84.7158 48.9848 83.8283 49.1656 82.5604 49.4668C79.0104 50.3405 75.5449 50.9431 72.2484 51.2896C72.2062 51.2896 72.1639 51.3046 72.1428 51.3046Z" fill="#493B4E"/>
<path d="M69.0144 51.5456C68.6763 51.5456 68.4016 51.3648 68.3805 51.1238C68.3593 50.8677 68.6129 50.6568 68.9721 50.6267C69.5849 50.5966 70.2189 50.5514 70.8317 50.5062C71.1909 50.4761 71.5079 50.6568 71.5501 50.9129C71.5924 51.169 71.3388 51.3949 70.9796 51.4251C70.3245 51.4853 69.6906 51.5155 69.0567 51.5607C69.0355 51.5456 69.0144 51.5456 69.0144 51.5456ZM65.5489 51.6058C61.9777 51.5607 58.6179 51.1539 55.575 50.3706C52.3208 49.5421 49.1512 47.6742 46.6577 45.0983L46.2773 44.7066L46.8268 44.4506C47.9678 43.9233 50.1655 42.8086 52.0884 41.1968C54.92 38.8468 56.2512 34.5537 56.2723 34.5085C57.5402 30.1701 56.1244 27.5038 55.4482 26.5699L55.1735 26.1782L55.7229 25.9673C61.534 23.6927 68.4016 23.1655 75.565 24.4158C75.9031 24.476 76.1144 24.7321 76.0299 24.9731C75.9454 25.2142 75.5862 25.3648 75.2481 25.3045C68.6129 24.1446 62.2736 24.5815 56.864 26.5699C57.6459 27.8503 58.7447 30.5919 57.5402 34.7194C57.4768 34.9001 56.1244 39.2837 53.0816 41.8144C51.3699 43.2304 49.5104 44.2849 48.0946 44.9778C50.3768 47.1922 53.1449 48.804 55.9976 49.527C58.9137 50.2652 62.1257 50.6568 65.5489 50.702C65.9081 50.702 66.1828 50.9129 66.1828 51.169C66.1828 51.41 65.9081 51.6058 65.5489 51.6058ZM93.7589 51.7414C93.1672 51.7414 92.5967 51.6058 92.0684 51.4703C91.7303 51.3799 91.5613 51.1087 91.6881 50.8828C91.8148 50.6418 92.1952 50.5213 92.5122 50.6116C92.9559 50.7321 93.4419 50.8527 93.9068 50.8225C94.0547 50.8075 94.1815 50.7773 94.2449 50.7472C94.3928 50.6568 94.4562 50.4309 94.414 50.1748C94.0336 48.5178 92.7869 46.9813 91.6035 45.505C91.4556 45.3243 91.3077 45.1435 91.1809 44.9778C91.0753 44.8422 90.9485 44.6765 90.8851 44.4656C90.8217 44.1794 90.9485 43.9233 91.033 43.7275C91.6458 42.417 91.9839 41.1516 92.322 39.826C92.4276 39.4494 92.5122 39.0427 92.6389 38.651C92.9982 35.1412 91.6247 32.0832 88.772 30.0496C88.0958 29.5676 87.3562 29.1458 86.5109 28.7843C83.8907 27.5792 81.1648 26.6452 78.3966 25.9673C78.0585 25.877 77.8895 25.6209 77.9951 25.3799C78.1219 25.1388 78.4811 25.0183 78.8192 25.0936C81.6719 25.8016 84.4823 26.7657 87.1871 27.9708C88.0958 28.3775 88.9199 28.8445 89.6595 29.3718C92.7869 31.6012 94.2872 34.9303 93.9068 38.7263V38.7866C93.8012 39.1933 93.6955 39.6 93.5899 39.9766C93.2518 41.3324 92.9137 42.6278 92.2586 44.0137C92.2163 44.1041 92.1529 44.2397 92.1741 44.315C92.1952 44.3602 92.2586 44.4506 92.3009 44.5259C92.4488 44.7066 92.5756 44.8723 92.7235 45.0531C93.9702 46.6047 95.2592 48.2165 95.6818 50.0392C95.8297 50.6418 95.5762 51.1841 95.0479 51.4853C94.7732 51.636 94.4351 51.7264 94.0336 51.7565C93.9279 51.7414 93.8434 51.7414 93.7589 51.7414ZM89.9764 50.7321C89.8708 50.7321 89.7651 50.7171 89.6806 50.6719C89.3848 50.5514 89.0889 50.4459 88.772 50.3254C88.4339 50.1899 88.0746 50.0543 87.7154 49.9187C87.3984 49.7982 87.2717 49.527 87.4407 49.3011C87.6098 49.0751 87.9901 48.9848 88.3071 49.1053C88.6663 49.2408 89.0255 49.3915 89.3848 49.527C89.6806 49.6476 89.9764 49.753 90.2723 49.8735C90.5892 49.994 90.6949 50.2652 90.547 50.4911C90.4413 50.6418 90.2089 50.7321 89.9764 50.7321Z" fill="#493B4E"/>
<path d="M32.8369 31.1795C33.3652 30.0497 34.2316 28.9651 35.4995 28.1668C37.2745 27.052 39.8736 27.3081 41.9656 27.7299C44.2266 28.1969 45.5156 30.0196 45.8114 31.6766C46.6567 36.4819 40.0004 39.6755 35.3938 42.2363C34.7599 42.5978 34.1259 42.9744 33.492 43.3209C33.1962 43.4866 32.7947 43.6222 32.4355 43.5619C32.203 43.5167 31.9917 43.4113 31.8015 43.2908C30.6604 42.6129 29.625 41.8597 28.4628 41.1969C25.9482 39.7658 23.497 38.1691 21.6586 36.2711C20.8556 35.4425 20.1794 34.5237 19.8625 33.5294C19.3342 31.9327 19.7991 30.0648 21.5107 28.8748C23.2434 27.6546 26.075 27.3985 28.336 27.8655C29.2235 28.0462 30.0688 28.3626 30.745 28.8145C31.231 29.1459 31.6536 29.5225 32.0128 29.9292C32.1607 30.1401 32.9426 30.9535 32.8369 31.1795Z" fill="#EA4747"/>
<path d="M30.92 38.43C32.71 38.38 35.49 38.28 38.01 38.17L37.97 39.27C35.52 39.41 32.88 39.53 31.08 39.6L30.92 38.43ZM30.87 35.45H39.19V36.57H30.87V35.45ZM32.65 33.53H37.34V34.63H32.65V33.53ZM33.32 36.18L34.69 36.56C34.22 37.5 33.68 38.54 33.23 39.21L32.18 38.86C32.59 38.13 33.07 37.02 33.32 36.18ZM35.8 37.21L36.86 36.66C37.76 37.43 38.69 38.48 39.15 39.24L38.04 39.91C37.62 39.15 36.66 38.01 35.8 37.21ZM34.99 31.68C34.18 32.82 32.62 34.1 30.96 34.89C30.82 34.6 30.5 34.15 30.25 33.89C31.96 33.14 33.56 31.71 34.3 30.53H35.57C36.63 32 38.22 33.14 39.81 33.71C39.52 34.01 39.25 34.44 39.03 34.8C37.53 34.1 35.84 32.84 34.99 31.68Z" fill="black"/>
<path d="M11.9675 46.0631C11.9874 46.2002 11.9475 46.3373 11.9075 46.4745C11.2681 48.4551 11.1882 52.2946 11.1882 52.2946L13.1464 51.0757C13.1464 51.0757 13.9256 50.5272 14.7848 49.9178C15.7839 49.2321 16.9028 48.4704 17.1626 48.3637C17.6421 48.1809 19.7202 48.0895 19.7202 48.0895L24.6155 48.2723L28.7716 48.0895L31.2093 47.9066L34.3863 47.4343C36.2246 47.2515 40.001 46.124 40.001 46.124L43.6576 45.0118C45.376 43.991 47.1943 42.9702 47.1943 42.9702L48.9126 41.6599L51.1106 38.9632C51.1106 38.9632 52.829 35.8855 53.3085 33.6611C53.7881 31.4367 53.3085 30.4921 53.3085 30.1264C53.3085 29.7607 53.0687 28.2676 52.0897 27.2468C51.1106 26.226 48.1933 24.4282 46.0953 23.3312C41.4597 20.9087 40.4806 21.0001 37.6632 20.345C34.8459 19.6898 31.8288 19.7355 31.8288 19.7355L31.8088 19.7051C31.7488 19.7051 31.6889 19.7051 31.609 19.7203C23.4966 20.2993 16.0236 23.8492 10.4089 28.5266C9.68961 29.1208 9.11016 29.7455 8.63061 30.4006C6.35276 33.4783 6.49262 37.1349 8.1111 40.5477C9.27001 42.2998 10.1692 43.9301 11.6278 45.5603C11.8076 45.6974 11.9475 45.865 11.9675 46.0631ZM20.6992 28.9989C22.3177 27.7801 24.9752 27.5058 27.0932 27.9781C27.9324 28.161 28.7117 28.4809 29.3511 28.9228C29.8107 29.2427 30.2103 29.6236 30.53 30.035C30.6898 30.233 31.4091 31.0558 31.3092 31.2843C31.7888 30.1569 32.628 29.0599 33.7869 28.2676C35.4453 27.1402 37.903 27.3992 39.8612 27.8258C41.9992 28.2829 43.198 30.1264 43.4578 31.7871C44.257 36.6169 38.0029 39.8316 33.707 42.3913C33.1075 42.7569 32.5281 43.1226 31.9287 43.4882C31.6489 43.6558 31.2893 43.7929 30.9296 43.7168C30.7098 43.6711 30.51 43.5644 30.3302 43.4425C29.2712 42.7569 28.2921 42.0104 27.1931 41.34C24.8353 39.9078 22.5375 38.2928 20.8191 36.3883C20.0598 35.5504 19.4404 34.6362 19.1207 33.6459C18.6612 32.0613 19.1007 30.1873 20.6992 28.9989Z" fill="#F29797"/>
<path d="M54.2848 26.8263C53.8833 26.4648 53.4184 26.1484 52.9324 25.8471C52.3196 25.4555 51.6856 25.094 51.0517 24.7324C51.1151 24.7776 51.1785 24.8077 51.2419 24.8529C51.7279 25.1542 52.1928 25.4705 52.5943 25.8321C55.4047 28.408 54.961 32.0534 53.7987 35.0059C52.6154 38.0186 50.2276 41.1971 46.5296 43.0198C38.6478 46.9213 28.378 47.8101 18.9747 47.4184C17.6223 47.3582 16.3756 47.328 15.2345 47.9005C13.9666 48.5482 12.8678 49.3616 11.7267 50.145L11.6211 51.8773L13.7765 50.6119L16.3122 48.9851L17.0518 48.5181C17.0518 48.5181 18.6155 48.0662 19.9045 48.3825C20.1581 48.3825 20.3905 48.3976 20.6652 48.4126C30.0685 48.8043 40.3382 47.9155 48.2201 44.014C51.9181 42.1762 54.3059 39.0129 55.4892 36.0001C56.6303 33.0476 57.0741 29.4022 54.2848 26.8263Z" fill="#E57070"/>
<path d="M72.5785 33.6939C73.0276 32.699 73.7686 31.7373 74.8465 31.0243C76.3511 30.0293 78.5967 30.2615 80.3931 30.6429C82.3468 31.0574 83.4247 32.6824 83.6717 34.1416C84.3903 38.4197 78.6865 41.2552 74.7567 43.5269C74.2178 43.842 73.6788 44.1736 73.1399 44.4887C72.8704 44.6379 72.556 44.754 72.2192 44.7042C72.0171 44.6711 71.8374 44.5716 71.6802 44.4721C70.7146 43.8751 69.8164 43.1953 68.8284 42.6149C66.6726 41.3381 64.5842 39.9287 63.0123 38.2373C62.3161 37.4912 61.7548 36.6786 61.4628 35.7998C61.0137 34.3738 61.4179 32.7156 62.8775 31.6709C64.3596 30.5931 66.7849 30.361 68.7161 30.7755C69.4796 30.9413 70.1982 31.2067 70.782 31.6046C71.2087 31.8865 71.568 32.2347 71.8599 32.5829C72.0171 32.7653 72.6683 33.4949 72.5785 33.6939Z" fill="#EA4747"/>
<path d="M75.72 36.86H80.33V40.86H79.13V37.94H76.85V40.91H75.72V36.86ZM79.63 31.61L80.47 32.61C79.11 33.01 77.27 33.24 75.69 33.35C75.65 33.06 75.49 32.61 75.35 32.34C76.87 32.21 78.57 31.95 79.63 31.61ZM77.35 32.55H78.58V37.4H77.35V32.55ZM75.19 34.41H80.74V35.54H75.19V34.41ZM76.48 39.34H79.7V40.42H76.48V39.34ZM71.78 34.65H74.8V35.55H71.78V34.65ZM71.84 31.82H74.8V32.73H71.84V31.82ZM71.78 36.05H74.8V36.95H71.78V36.05ZM71.29 33.21H75.12V34.15H71.29V33.21ZM72.37 37.46H74.85V40.5H72.37V39.56H73.82V38.41H72.37V37.46ZM71.75 37.46H72.76V40.9H71.75V37.46Z" fill="black"/>
<path d="M18.2785 22.9999C18.0461 22.9999 17.8348 22.9245 17.7291 22.7739C17.5601 22.5479 17.6657 22.2768 17.9616 22.1412C18.9336 21.7345 19.9479 21.3579 20.941 21.0416C21.258 20.9361 21.6384 21.0416 21.8074 21.2675C21.9553 21.4935 21.8074 21.7646 21.4904 21.8851C20.5184 22.2015 19.5675 22.563 18.6166 22.9547C18.4898 22.9848 18.3842 22.9999 18.2785 22.9999Z" fill="#493B4E"/>
<path d="M17.3894 23.3767C17.1781 23.3767 16.9668 23.3014 16.84 23.1508C16.6498 22.9399 16.7555 22.6537 17.0513 22.5181C17.3471 22.3825 17.643 22.262 17.9599 22.1415C18.2769 22.021 18.6573 22.0963 18.8474 22.3072C19.0165 22.5332 18.9108 22.8043 18.615 22.9399C18.3192 23.0604 18.0233 23.1809 17.7486 23.3165C17.6218 23.3617 17.495 23.3767 17.3894 23.3767ZM9.95124 46.5146C9.90898 46.5146 9.84559 46.5146 9.80332 46.4996C9.46523 46.4393 9.25392 46.1832 9.33844 45.9422C9.35957 45.8518 9.40183 45.7464 9.40183 45.6861C9.3807 45.6108 9.27505 45.4903 9.16939 45.3849C7.94379 44.1044 7.09854 42.8541 6.18991 41.5285C5.93633 41.1519 5.66163 40.7603 5.38693 40.3686L5.3658 40.3234C3.44287 36.5123 3.65418 32.8217 5.95747 29.8993C6.50687 29.2064 7.16194 28.5587 7.92266 27.9561C9.59201 26.6606 11.3882 25.4555 13.2688 24.4011C13.5435 24.2504 13.945 24.2805 14.1775 24.4764C14.3888 24.6722 14.3465 24.9584 14.0718 25.1241C12.2545 26.1635 10.5006 27.3234 8.87356 28.5888C8.17623 29.1311 7.56343 29.7336 7.07741 30.3512C4.9643 33.0175 4.77412 36.437 6.57027 39.977C6.84497 40.3686 7.09854 40.7452 7.35212 41.1218C8.23962 42.4173 9.06374 43.6375 10.2259 44.8576C10.395 45.0233 10.6063 45.2643 10.6697 45.5656C10.712 45.7916 10.6274 45.9874 10.5852 46.138C10.5006 46.364 10.2259 46.5146 9.95124 46.5146ZM8.66224 51.1995H8.61998C8.26075 51.1844 7.98605 50.9735 8.00718 50.7174C8.07057 49.9642 8.23962 49.1508 8.55659 48.1716C8.64111 47.9306 8.97921 47.7649 9.31731 47.8252C9.65541 47.8854 9.88785 48.1265 9.80332 48.3675C9.50749 49.3014 9.33844 50.0697 9.29618 50.7626C9.27505 51.0036 9.00034 51.1995 8.66224 51.1995Z" fill="#493B4E"/>
<path d="M9.97342 53.6849C9.71985 53.6849 9.48741 53.6547 9.25496 53.5945C8.5999 53.3986 8.13501 52.9015 8.05049 52.2689C7.96597 51.7718 7.96597 51.2596 8.00823 50.7173C8.02936 50.4612 8.32519 50.2654 8.68442 50.2805C9.04365 50.2955 9.31836 50.5064 9.29723 50.7625C9.25496 51.2596 9.27609 51.7266 9.33949 52.1634C9.38175 52.4044 9.50854 52.6605 9.76211 52.7358C9.86776 52.766 9.99455 52.766 10.1636 52.7509C10.6496 52.6907 11.1145 52.4647 11.516 52.2538C11.8118 52.1032 12.2133 52.1484 12.4246 52.3592C12.6359 52.5701 12.5725 52.8564 12.2767 53.007C11.7484 53.2781 11.1356 53.5794 10.3749 53.6698C10.2481 53.6698 10.1002 53.6849 9.97342 53.6849ZM14.5166 51.4404C14.3476 51.4404 14.1785 51.3952 14.0517 51.3048C13.7981 51.124 13.7981 50.8378 14.0517 50.657L14.263 50.5064L14.7702 50.1449C15.0238 49.9641 15.4252 49.9792 15.6788 50.1599C15.9324 50.3407 15.9113 50.6269 15.6577 50.8077L15.1505 51.1692L14.9392 51.3199C14.8336 51.4102 14.6857 51.4404 14.5166 51.4404Z" fill="#493B4E"/>
<path d="M15.6175 50.6869C15.4484 50.6869 15.2794 50.6417 15.1526 50.5363C14.899 50.3555 14.9202 50.0543 15.1737 49.8885C15.3005 49.7982 15.4273 49.7228 15.5541 49.6325C15.8077 49.4668 16.2303 49.4668 16.4627 49.6626C16.6952 49.8434 16.6952 50.1446 16.4205 50.3103C16.2937 50.3857 16.1669 50.476 16.0401 50.5664C15.9345 50.6417 15.7654 50.6869 15.6175 50.6869Z" fill="#493B4E"/>
<path d="M16.5247 50.0999C16.3345 50.0999 16.1655 50.0397 16.0387 49.9342C15.8063 49.7384 15.8274 49.4522 16.1021 49.2865C16.4825 49.0454 16.8417 48.8496 17.2009 48.6538C18.5322 47.9609 20.0325 48.0211 21.3637 48.0814C24.5545 48.2169 27.6397 48.1868 30.5346 48.0061C30.8939 47.991 31.2108 48.1718 31.232 48.4278C31.2742 48.6839 30.9995 48.9099 30.6403 48.9249C27.6819 49.1208 24.5334 49.1509 21.2792 49.0003C20.0747 48.9551 18.9337 48.8948 17.9616 49.407C17.6447 49.5727 17.3066 49.7685 16.9473 49.9794C16.8206 50.0547 16.6726 50.0999 16.5247 50.0999ZM34.0001 48.6237C33.6832 48.6237 33.4085 48.458 33.3662 48.232C33.3028 47.9759 33.5564 47.75 33.8945 47.7048C37.8037 47.2529 41.3749 46.4695 44.5023 45.385C44.8193 45.2795 45.1996 45.3699 45.3687 45.5959C45.5166 45.8218 45.3898 46.093 45.0728 46.2135C41.8398 47.3432 38.1418 48.1567 34.1058 48.6237C34.0847 48.6086 34.0424 48.6237 34.0001 48.6237ZM47.0169 45.4C46.8056 45.4 46.5731 45.3247 46.4675 45.1741C46.2773 44.9632 46.383 44.677 46.6999 44.5414C47.3127 44.2702 47.9255 43.9991 48.5172 43.6978C48.813 43.5472 49.2145 43.6074 49.4258 43.8033C49.6371 44.0142 49.5526 44.3004 49.2779 44.451C48.6651 44.7523 48.0312 45.0536 47.3761 45.3247C47.2282 45.3699 47.1225 45.4 47.0169 45.4ZM51.1586 43.0953C51.0107 43.0953 50.8416 43.0501 50.7148 42.9748C50.4613 42.8091 50.4401 42.5078 50.6726 42.327C52.7857 40.7001 54.4973 38.3954 55.4904 35.8345C56.5047 33.1984 57.1598 29.5078 54.3916 26.9469C54.0113 26.6005 53.5253 26.2841 53.1238 26.013C48.5806 23.1057 43.9951 21.283 39.1139 20.4545C34.5495 19.6862 29.8584 19.8218 25.1673 20.8762C25.0059 20.9096 24.8325 20.8964 24.6846 20.8396C24.5366 20.7828 24.4258 20.6868 24.376 20.5724C24.3261 20.458 24.3413 20.3342 24.4181 20.2276C24.495 20.1211 24.6274 20.0402 24.787 20.0025C29.7105 18.9029 34.6341 18.7523 39.4308 19.5657C44.5234 20.4243 49.299 22.3224 54.0113 25.3351C54.4762 25.6364 55.0044 25.9829 55.4482 26.4046C58.5333 29.2818 57.8571 33.2586 56.7583 36.1057C55.7018 38.8021 53.9056 41.2424 51.6446 42.9748C51.5178 43.0501 51.3488 43.0953 51.1586 43.0953Z" fill="#493B4E"/>
<path d="M22.7373 21.4484C22.4837 21.4484 22.2301 21.3429 22.1456 21.1622C22.0188 20.9212 22.1667 20.6651 22.5048 20.5596C23.2655 20.3487 24.0263 20.1529 24.787 19.9721C24.9484 19.9388 25.1218 19.952 25.2698 20.0088C25.4177 20.0656 25.5286 20.1616 25.5784 20.276C25.6282 20.3904 25.613 20.5142 25.5362 20.6208C25.4593 20.7273 25.3269 20.8082 25.1673 20.8458C24.4278 21.0115 23.6882 21.1923 22.9697 21.4032C22.9063 21.4333 22.8218 21.4484 22.7373 21.4484ZM13.672 25.2294C13.4819 25.2294 13.2917 25.1691 13.1649 25.0486C12.9536 24.8528 12.9958 24.5666 13.2705 24.4009C13.8833 24.0544 14.5173 23.723 15.1512 23.4067C15.447 23.256 15.8485 23.3163 16.0598 23.5272C16.2712 23.7381 16.1866 24.0243 15.8908 24.1749C15.278 24.4762 14.6652 24.8076 14.0735 25.139C13.9679 25.1993 13.82 25.2294 13.672 25.2294Z" fill="#493B4E"/>
<path d="M12.8283 28.9201C14.6244 27.3083 16.9911 25.9375 19.3155 24.7324ZM12.7438 29.372C12.6381 29.357 12.5113 29.3268 12.4268 29.2816C12.1521 29.131 12.1098 28.8297 12.3211 28.6339C14.2863 26.8714 16.8855 25.4103 18.9352 24.3558C19.231 24.2052 19.6325 24.2503 19.8438 24.4612C20.0551 24.6721 19.9917 24.9583 19.6959 25.109C17.7096 26.1333 15.195 27.5342 13.3354 29.2214C13.1875 29.3268 12.9551 29.3871 12.7438 29.372Z" fill="white"/>
<path d="M19.3129 24.7174C19.9257 24.4011 20.5596 24.0847 21.2147 23.7835ZM19.2283 25.1844C19.0593 25.1693 18.8902 25.1091 18.7846 25.0036C18.5733 24.7927 18.6367 24.5065 18.9325 24.3559C19.5664 24.0245 20.2215 23.7081 20.8554 23.4069C21.1513 23.2713 21.5528 23.3315 21.7429 23.5424C21.9331 23.7533 21.8486 24.0395 21.5528 24.1751C20.9188 24.4613 20.306 24.7777 19.6721 25.094C19.5453 25.1693 19.3763 25.1994 19.2283 25.1844Z" fill="white"/>
<path d="M11.1133 56.0348L11.6204 51.335Z" fill="#F29797"/>
<path d="M14.4747 49.9492L13.3125 52.0732Z" fill="#F29797"/>
<path d="M11.3367 30.5242C11.4226 30.5273 11.5085 30.5184 11.5896 30.4979C11.6707 30.4773 11.7453 30.4456 11.8092 30.4045C11.8731 30.3634 11.925 30.3138 11.9619 30.2584C11.9989 30.203 12.0202 30.1429 12.0246 30.0817C12.029 30.0204 12.0164 29.9591 11.9876 29.9014C11.9588 29.8436 11.9142 29.7904 11.8566 29.7449C11.7989 29.6993 11.7292 29.6624 11.6515 29.636C11.5738 29.6097 11.4896 29.5946 11.4036 29.5914C11.3177 29.5883 11.2317 29.5972 11.1507 29.6178C11.0696 29.6383 10.995 29.67 10.9311 29.7111C10.8672 29.7522 10.8153 29.8018 10.7783 29.8572C10.7414 29.9126 10.7201 29.9727 10.7157 30.0339C10.7113 30.0952 10.7239 30.1565 10.7527 30.2143C10.7815 30.272 10.8261 30.3252 10.8837 30.3707C10.9414 30.4163 11.0111 30.4533 11.0888 30.4796C11.1665 30.5059 11.2507 30.5211 11.3367 30.5242Z" fill="white"/>
<path d="M20.793 32.3548C20.793 32.8632 20.9334 33.3666 21.2064 33.8363C21.4793 34.306 21.8793 34.7328 22.3836 35.0923C22.8879 35.4518 23.4865 35.7369 24.1454 35.9315C24.8043 36.126 25.5105 36.2262 26.2237 36.2262C26.9368 36.2262 27.643 36.126 28.3019 35.9315C28.9608 35.7369 29.5594 35.4518 30.0637 35.0923C30.568 34.7328 30.968 34.306 31.241 33.8363C31.5139 33.3666 31.6543 32.8632 31.6543 32.3548C31.6543 31.8464 31.5139 31.343 31.241 30.8733C30.968 30.4036 30.568 29.9768 30.0637 29.6173C29.5594 29.2578 28.9608 28.9726 28.3019 28.7781C27.643 28.5835 26.9368 28.4834 26.2237 28.4834C25.5105 28.4834 24.8043 28.5835 24.1454 28.7781C23.4865 28.9726 22.8879 29.2578 22.3836 29.6173C21.8793 29.9768 21.4793 30.4036 21.2064 30.8733C20.9334 31.343 20.793 31.8464 20.793 32.3548Z" fill="#F29797"/>
<path d="M22.0554 33.0032C22.1413 33.0063 22.2273 32.9974 22.3084 32.9769C22.3895 32.9563 22.4641 32.9246 22.528 32.8835C22.5918 32.8424 22.6437 32.7928 22.6807 32.7374C22.7177 32.682 22.7389 32.6219 22.7433 32.5607C22.7477 32.4994 22.7352 32.4382 22.7063 32.3804C22.6775 32.3226 22.633 32.2694 22.5753 32.2239C22.5177 32.1783 22.448 32.1414 22.3703 32.115C22.2925 32.0887 22.2083 32.0736 22.1224 32.0704C22.0364 32.0673 21.9505 32.0762 21.8694 32.0968C21.7883 32.1173 21.7137 32.149 21.6498 32.1901C21.5859 32.2312 21.534 32.2808 21.4971 32.3362C21.4601 32.3916 21.4388 32.4517 21.4345 32.5129C21.4301 32.5742 21.4426 32.6355 21.4715 32.6933C21.5003 32.7511 21.5448 32.8042 21.6025 32.8498C21.6601 32.8953 21.7298 32.9323 21.8075 32.9586C21.8852 32.9849 21.9695 33.0001 22.0554 33.0032Z" fill="white"/>
<path d="M22.2721 31.7217C22.0185 31.6314 21.8917 31.4205 22.0185 31.2397C22.7369 30.1099 24.1105 29.2664 25.7798 28.9199C26.0545 28.8596 26.3504 28.9801 26.4138 29.176C26.4983 29.3718 26.3292 29.5827 26.0545 29.6279C24.681 29.9141 23.5399 30.607 22.9483 31.541C22.8426 31.7368 22.5468 31.8121 22.2721 31.7217Z" fill="white"/>
<path d="M62.6758 35.3972C62.6758 36.1044 63.0698 36.7826 63.7713 37.2826C64.4727 37.7826 65.424 38.0635 66.416 38.0635C67.408 38.0635 68.3593 37.7826 69.0607 37.2826C69.7621 36.7826 70.1562 36.1044 70.1562 35.3972C70.1562 34.6901 69.7621 34.0119 69.0607 33.5119C68.3593 33.0119 67.408 32.731 66.416 32.731C65.424 32.731 64.4727 33.0119 63.7713 33.5119C63.0698 34.0119 62.6758 34.6901 62.6758 35.3972Z" fill="#F29797"/>
<path d="M63.5306 35.8369C63.5888 35.839 63.647 35.8329 63.7019 35.819C63.7568 35.8051 63.8074 35.7836 63.8506 35.7558C63.8939 35.728 63.9291 35.6943 63.9541 35.6568C63.9791 35.6193 63.9935 35.5786 63.9965 35.5371C63.9995 35.4956 63.991 35.4541 63.9715 35.415C63.9519 35.3758 63.9218 35.3398 63.8827 35.3089C63.8437 35.2781 63.7965 35.2531 63.7438 35.2352C63.6912 35.2174 63.6341 35.2071 63.5759 35.205C63.5177 35.2029 63.4595 35.2089 63.4046 35.2228C63.3496 35.2368 63.2991 35.2582 63.2558 35.2861C63.2126 35.3139 63.1774 35.3476 63.1524 35.3851C63.1273 35.4226 63.1129 35.4633 63.11 35.5048C63.107 35.5463 63.1155 35.5878 63.135 35.6269C63.1545 35.6661 63.1847 35.7021 63.2238 35.7329C63.2628 35.7638 63.31 35.7888 63.3626 35.8066C63.4153 35.8245 63.4723 35.8347 63.5306 35.8369Z" fill="white"/>
<path d="M63.6905 34.9604C63.5214 34.9002 63.4369 34.7495 63.5214 34.629C64.0286 33.8457 64.9584 33.2733 66.1206 33.0323C66.3107 32.9871 66.5009 33.0775 66.5643 33.213C66.6277 33.3486 66.5009 33.4842 66.3107 33.5294C65.3598 33.7252 64.578 34.2072 64.1554 34.855C64.0708 34.9604 63.8595 35.0207 63.6905 34.9604Z" fill="white"/>
<path d="M21.1818 72.6172C21.1072 72.358 21.0025 72.1289 20.8675 71.93C20.7326 71.7276 20.5675 71.5572 20.3722 71.4187C20.1804 71.2766 19.9602 71.1683 19.7116 71.0938C19.4666 71.0192 19.195 70.9819 18.8967 70.9819C18.3391 70.9819 17.8491 71.1204 17.4265 71.3974C17.0075 71.6744 16.6808 72.0774 16.4464 72.6065C16.212 73.1321 16.0948 73.7749 16.0948 74.5348C16.0948 75.2947 16.2102 75.9411 16.4411 76.4737C16.6719 77.0064 16.9986 77.413 17.4212 77.6935C17.8438 77.9705 18.3427 78.109 18.918 78.109C19.44 78.109 19.8857 78.0167 20.255 77.832C20.6278 77.6438 20.9119 77.3793 21.1072 77.0384C21.3061 76.6974 21.4055 76.2944 21.4055 75.8292L21.8743 75.8984H19.0618V74.1619H23.6268V75.5362C23.6268 76.495 23.4244 77.3189 23.0195 78.0078C22.6147 78.6932 22.0572 79.2223 21.3469 79.5952C20.6367 79.9645 19.8235 80.1491 18.9073 80.1491C17.8846 80.1491 16.9862 79.9237 16.212 79.4727C15.4379 79.0181 14.8342 78.3736 14.4009 77.5391C13.9712 76.701 13.7564 75.7067 13.7564 74.5561C13.7564 73.6719 13.8842 72.8835 14.1399 72.1911C14.3991 71.495 14.7614 70.9055 15.2266 70.4226C15.6918 69.9396 16.2333 69.5721 16.8512 69.32C17.4691 69.0678 18.1385 68.9418 18.8594 68.9418C19.4773 68.9418 20.0526 69.0323 20.5852 69.2134C21.1179 69.391 21.5902 69.6431 22.0021 69.9698C22.4176 70.2965 22.7567 70.6854 23.0195 71.1364C23.2823 71.5838 23.451 72.0774 23.5256 72.6172H21.1818ZM25.8294 80V71.8182H28.0985V80H25.8294ZM26.9693 70.7635C26.6319 70.7635 26.3425 70.6516 26.101 70.4279C25.8631 70.2006 25.7441 69.929 25.7441 69.6129C25.7441 69.3004 25.8631 69.0323 26.101 68.8086C26.3425 68.5813 26.6319 68.4677 26.9693 68.4677C27.3066 68.4677 27.5943 68.5813 27.8322 68.8086C28.0737 69.0323 28.1944 69.3004 28.1944 69.6129C28.1944 69.929 28.0737 70.2006 27.8322 70.4279C27.5943 70.6516 27.3066 70.7635 26.9693 70.7635ZM32.2494 80.1545C31.7274 80.1545 31.2622 80.0639 30.8538 79.8828C30.4454 79.6982 30.1222 79.4265 29.8843 79.0678C29.6499 78.7056 29.5328 78.2546 29.5328 77.7148C29.5328 77.2603 29.6162 76.8786 29.7831 76.5696C29.95 76.2607 30.1773 76.0121 30.4649 75.8239C30.7526 75.6357 31.0793 75.4936 31.445 75.3977C31.8144 75.3018 32.2014 75.2344 32.6063 75.1953C33.0821 75.1456 33.4656 75.0994 33.7568 75.0568C34.048 75.0107 34.2593 74.9432 34.3907 74.8544C34.5221 74.7656 34.5878 74.6342 34.5878 74.4602V74.4283C34.5878 74.0909 34.4813 73.8299 34.2682 73.6452C34.0587 73.4606 33.7604 73.3683 33.3733 73.3683C32.9649 73.3683 32.64 73.4588 32.3985 73.6399C32.157 73.8175 31.9972 74.0412 31.9191 74.3111L29.8204 74.1406C29.9269 73.6435 30.1365 73.2138 30.449 72.8516C30.7615 72.4858 31.1645 72.2053 31.6581 72.0099C32.1553 71.8111 32.7306 71.7116 33.384 71.7116C33.8385 71.7116 34.2735 71.7649 34.689 71.8714C35.108 71.978 35.4791 72.1431 35.8023 72.3668C36.129 72.5906 36.3865 72.8782 36.5747 73.2298C36.7629 73.5778 36.857 73.995 36.857 74.4815V80H34.705V78.8654H34.6411C34.5097 79.1211 34.3339 79.3466 34.1137 79.5419C33.8936 79.7337 33.629 79.8846 33.32 79.9947C33.0111 80.1012 32.6542 80.1545 32.2494 80.1545ZM32.8992 78.5884C33.233 78.5884 33.5278 78.5227 33.7835 78.3913C34.0392 78.2564 34.2398 78.0753 34.3854 77.848C34.531 77.6207 34.6038 77.3633 34.6038 77.0756V76.2074C34.5328 76.2536 34.4351 76.2962 34.3108 76.3352C34.1901 76.3707 34.0534 76.4045 33.9007 76.4364C33.748 76.4648 33.5953 76.4915 33.4426 76.5163C33.2899 76.5376 33.1514 76.5572 33.0271 76.5749C32.7607 76.614 32.5281 76.6761 32.3293 76.7614C32.1304 76.8466 31.9759 76.962 31.8659 77.1076C31.7558 77.2496 31.7007 77.4272 31.7007 77.6403C31.7007 77.9492 31.8126 78.1854 32.0363 78.3487C32.2636 78.5085 32.5512 78.5884 32.8992 78.5884ZM42.3142 80.1598C41.4868 80.1598 40.7712 79.984 40.1675 79.6325C39.5674 79.2773 39.104 78.7837 38.7773 78.1516C38.4506 77.516 38.2872 76.7791 38.2872 75.9411C38.2872 75.0959 38.4506 74.3572 38.7773 73.7251C39.104 73.0895 39.5674 72.5959 40.1675 72.2443C40.7712 71.8892 41.4868 71.7116 42.3142 71.7116C43.1416 71.7116 43.8554 71.8892 44.4555 72.2443C45.0592 72.5959 45.5244 73.0895 45.8511 73.7251C46.1778 74.3572 46.3412 75.0959 46.3412 75.9411C46.3412 76.7791 46.1778 77.516 45.8511 78.1516C45.5244 78.7837 45.0592 79.2773 44.4555 79.6325C43.8554 79.984 43.1416 80.1598 42.3142 80.1598ZM42.3248 78.402C42.7013 78.402 43.0155 78.2955 43.2677 78.0824C43.5198 77.8658 43.7098 77.571 43.8376 77.1982C43.969 76.8253 44.0347 76.4009 44.0347 75.9251C44.0347 75.4492 43.969 75.0249 43.8376 74.652C43.7098 74.2791 43.5198 73.9844 43.2677 73.7678C43.0155 73.5511 42.7013 73.4428 42.3248 73.4428C41.9449 73.4428 41.6253 73.5511 41.366 73.7678C41.1104 73.9844 40.9168 74.2791 40.7854 74.652C40.6576 75.0249 40.5937 75.4492 40.5937 75.9251C40.5937 76.4009 40.6576 76.8253 40.7854 77.1982C40.9168 77.571 41.1104 77.8658 41.366 78.0824C41.6253 78.2955 41.9449 78.402 42.3248 78.402ZM55.6403 71.8182V73.5227H50.7131V71.8182H55.6403ZM51.8317 69.858H54.1009V77.4858C54.1009 77.6953 54.1328 77.8587 54.1967 77.9759C54.2607 78.0895 54.3494 78.1694 54.4631 78.2156C54.5803 78.2617 54.7152 78.2848 54.8679 78.2848C54.9744 78.2848 55.081 78.2759 55.1875 78.2582C55.294 78.2369 55.3757 78.2209 55.4325 78.2102L55.7894 79.8988C55.6758 79.9343 55.516 79.9751 55.31 80.0213C55.104 80.071 54.8537 80.1012 54.5589 80.1119C54.0121 80.1332 53.5327 80.0604 53.1207 79.8935C52.7124 79.7266 52.3945 79.4673 52.1673 79.1158C51.94 78.7642 51.8281 78.3203 51.8317 77.7841V69.858ZM57.1184 80V71.8182H59.3876V80H57.1184ZM58.2583 70.7635C57.921 70.7635 57.6316 70.6516 57.3901 70.4279C57.1522 70.2006 57.0332 69.929 57.0332 69.6129C57.0332 69.3004 57.1522 69.0323 57.3901 68.8086C57.6316 68.5813 57.921 68.4677 58.2583 68.4677C58.5957 68.4677 58.8833 68.5813 59.1213 68.8086C59.3627 69.0323 59.4835 69.3004 59.4835 69.6129C59.4835 69.929 59.3627 70.2006 59.1213 70.4279C58.8833 70.6516 58.5957 70.7635 58.2583 70.7635ZM64.934 80.1598C64.0924 80.1598 63.368 79.9893 62.7607 79.6484C62.157 79.304 61.6919 78.8175 61.3651 78.1889C61.0384 77.5568 60.8751 76.8093 60.8751 75.9464C60.8751 75.1048 61.0384 74.3661 61.3651 73.7305C61.6919 73.0948 62.1517 72.5994 62.7448 72.2443C63.3414 71.8892 64.0409 71.7116 64.8435 71.7116C65.3833 71.7116 65.8857 71.7987 66.3509 71.9727C66.8197 72.1431 67.2281 72.4006 67.5761 72.745C67.9276 73.0895 68.2011 73.5227 68.3964 74.0447C68.5917 74.5632 68.6894 75.1705 68.6894 75.8665V76.4897H61.7806V75.0835H66.5534C66.5534 74.7567 66.4823 74.4673 66.3403 74.2152C66.1982 73.9631 66.0012 73.766 65.749 73.6239C65.5004 73.4783 65.211 73.4055 64.8808 73.4055C64.5363 73.4055 64.2309 73.4854 63.9646 73.6452C63.7018 73.8015 63.4958 74.0128 63.3467 74.2791C63.1975 74.5419 63.1212 74.8349 63.1176 75.158V76.495C63.1176 76.8999 63.1922 77.2496 63.3414 77.5444C63.4941 77.8391 63.7089 78.0664 63.9859 78.2262C64.2629 78.386 64.5914 78.4659 64.9713 78.4659C65.2235 78.4659 65.4543 78.4304 65.6638 78.3594C65.8733 78.2884 66.0526 78.1818 66.2018 78.0398C66.3509 77.8977 66.4646 77.7237 66.5427 77.5178L68.6414 77.6562C68.5349 78.1605 68.3165 78.6009 67.9862 78.9773C67.6595 79.3501 67.2369 79.6413 66.7185 79.8509C66.2036 80.0568 65.6088 80.1598 64.934 80.1598ZM62.0203 70.9233L64.167 69.2667H65.3921L67.5494 70.9233H65.9142L64.7902 70.0284L63.6503 70.9233H62.0203ZM66.9901 69.9858L68.2366 67.9883H69.9944L68.2739 69.9858H66.9901ZM70.1702 83.0682V71.8182H72.4074V73.1925H72.5086C72.608 72.9723 72.7519 72.7486 72.9401 72.5213C73.1318 72.2905 73.3804 72.0987 73.6858 71.946C73.9948 71.7898 74.3783 71.7116 74.8364 71.7116C75.433 71.7116 75.9834 71.8679 76.4877 72.1804C76.9919 72.4893 77.395 72.9563 77.6968 73.5813C77.9987 74.2028 78.1496 74.9822 78.1496 75.9197C78.1496 76.8324 78.0022 77.603 77.7075 78.2315C77.4163 78.8565 77.0186 79.3306 76.5143 79.6538C76.0136 79.9734 75.4525 80.1332 74.8311 80.1332C74.3907 80.1332 74.0161 80.0604 73.7071 79.9148C73.4017 79.7692 73.1514 79.5863 72.9561 79.3661C72.7607 79.1424 72.6116 78.9169 72.5086 78.6896H72.4394V83.0682H70.1702ZM72.3914 75.9091C72.3914 76.3956 72.4589 76.82 72.5938 77.1822C72.7288 77.5444 72.9241 77.8267 73.1798 78.0291C73.4355 78.228 73.7462 78.3274 74.1119 78.3274C74.4813 78.3274 74.7938 78.2262 75.0494 78.0238C75.3051 77.8178 75.4987 77.5337 75.6301 77.1715C75.765 76.8058 75.8325 76.3849 75.8325 75.9091C75.8325 75.4368 75.7668 75.0213 75.6354 74.6626C75.504 74.304 75.3105 74.0234 75.0548 73.821C74.7991 73.6186 74.4848 73.5174 74.1119 73.5174C73.7426 73.5174 73.4301 73.6151 73.1744 73.8104C72.9223 74.0057 72.7288 74.2827 72.5938 74.6413C72.4589 75 72.3914 75.4226 72.3914 75.9091Z" fill="black"/>
</svg>
