<svg width="66" height="77" viewBox="0 0 66 77" fill="none" xmlns="http://www.w3.org/2000/svg">
<path d="M56.5518 28.1418C56.4446 38.828 46.0091 47.5244 33.1854 47.6137C20.3598 47.7029 9.92527 38.6939 9.81951 28.1418C9.77458 23.6648 1.43963 23.6612 1.48456 28.1418C1.55313 34.9846 4.69761 41.4488 10.3127 46.4321C15.8832 51.376 23.7282 54.1373 31.7831 54.53C39.9858 54.9304 47.9849 52.3341 54.1663 47.9357C60.3593 43.5293 63.8767 37.1235 64.7473 30.4638C64.8482 29.6929 64.8788 28.9166 64.8865 28.1419C64.9314 23.6612 56.5967 23.6648 56.5518 28.1418Z" fill="#4A5699"/>
<path d="M9.8195 26.8903C9.92663 16.2037 20.3617 7.50732 33.1854 7.41806C38.5579 7.38062 38.5621 0.434936 33.1854 0.472318C24.8372 0.53038 16.9177 3.24203 10.9243 8.08208C4.86538 12.9747 1.55455 19.902 1.48456 26.8903C1.43963 31.3709 9.77452 31.367 9.8195 26.8903Z" fill="#C45FA0"/>
<path d="M25.8451 33.1454C22.3539 29.264 22.8695 24.8688 27.2129 21.7443C31.2754 18.8218 37.284 19.9288 40.7208 23.4878C42.1472 24.9647 45.1385 24.7178 46.6145 23.4878C48.3492 22.042 48.0372 20.0498 46.6145 18.5764C40.8643 12.6221 29.8791 11.4528 22.5337 16.0411C14.8755 20.8247 12.7882 30.136 18.6482 36.6509C20.0078 38.1625 22.2209 38.9362 24.35 37.8968C26.1417 37.0223 27.2109 34.6638 25.8451 33.1454Z" fill="#E5594F"/>
<path d="M40.5218 23.2721C42.4987 25.4702 43.0099 27.115 42.7247 29.6779C42.7708 29.364 42.751 29.4207 42.6651 29.8484C42.5814 30.2119 42.4551 30.5673 42.3295 30.9217C42.0644 31.668 42.1373 31.4534 41.7011 32.1428C40.9291 33.3629 40.1881 33.9799 38.7833 34.9222C37.0109 36.1108 37.307 38.6034 38.7833 39.8336C40.5179 41.2791 42.909 41.0192 44.6768 39.8336C51.8214 35.0412 53.2241 25.8876 47.7185 19.7664C46.3591 18.2549 44.1458 17.4812 42.0166 18.5205C40.2249 19.3953 39.1559 21.7535 40.5218 23.2721Z" fill="#F39A2B"/>
<path d="M20.1222 67.5455C20.1222 68.7457 19.8913 69.7631 19.4297 70.5977C18.968 71.4322 18.343 72.0661 17.5547 72.4993C16.7699 72.9325 15.8892 73.1491 14.9126 73.1491C13.9325 73.1491 13.0501 72.9308 12.2653 72.494C11.4805 72.0572 10.8572 71.4233 10.3956 70.5923C9.9375 69.7578 9.70845 68.7422 9.70845 67.5455C9.70845 66.3452 9.9375 65.3278 10.3956 64.4933C10.8572 63.6587 11.4805 63.0249 12.2653 62.5916C13.0501 62.1584 13.9325 61.9418 14.9126 61.9418C15.8892 61.9418 16.7699 62.1584 17.5547 62.5916C18.343 63.0249 18.968 63.6587 19.4297 64.4933C19.8913 65.3278 20.1222 66.3452 20.1222 67.5455ZM17.4268 67.5455C17.4268 66.8352 17.3256 66.2351 17.1232 65.745C16.9244 65.255 16.6367 64.8839 16.2603 64.6317C15.8874 64.3796 15.4382 64.2536 14.9126 64.2536C14.3906 64.2536 13.9414 64.3796 13.565 64.6317C13.1886 64.8839 12.8991 65.255 12.6967 65.745C12.4979 66.2351 12.3984 66.8352 12.3984 67.5455C12.3984 68.2557 12.4979 68.8558 12.6967 69.3459C12.8991 69.8359 13.1886 70.207 13.565 70.4592C13.9414 70.7113 14.3906 70.8374 14.9126 70.8374C15.4382 70.8374 15.8874 70.7113 16.2603 70.4592C16.6367 70.207 16.9244 69.8359 17.1232 69.3459C17.3256 68.8558 17.4268 68.2557 17.4268 67.5455ZM15.9727 61.1108L14.9126 59.875L13.858 61.1108H11.674V61.0415L13.9805 58.6552H15.8501L18.1513 61.0415V61.1108H15.9727ZM24.2663 68.3338V73H21.6616V64.8182H24.1385V66.3203H24.229C24.4102 65.8196 24.7191 65.4272 25.1559 65.1431C25.5927 64.8555 26.1129 64.7116 26.7166 64.7116C27.2919 64.7116 27.7908 64.8413 28.2134 65.1005C28.6396 65.3562 28.9698 65.7148 29.2042 66.1765C29.4421 66.6346 29.5593 67.1708 29.5558 67.7852V73H26.951V68.2965C26.9545 67.842 26.8391 67.4869 26.6048 67.2312C26.3739 66.9755 26.0526 66.8477 25.6406 66.8477C25.3672 66.8477 25.1257 66.908 24.9162 67.0288C24.7102 67.146 24.5504 67.3146 24.4368 67.5348C24.3267 67.755 24.2699 68.0213 24.2663 68.3338ZM39.0093 64.8182V66.7358H33.8477V64.8182H39.0093ZM34.9291 62.858H37.5338V70.4272C37.5338 70.587 37.5587 70.7166 37.6084 70.8161C37.6617 70.9119 37.738 70.9812 37.8374 71.0238C37.9369 71.0629 38.0558 71.0824 38.1943 71.0824C38.2938 71.0824 38.3985 71.0735 38.5086 71.0558C38.6222 71.0344 38.7075 71.0167 38.7643 71.0025L39.1585 72.8828C39.0342 72.9183 38.8584 72.9627 38.6311 73.016C38.4074 73.0692 38.1393 73.103 37.8268 73.1172C37.216 73.1456 36.6922 73.0746 36.2554 72.9041C35.8222 72.7301 35.4901 72.4602 35.2593 72.0945C35.032 71.7287 34.922 71.2688 34.9291 70.7148V62.858ZM42.6448 73.1385C42.1228 73.1385 41.6594 73.0515 41.2545 72.8775C40.8532 72.6999 40.5354 72.4336 40.301 72.0785C40.0702 71.7198 39.9548 71.2706 39.9548 70.7308C39.9548 70.2763 40.0347 69.8928 40.1945 69.5803C40.3543 69.2678 40.5745 69.0138 40.855 68.8185C41.1356 68.6232 41.4587 68.4759 41.8245 68.3764C42.1903 68.2734 42.5809 68.2042 42.9964 68.1687C43.4616 68.1261 43.8362 68.0817 44.1203 68.0355C44.4044 67.9858 44.6104 67.9165 44.7382 67.8278C44.8696 67.7354 44.9353 67.6058 44.9353 67.4389V67.4123C44.9353 67.1388 44.8412 66.9276 44.653 66.7784C44.4648 66.6293 44.2108 66.5547 43.8912 66.5547C43.5468 66.5547 43.2698 66.6293 43.0603 66.7784C42.8508 66.9276 42.7176 67.1335 42.6608 67.3963L40.2584 67.3111C40.3295 66.8139 40.5123 66.37 40.8071 65.9794C41.1054 65.5852 41.5138 65.2763 42.0322 65.0526C42.5542 64.8253 43.181 64.7116 43.9126 64.7116C44.4346 64.7116 44.9157 64.7738 45.3561 64.8981C45.7964 65.0188 46.18 65.1964 46.5067 65.4308C46.8334 65.6616 47.0855 65.9457 47.2631 66.283C47.4442 66.6204 47.5347 67.0057 47.5347 67.4389V73H45.0844V71.8601H45.0205C44.8749 72.1371 44.6885 72.3714 44.4612 72.5632C44.2375 72.755 43.9729 72.8988 43.6675 72.9947C43.3657 73.0906 43.0248 73.1385 42.6448 73.1385ZM43.4491 71.4339C43.7297 71.4339 43.9818 71.3771 44.2055 71.2635C44.4328 71.1499 44.6139 70.9936 44.7488 70.7947C44.8838 70.5923 44.9513 70.358 44.9513 70.0916V69.3139C44.8767 69.353 44.7861 69.3885 44.6796 69.4205C44.5766 69.4524 44.463 69.4826 44.3387 69.511C44.2144 69.5394 44.0866 69.5643 43.9552 69.5856C43.8238 69.6069 43.6977 69.6264 43.577 69.6442C43.3319 69.6832 43.1224 69.7436 42.9484 69.8253C42.778 69.907 42.6466 70.0135 42.5542 70.1449C42.4655 70.2727 42.4211 70.4254 42.4211 70.603C42.4211 70.8729 42.517 71.0788 42.7087 71.2209C42.904 71.3629 43.1508 71.4339 43.4491 71.4339ZM45.0578 63.8381L43.9978 62.6023L42.9431 63.8381H40.7591V63.7688L43.0656 61.3825H44.9353L47.2364 63.7688V63.8381H45.0578ZM43.9019 76.1854C43.5326 76.1854 43.2165 76.0629 42.9537 75.8178C42.6945 75.5728 42.5649 75.2798 42.5649 74.9389C42.5649 74.598 42.6963 74.305 42.9591 74.06C43.2219 73.815 43.5361 73.6925 43.9019 73.6925C44.2712 73.6925 44.5855 73.815 44.8447 74.06C45.1075 74.305 45.2389 74.598 45.2389 74.9389C45.2389 75.2798 45.1075 75.5728 44.8447 75.8178C44.5855 76.0629 44.2712 76.1854 43.9019 76.1854ZM49.1274 76.0682V64.8182H51.7055V66.2191H51.7854C51.892 65.9705 52.0429 65.7308 52.2382 65.5C52.4371 65.2692 52.6892 65.081 52.9946 64.9354C53.3035 64.7862 53.6729 64.7116 54.1025 64.7116C54.6707 64.7116 55.2016 64.8608 55.6952 65.1591C56.1924 65.4574 56.5937 65.9173 56.8991 66.5387C57.2045 67.1602 57.3572 67.9521 57.3572 68.9144C57.3572 69.8413 57.2098 70.6172 56.915 71.2422C56.6238 71.8672 56.2297 72.3359 55.7325 72.6484C55.2389 72.9609 54.6903 73.1172 54.0866 73.1172C53.6746 73.1172 53.3177 73.0497 53.0159 72.9148C52.714 72.7798 52.4601 72.6023 52.2542 72.3821C52.0518 72.1619 51.8955 71.9258 51.7854 71.6737H51.7322V76.0682H49.1274ZM51.6789 68.9091C51.6789 69.3494 51.7375 69.733 51.8547 70.0597C51.9754 70.3864 52.1476 70.6403 52.3714 70.8214C52.5986 70.9989 52.8703 71.0877 53.1863 71.0877C53.5059 71.0877 53.7776 70.9989 54.0013 70.8214C54.2251 70.6403 54.3937 70.3864 54.5074 70.0597C54.6246 69.733 54.6832 69.3494 54.6832 68.9091C54.6832 68.4687 54.6246 68.087 54.5074 67.7638C54.3937 67.4407 54.2251 67.1903 54.0013 67.0128C53.7812 66.8352 53.5095 66.7464 53.1863 66.7464C52.8667 66.7464 52.5951 66.8335 52.3714 67.0075C52.1476 67.1815 51.9754 67.43 51.8547 67.7532C51.7375 68.0763 51.6789 68.4616 51.6789 68.9091Z" fill="black"/>
</svg>
