<svg width="117" height="83" viewBox="0 0 117 83" fill="none" xmlns="http://www.w3.org/2000/svg">
<g clip-path="url(#clip0_5_42)">
<path d="M10.9531 1.22705V9.05469L15.7733 7.99969V4.64651H112.185V48.2459H35.4651L35.2148 51.6627H117.001V1.22705H10.9531Z" fill="#315BF1"/>
<path d="M18.6212 30.0778C26.5065 30.0778 32.8987 25.5431 32.8987 19.9493C32.8987 14.3555 26.5065 9.8208 18.6212 9.8208C10.736 9.8208 4.34375 14.3555 4.34375 19.9493C4.34375 25.5431 10.736 30.0778 18.6212 30.0778Z" fill="#F32456"/>
<path d="M30.7409 77.1471V59.1168V57.4176V55.1115H31.6489L32.9754 36.8055L57.6032 27.7558L54.3673 23.3291L31.8507 31.6021H23.817L18.3728 36.0792L13.1079 31.6021L1.53947 33.0891L0.79963 51.3315H5.70203L5.96733 55.1115H6.71465V57.4176V59.1168V77.1471H5.73192L0 78.0324V81.7753H4.87998L10.5745 81.1126L10.6269 81.7753H16.9305V77.6004V77.1471V59.1168H20.5213V77.1471V77.6004V81.7753H26.8324L26.8847 81.1126L32.5756 81.7753H37.4555V78.0324L31.7274 77.1471H30.7409Z" fill="#F32456"/>
<path d="M102.99 12.0396H41.25V13.3225H102.99V12.0396Z" fill="black"/>
<path d="M102.814 7.85107H41.0742V9.13403H102.814V7.85107Z" fill="black"/>
<path d="M53.9062 30.7325H102.986V29.4521H57.6279L53.9062 30.7325Z" fill="black"/>
<path d="M41.25 35.1351V35.1988H102.99V33.9185H44.3289L41.25 35.1351Z" fill="black"/>
<path d="M107.245 41.5H88.3711V46.4781H107.245V41.5Z" fill="black"/>
<path d="M36.0977 39.2007V39.2564H103.31V38.1348H39.4495L36.0977 39.2007Z" fill="black"/>
<path d="M69.2803 16.8259L70.8163 17.2699C69.3043 21.5899 66.5083 24.1099 62.2123 25.4539C62.0443 25.0939 61.5883 24.3979 61.3003 24.0499C65.4523 22.9579 68.0323 20.7379 69.2803 16.8259ZM64.6483 16.9219C65.8603 20.4739 68.4523 23.0299 72.7243 23.9899C72.3763 24.3259 71.9083 25.0099 71.6803 25.4299C67.1803 24.2539 64.7083 21.5059 63.2083 17.3539L64.6483 16.9219ZM61.5163 16.0459H72.5083V17.4619H61.5163V16.0459ZM66.2323 14.1499H67.7203V16.9099H66.2323V14.1499ZM76.6963 18.9619H84.4843V20.3299H76.6963V18.9619ZM77.2963 15.8779H83.9083V17.2459H77.2963V15.8779ZM79.7923 14.1499H81.2923V19.9579H79.7923V14.1499ZM76.6963 23.4859C78.3043 23.4259 80.8363 23.2819 83.2003 23.1499V24.4459C80.9563 24.6379 78.5803 24.8179 76.8883 24.9379L76.6963 23.4859ZM81.2923 21.8299L82.5403 21.1699C83.4283 22.2379 84.4003 23.6539 84.7723 24.6739L83.4043 25.4299C83.0803 24.4459 82.1683 22.9339 81.2923 21.8299ZM78.8683 19.9219L80.4643 20.3419C79.9363 21.7339 79.2523 23.2699 78.7003 24.2659L77.4163 23.8579C77.9563 22.8019 78.5563 21.1579 78.8683 19.9219ZM74.0083 15.2539L74.8003 14.1979C75.5803 14.4859 76.6003 15.0019 77.1043 15.4219L76.2643 16.5979C75.7963 16.1659 74.8003 15.5899 74.0083 15.2539ZM73.3243 18.5299L74.0683 17.4379C74.8483 17.7019 75.8803 18.1699 76.4083 18.5659L75.6043 19.7659C75.1243 19.3699 74.1163 18.8299 73.3243 18.5299ZM73.6603 24.3259C74.2603 23.4259 75.1243 21.9259 75.7843 20.5459L76.8763 21.4579C76.2883 22.7299 75.5803 24.0979 74.9083 25.2619L73.6603 24.3259Z" fill="black"/>
<path d="M48.1101 63.0909V74H45.8729L41.5316 67.7038H41.4624V74H38.8256V63.0909H41.0948L45.3881 69.3764H45.4787V63.0909H48.1101ZM53.5819 77.2386C52.8042 77.2386 52.1384 77.1303 51.5844 76.9137C51.0305 76.6971 50.5954 76.4006 50.2794 76.0241C49.9633 75.6477 49.7733 75.2216 49.7094 74.7457L52.1757 74.6072C52.2219 74.7741 52.3071 74.9197 52.4314 75.044C52.5592 75.1683 52.7243 75.2642 52.9268 75.3317C53.1327 75.3991 53.3742 75.4329 53.6512 75.4329C54.088 75.4329 54.4484 75.3263 54.7325 75.1133C55.0202 74.9038 55.164 74.5362 55.164 74.0107V72.5724H55.0734C54.9704 72.8246 54.8142 73.0501 54.6047 73.2489C54.3952 73.4478 54.1341 73.604 53.8216 73.7177C53.5127 73.8313 53.1576 73.8881 52.7563 73.8881C52.1597 73.8881 51.6128 73.7496 51.1157 73.4727C50.6221 73.1921 50.2261 72.7589 49.9278 72.1729C49.6331 71.5835 49.4857 70.8253 49.4857 69.8984C49.4857 68.9432 49.6384 68.1566 49.9438 67.5387C50.2492 66.9173 50.6487 66.4574 51.1423 66.1591C51.6395 65.8608 52.1739 65.7116 52.7457 65.7116C53.1753 65.7116 53.5429 65.7862 53.8483 65.9354C54.1572 66.081 54.4111 66.2692 54.61 66.5C54.8089 66.7308 54.9598 66.9705 55.0628 67.2191H55.1373V65.8182H57.7314V74.032C57.7314 74.7244 57.5574 75.3086 57.2094 75.7844C56.8614 76.2603 56.3749 76.6207 55.7499 76.8658C55.1249 77.1143 54.4023 77.2386 53.5819 77.2386ZM53.6618 71.9918C53.9779 71.9918 54.2478 71.9084 54.4715 71.7415C54.6952 71.5746 54.8675 71.3349 54.9882 71.0224C55.1089 70.7099 55.1693 70.3352 55.1693 69.8984C55.1693 69.4545 55.1089 69.0728 54.9882 68.7532C54.871 68.43 54.6988 68.1815 54.4715 68.0075C54.2478 67.8335 53.9779 67.7464 53.6618 67.7464C53.3387 67.7464 53.0653 67.8352 52.8415 68.0128C52.6178 68.1903 52.4474 68.4407 52.3302 68.7638C52.2165 69.0835 52.1597 69.4616 52.1597 69.8984C52.1597 70.3352 52.2183 70.7099 52.3355 71.0224C52.4527 71.3349 52.6214 71.5746 52.8415 71.7415C53.0653 71.9084 53.3387 71.9918 53.6618 71.9918ZM68.4688 65.3388H69.8484C69.8484 65.978 69.7507 66.516 69.5554 66.9528C69.3601 67.386 69.0334 67.7127 68.5753 67.9329C68.1207 68.1531 67.5011 68.2631 66.7163 68.2631V67.2031C67.2276 67.2031 67.6076 67.1339 67.8562 66.9954C68.1048 66.8569 68.2681 66.6491 68.3462 66.3722C68.4244 66.0952 68.4652 65.7507 68.4688 65.3388ZM64.7347 70.4684V65.8182H67.3395V74H64.8572V72.4766H64.772C64.5909 72.9773 64.282 73.375 63.8452 73.6697C63.4084 73.9609 62.8846 74.1065 62.2738 74.1065C61.7127 74.1065 61.2209 73.9787 60.7983 73.723C60.3793 73.4673 60.0526 73.1104 59.8182 72.6523C59.5838 72.1907 59.4648 71.6509 59.4613 71.033V65.8182H62.0661V70.5217C62.0696 70.9656 62.185 71.3153 62.4123 71.571C62.6431 71.8267 62.9592 71.9545 63.3604 71.9545C63.6197 71.9545 63.8523 71.8977 64.0582 71.7841C64.2678 71.6669 64.4329 71.4982 64.5536 71.2781C64.6779 71.0543 64.7383 70.7844 64.7347 70.4684ZM61.9276 64.8061L60.5692 64.7955C60.5692 64.0746 60.7415 63.5295 61.0859 63.1602C61.4304 62.7908 61.8494 62.6044 62.343 62.6009C62.6058 62.6009 62.8295 62.6435 63.0142 62.7287C63.2024 62.8104 63.3675 62.908 63.5096 63.0217C63.6552 63.1317 63.7901 63.2294 63.9144 63.3146C64.0423 63.3963 64.1772 63.4371 64.3192 63.4371C64.5217 63.4336 64.6708 63.359 64.7667 63.2134C64.8661 63.0643 64.9176 62.8636 64.9212 62.6115L66.2582 62.6275C66.2475 63.3413 66.0717 63.8864 65.7308 64.2628C65.3899 64.6357 64.9744 64.8239 64.4844 64.8274C64.2145 64.831 63.9854 64.7901 63.7972 64.7049C63.609 64.6197 63.4457 64.522 63.3072 64.4119C63.1722 64.3018 63.0426 64.206 62.9183 64.1243C62.794 64.0391 62.6573 63.9964 62.5082 63.9964C62.3342 63.9964 62.1939 64.0675 62.0874 64.2095C61.9808 64.348 61.9276 64.5469 61.9276 64.8061ZM73.6889 77.0682V65.8182H76.267V67.2191H76.3469C76.4535 66.9705 76.6044 66.7308 76.7997 66.5C76.9986 66.2692 77.2507 66.081 77.5561 65.9354C77.8651 65.7862 78.2344 65.7116 78.6641 65.7116C79.2322 65.7116 79.7631 65.8608 80.2567 66.1591C80.7539 66.4574 81.1552 66.9173 81.4606 67.5387C81.766 68.1602 81.9187 68.9521 81.9187 69.9144C81.9187 70.8413 81.7713 71.6172 81.4766 72.2422C81.1854 72.8672 80.7912 73.3359 80.294 73.6484C79.8004 73.9609 79.2518 74.1172 78.6481 74.1172C78.2362 74.1172 77.8793 74.0497 77.5774 73.9148C77.2756 73.7798 77.0217 73.6023 76.8157 73.3821C76.6133 73.1619 76.457 72.9258 76.3469 72.6737H76.2937V77.0682H73.6889ZM76.2404 69.9091C76.2404 70.3494 76.299 70.733 76.4162 71.0597C76.5369 71.3864 76.7092 71.6403 76.9329 71.8214C77.1602 71.9989 77.4318 72.0877 77.7479 72.0877C78.0675 72.0877 78.3391 71.9989 78.5629 71.8214C78.7866 71.6403 78.9553 71.3864 79.0689 71.0597C79.1861 70.733 79.2447 70.3494 79.2447 69.9091C79.2447 69.4687 79.1861 69.087 79.0689 68.7638C78.9553 68.4407 78.7866 68.1903 78.5629 68.0128C78.3427 67.8352 78.071 67.7464 77.7479 67.7464C77.4283 67.7464 77.1566 67.8335 76.9329 68.0075C76.7092 68.1815 76.5369 68.43 76.4162 68.7532C76.299 69.0763 76.2404 69.4616 76.2404 69.9091ZM85.8884 69.3338V74H83.2836V63.0909H85.8032V67.3203H85.8937C86.0784 66.8161 86.3802 66.4219 86.7993 66.1378C87.2219 65.8537 87.7385 65.7116 88.3493 65.7116C88.9246 65.7116 89.4253 65.8395 89.8515 66.0952C90.2776 66.3473 90.6079 66.7042 90.8422 67.1658C91.0802 67.6275 91.1974 68.1673 91.1938 68.7852V74H88.589V69.2965C88.5926 68.842 88.479 68.4869 88.2481 68.2312C88.0173 67.9755 87.6924 67.8477 87.2733 67.8477C86.9999 67.8477 86.7584 67.908 86.5489 68.0288C86.343 68.146 86.1814 68.3146 86.0642 68.5348C85.9506 68.755 85.892 69.0213 85.8884 69.3338ZM95.1262 74.1385C94.6042 74.1385 94.1408 74.0515 93.736 73.8775C93.3347 73.6999 93.0169 73.4336 92.7825 73.0785C92.5517 72.7198 92.4363 72.2706 92.4363 71.7308C92.4363 71.2763 92.5162 70.8928 92.676 70.5803C92.8358 70.2678 93.0559 70.0138 93.3365 69.8185C93.617 69.6232 93.9402 69.4759 94.3059 69.3764C94.6717 69.2734 95.0623 69.2042 95.4778 69.1687C95.943 69.1261 96.3176 69.0817 96.6017 69.0355C96.8858 68.9858 97.0918 68.9165 97.2196 68.8278C97.351 68.7354 97.4167 68.6058 97.4167 68.4389V68.4123C97.4167 68.1388 97.3226 67.9276 97.1344 67.7784C96.9462 67.6293 96.6923 67.5547 96.3727 67.5547C96.0282 67.5547 95.7512 67.6293 95.5417 67.7784C95.3322 67.9276 95.199 68.1335 95.1422 68.3963L92.7399 68.3111C92.8109 67.8139 92.9938 67.37 93.2885 66.9794C93.5868 66.5852 93.9952 66.2763 94.5137 66.0526C95.0357 65.8253 95.6625 65.7116 96.394 65.7116C96.916 65.7116 97.3972 65.7738 97.8375 65.8981C98.2779 66.0188 98.6614 66.1964 98.9881 66.4308C99.3148 66.6616 99.5669 66.9457 99.7445 67.283C99.9256 67.6204 100.016 68.0057 100.016 68.4389V74H97.5659V72.8601H97.502C97.3564 73.1371 97.1699 73.3714 96.9426 73.5632C96.7189 73.755 96.4544 73.8988 96.149 73.9947C95.8471 74.0906 95.5062 74.1385 95.1262 74.1385ZM95.9306 72.4339C96.2111 72.4339 96.4632 72.3771 96.687 72.2635C96.9142 72.1499 97.0953 71.9936 97.2303 71.7947C97.3652 71.5923 97.4327 71.358 97.4327 71.0916V70.3139C97.3581 70.353 97.2676 70.3885 97.161 70.4205C97.0581 70.4524 96.9444 70.4826 96.8201 70.511C96.6958 70.5394 96.568 70.5643 96.4366 70.5856C96.3052 70.6069 96.1792 70.6264 96.0584 70.6442C95.8134 70.6832 95.6039 70.7436 95.4299 70.8253C95.2594 70.907 95.128 71.0135 95.0357 71.1449C94.9469 71.2727 94.9025 71.4254 94.9025 71.603C94.9025 71.8729 94.9984 72.0788 95.1902 72.2209C95.3855 72.3629 95.6323 72.4339 95.9306 72.4339ZM95.5843 64.7795L96.6603 62.3771H98.9668L97.3581 64.7795H95.5843ZM101.609 77.0682V65.8182H104.187V67.2191H104.267C104.373 66.9705 104.524 66.7308 104.72 66.5C104.919 66.2692 105.171 66.081 105.476 65.9354C105.785 65.7862 106.154 65.7116 106.584 65.7116C107.152 65.7116 107.683 65.8608 108.177 66.1591C108.674 66.4574 109.075 66.9173 109.381 67.5387C109.686 68.1602 109.839 68.9521 109.839 69.9144C109.839 70.8413 109.691 71.6172 109.396 72.2422C109.105 72.8672 108.711 73.3359 108.214 73.6484C107.72 73.9609 107.172 74.1172 106.568 74.1172C106.156 74.1172 105.799 74.0497 105.497 73.9148C105.195 73.7798 104.942 73.6023 104.736 73.3821C104.533 73.1619 104.377 72.9258 104.267 72.6737H104.214V77.0682H101.609ZM104.16 69.9091C104.16 70.3494 104.219 70.733 104.336 71.0597C104.457 71.3864 104.629 71.6403 104.853 71.8214C105.08 71.9989 105.352 72.0877 105.668 72.0877C105.987 72.0877 106.259 71.9989 106.483 71.8214C106.706 71.6403 106.875 71.3864 106.989 71.0597C107.106 70.733 107.165 70.3494 107.165 69.9091C107.165 69.4687 107.106 69.087 106.989 68.7638C106.875 68.4407 106.706 68.1903 106.483 68.0128C106.263 67.8352 105.991 67.7464 105.668 67.7464C105.348 67.7464 105.077 67.8335 104.853 68.0075C104.629 68.1815 104.457 68.43 104.336 68.7532C104.219 69.0763 104.16 69.4616 104.16 69.9091Z" fill="black"/>
</g>
<defs>
<clipPath id="clip0_5_42">
<rect width="117" height="83" fill="white"/>
</clipPath>
</defs>
</svg>
