<svg width="48" height="48" viewBox="0 0 48 48" fill="none" xmlns="http://www.w3.org/2000/svg">
<path d="M24 29V33M14 20.0576C14.9428 20 16.1052 20 17.6 20H30.4C31.8948 20 33.0572 20 34 20.0576M14 20.0576C12.8234 20.1294 11.9886 20.291 11.2761 20.654C10.1471 21.2292 9.2292 22.147 8.65396 23.276C8 24.5596 8 26.2396 8 29.6V32.4C8 35.7604 8 37.4404 8.65396 38.724C9.2292 39.853 10.1471 40.7708 11.2761 41.346C12.5595 42 14.2397 42 17.6 42H30.4C33.7604 42 35.4404 42 36.724 41.346C37.853 40.7708 38.7708 39.853 39.346 38.724C40 37.4404 40 35.7604 40 32.4V29.6C40 26.2396 40 24.5596 39.346 23.276C38.7708 22.147 37.853 21.2292 36.724 20.654C36.0114 20.291 35.1766 20.1294 34 20.0576M14 20.0576V16C14 10.4772 18.4772 6 24 6C29.5228 6 34 10.4772 34 16V20.0576" stroke="white" stroke-width="5" stroke-linecap="round" stroke-linejoin="round"/>
</svg>
