<svg width="179" height="87" viewBox="0 0 179 87" fill="none" xmlns="http://www.w3.org/2000/svg">
<path d="M45.4977 10.875V25.375M45.4977 25.375V61.625M45.4977 25.375L34.1228 14.5M45.4977 25.375L56.8727 14.5M45.4977 61.625V76.125M45.4977 61.625L34.1228 72.5M45.4977 61.625L56.8727 72.5M15.9487 27.1875L29.0834 34.4375M29.0834 34.4375L61.9202 52.5625M29.0834 34.4375L13.5449 38.4181M29.0834 34.4375L24.9199 19.5819M61.9202 52.5625L75.0549 59.8125M61.9202 52.5625L66.0838 67.4181M61.9202 52.5625L77.4588 48.5819M15.9504 59.8125L29.0851 52.5625M29.0851 52.5625L61.9221 34.4375M29.0851 52.5625L13.5466 48.5819M29.0851 52.5625L24.9216 67.4181M61.9221 34.4375L75.0568 27.1875M61.9221 34.4375L66.0853 19.582M61.9221 34.4375L77.4603 38.4181" stroke="#4A5699" stroke-width="5" stroke-linecap="round" stroke-linejoin="round"/>
<ellipse cx="46" cy="42.5" rx="13" ry="12.5" fill="#FAB1B1"/>
<path d="M38.68 33.02H53.3V34.26H38.68V33.02ZM39.84 38.08H44.18V39.16H39.84V38.08ZM39.42 40.4H44.2V41.48H39.42V40.4ZM47.66 40.4H52.62V41.48H47.66V40.4ZM47.66 38.08H52.12V39.16H47.66V38.08ZM39.72 45.72H51.72V46.92H39.72V45.72ZM38.92 48.6H51.82V49.86H38.92V48.6ZM45.2 33.48H46.66V42H45.2V33.48ZM39.28 42.88H52.54V50.64H51.04V44.1H39.28V42.88ZM37.52 35.6H54.5V39.96H53.08V36.82H38.88V39.96H37.52V35.6Z" fill="white"/>
<path d="M91.2576 32.8182H98.3272L103.863 43.7741H104.093L109.628 32.8182H116.698L107.123 50.2557V59H100.833V50.2557L91.2576 32.8182ZM130.578 50.5241V39.3636H136.817V59H130.86V55.3438H130.655C130.22 56.5455 129.479 57.5 128.431 58.2074C127.391 58.9062 126.134 59.2557 124.659 59.2557C123.321 59.2557 122.145 58.9489 121.131 58.3352C120.117 57.7216 119.328 56.8651 118.766 55.7656C118.203 54.6577 117.918 53.3622 117.909 51.8793V39.3636H124.161V50.652C124.169 51.7173 124.45 52.5568 125.004 53.1705C125.558 53.7841 126.313 54.0909 127.267 54.0909C127.889 54.0909 128.448 53.9545 128.942 53.6818C129.445 53.4006 129.841 52.9957 130.131 52.4673C130.429 51.9304 130.578 51.2827 130.578 50.5241ZM146.434 53.848L146.459 46.3949H147.329L152.851 39.3636H159.934L151.726 49.4375H150.077L146.434 53.848ZM140.796 59V32.8182H147.047V59H140.796ZM152.992 59L147.853 50.8438L151.969 46.4077L160.215 59H152.992ZM162.171 59V39.3636H168.422V59H162.171ZM165.303 37.0753C164.425 37.0753 163.671 36.7855 163.04 36.206C162.41 35.6179 162.094 34.9105 162.094 34.0838C162.094 33.2656 162.41 32.5668 163.04 31.9872C163.671 31.3991 164.425 31.1051 165.303 31.1051C166.189 31.1051 166.944 31.3991 167.566 31.9872C168.197 32.5668 168.512 33.2656 168.512 34.0838C168.512 34.9105 168.197 35.6179 167.566 36.206C166.944 36.7855 166.189 37.0753 165.303 37.0753Z" fill="#4A5699"/>
</svg>
