<svg width="85" height="75" viewBox="0 0 85 75" fill="none" xmlns="http://www.w3.org/2000/svg">
<path d="M84.417 52.6432C84.4123 49.7191 84.3957 43.7345 84.3957 41.6082C84.3957 41.6082 84.3957 41.5786 84.3973 41.5211C69.4507 33.9339 46.9446 22.4561 36.723 17.2358C28.0676 21.6535 10.648 30.5348 0.570312 35.643C0.570312 38.1235 0.590833 45.4727 0.589169 47.653C9.78173 52.3496 33.8535 64.6268 48.6525 72.1353C59.1581 66.8064 76.3353 58.0477 84.4184 53.9195V53.8072C84.4184 53.5226 84.4178 53.1243 84.417 52.6432Z" fill="white"/>
<path d="M36.524 17.3366C27.8345 21.7724 10.6964 30.5091 0.679688 35.5877C8.27 39.4668 35.716 53.4668 48.4386 59.905C57.7282 55.2072 78.0708 44.8382 84.396 41.6073C84.396 41.6073 84.396 41.5777 84.3977 41.5202C69.4511 33.9329 46.945 22.4551 36.7234 17.2349L36.524 17.3366Z" fill="#F3736F"/>
<path d="M84.97 52.6428C84.9668 50.6691 84.9626 48.6954 84.9572 46.7216C84.9533 44.9893 84.9073 43.2521 84.9503 41.52C84.9503 41.4346 84.925 41.3506 84.8768 41.2765C84.8287 41.2023 84.7593 41.1406 84.6757 41.0975C78.076 37.747 71.4794 34.3918 64.8861 31.0319C58.3462 27.7012 51.8078 24.3682 45.2708 21.0331C42.5139 19.6267 39.7573 18.2197 37.0011 16.8122C36.916 16.7689 36.8195 16.7461 36.7212 16.7461C36.6229 16.7461 36.5264 16.7689 36.4413 16.8122C32.0486 19.0546 27.6549 21.2956 23.26 23.5354C18.1127 26.1589 12.9641 28.7802 7.81428 31.3994C5.30673 32.6745 2.79835 33.9481 0.289135 35.2203C0.205788 35.2637 0.136659 35.3254 0.0885304 35.3995C0.0404017 35.4736 0.0149269 35.5575 0.0146055 35.6428C0.0146055 38.469 0.0194121 41.2952 0.0290253 44.1214C0.0305042 44.8189 0.0317058 45.5166 0.0326302 46.2144C-0.0089912 46.7151 -0.00537485 47.2178 0.043445 47.718C0.107224 48.0515 0.521236 48.1843 0.819891 48.3375L1.58025 48.7248L3.25294 49.579C6.05702 51.0112 8.8622 52.4428 11.6685 53.8738C15.1185 55.6335 18.5689 57.3927 22.0196 59.1513C25.6878 61.0205 29.3567 62.8888 33.0263 64.7564C36.5532 66.5518 40.0809 68.3461 43.6093 70.1393C45.176 70.9352 46.7206 71.8046 48.3275 72.5349C48.8015 72.7503 49.2465 72.3982 49.6525 72.1924L50.8172 71.602C51.6343 71.187 52.4514 70.772 53.2685 70.3568C56.9084 68.5075 60.5469 66.6561 64.184 64.8026C67.836 62.9431 71.4872 61.0822 75.1374 59.22C78.1261 57.6959 81.1145 56.1707 84.1026 54.6446C84.419 54.4831 84.897 54.3348 84.9622 53.9827C85.0057 53.5365 85.0086 53.088 84.9708 52.6414C84.9708 52.0116 83.8616 52.0106 83.8616 52.6414C83.8616 53.067 83.8616 53.4924 83.8616 53.9176L84.1361 53.4951C79.9117 55.6526 75.6861 57.8085 71.4593 59.9626C66.3384 62.5725 61.2167 65.1807 56.0942 67.7872C53.5203 69.0962 50.9456 70.4041 48.3703 71.7109H48.9301C42.193 68.2927 35.4598 64.8687 28.7306 61.4388C22.0822 58.0534 15.4354 54.6652 8.7901 51.2741C6.14853 49.9268 3.50769 48.5787 0.867587 47.2301L1.14212 47.6526C1.14433 44.395 1.13075 41.1373 1.12548 37.8799C1.12418 37.1342 1.12344 36.3884 1.12326 35.6426L0.848453 36.0652C5.58403 33.6649 10.3167 31.2598 15.0463 28.8498C20.1004 26.2763 25.1541 23.7009 30.2072 21.1236C32.4722 19.9684 34.7369 18.8129 37.0011 17.657H36.4413C41.9119 20.4511 47.384 23.2429 52.8576 26.0324C59.7112 29.5265 66.5664 33.0182 73.4231 36.5073C76.9864 38.3204 80.5508 40.132 84.1161 41.9423L83.8413 41.5198C83.7984 43.2518 83.8444 44.9891 83.8483 46.7214C83.8527 48.6951 83.857 50.6689 83.861 52.6426C83.8619 53.2726 84.9711 53.2736 84.97 52.6428Z" fill="#211715"/>
<path d="M47.9922 59.872C47.9922 63.2545 47.9988 66.6369 48.0122 70.0193C48.0134 70.7044 48.0144 71.3886 48.0149 72.0719C48.0149 72.7017 49.1241 72.7027 49.1241 72.0719C49.1241 68.7688 49.1103 65.4656 49.1042 62.1637C49.1027 61.3998 49.1018 60.6359 49.1014 59.872C49.1014 59.2425 47.9922 59.2413 47.9922 59.872Z" fill="#211715"/>
<path d="M0.952362 36.2908C3.19111 37.4354 5.43042 38.579 7.67028 39.7217C10.8201 41.3295 13.9705 42.9362 17.1216 44.5418C20.6984 46.3653 24.2756 48.1881 27.8532 50.0101C31.3729 51.8022 34.8932 53.5932 38.4142 55.3833C41.3922 56.8969 44.3714 58.4086 47.3516 59.9186L48.2684 60.3835C48.8885 60.6972 49.448 59.8518 48.828 59.5384C45.9474 58.0809 43.0684 56.621 40.1912 55.1587C36.7103 53.3901 33.2304 51.6203 29.7516 49.8491C26.1544 48.0176 22.5578 46.1854 18.9617 44.3524C15.7328 42.7051 12.5039 41.0576 9.27503 39.4099C6.89726 38.1967 4.51976 36.9826 2.14254 35.7677L1.51223 35.4457C0.893297 35.1293 0.334256 35.9747 0.952362 36.2908Z" fill="#211715"/>
<path d="M48.5524 63.5724C46.0676 62.3153 43.5843 61.0557 41.1027 59.7936C38.0751 58.2554 35.0483 56.7158 32.0224 55.1748C28.9013 53.5862 25.7808 51.9966 22.661 50.406C19.8443 48.9706 17.0281 47.5343 14.2121 46.0973C12.1479 45.0438 10.0838 43.9901 8.01971 42.936L7.46927 42.6546C6.85033 42.3383 6.29129 43.1839 6.90939 43.4997C8.85217 44.4927 10.7954 45.4849 12.7391 46.4765C15.4863 47.8783 18.2337 49.2796 20.9814 50.6803C24.0853 52.2626 27.1896 53.8442 30.2943 55.4251C33.3568 56.9847 36.4199 58.5431 39.4835 60.1004C42.0532 61.407 44.6249 62.712 47.1986 64.0153L47.9925 64.417C48.6128 64.731 49.1722 63.8856 48.5524 63.5719V63.5724Z" fill="#211715"/>
<path d="M45.5112 65.9898C43.1044 64.772 40.7011 63.5486 38.3013 62.3197C37.6824 62.0033 37.1233 62.8489 37.7414 63.1648C40.1423 64.3916 42.5456 65.615 44.9513 66.835C45.5716 67.1489 46.1309 66.3035 45.5112 65.9898Z" fill="#211715"/>
<path d="M69.1668 63.073C67.8863 63.7219 63.7334 65.8379 61.8444 66.7985C60.0217 65.8746 56.7889 64.2309 54.375 63.0018C56.6561 61.844 59.1651 60.569 61.703 59.2764C64.1804 60.5387 67.4334 62.1949 69.1668 63.073Z" fill="#F8B8B4"/>
<path d="M54.3753 63.4914H54.3781L54.0983 63.4246C56.4176 64.6078 58.7389 65.7884 61.0622 66.9663C61.2753 67.1071 61.5154 67.2131 61.771 67.2792C62.0483 67.3122 62.3056 67.1292 62.5352 67.0125L63.8468 66.3453C64.8407 65.8396 65.8345 65.3339 66.8284 64.8283C67.701 64.3843 68.5738 63.9404 69.447 63.4967C69.5293 63.4527 69.5974 63.3907 69.6447 63.3167C69.692 63.2427 69.7168 63.1591 69.7168 63.0742C69.7168 62.9892 69.692 62.9057 69.6447 62.8317C69.5974 62.7576 69.5293 62.6956 69.447 62.6516C66.9566 61.3901 64.4687 60.1245 61.9834 58.8549C61.3639 58.5396 60.8048 59.3849 61.4235 59.7001C63.9103 60.967 66.3982 62.2326 68.8871 63.4967V62.6516C66.444 63.8899 64.0038 65.1317 61.5663 66.3771H62.1259C60.9058 65.7584 59.6856 65.1385 58.4655 64.5175C57.7815 64.1699 57.0975 63.8221 56.4135 63.474L55.3952 62.9553C55.1104 62.8102 54.7122 62.5126 54.3756 62.5126C53.6618 62.5126 53.6607 63.4914 54.3756 63.4914H54.3753Z" fill="#211715"/>
<path d="M79.5346 49.6241C76.1223 51.3677 72.7087 53.1089 69.2936 54.8477C64.7013 57.1873 60.1073 59.5247 55.5117 61.8597C53.135 63.0668 50.7575 64.2726 48.3792 65.4773C47.7597 65.7902 48.3179 66.6363 48.9391 66.3224C53.3312 64.104 57.7177 61.8765 62.0987 59.64C66.4396 57.4317 70.7792 55.2214 75.1175 53.0092C76.7765 52.1628 78.4354 51.316 80.0942 50.469C80.7118 50.1536 80.1538 49.3075 79.5343 49.6238L79.5346 49.6241Z" fill="#211715"/>
<path d="M48.7791 60.2967C53.5984 57.8597 58.4129 55.4151 63.2226 52.963C68.4115 50.3229 73.5988 47.6803 78.7845 45.0354C80.7484 44.0338 82.7119 43.0319 84.6752 42.0295C85.2928 41.7141 84.7349 40.868 84.1154 41.1844C80.0181 43.277 75.9194 45.3673 71.8193 47.4552C66.4322 50.2 61.0433 52.9423 55.6525 55.6821C53.1753 56.9402 50.6974 58.1966 48.2189 59.4513C47.5997 59.7645 48.1576 60.6104 48.7788 60.2964L48.7791 60.2967Z" fill="#211715"/>
<path d="M72.7212 34.7055C72.7176 32.5225 72.7051 28.0547 72.7051 26.4665C72.7051 26.4665 72.7051 26.4445 72.7065 26.4017C61.5484 20.7371 44.7459 12.1685 37.1151 8.271C30.6534 11.571 17.6485 18.2018 10.125 22.0138C10.125 23.8658 10.1405 29.3522 10.1391 30.9801C17.0021 34.4863 34.9729 43.652 46.022 49.2575C53.8652 45.2793 66.6888 38.7405 72.7232 35.6586V35.5739C72.722 35.362 72.7218 35.0647 72.7212 34.7055Z" fill="white"/>
<path d="M36.6306 8.51837C30.0225 11.8917 17.4652 18.2935 10.125 22.0138C10.125 23.8658 10.1405 29.3522 10.1391 30.9801C13.1237 32.5049 18.2086 35.1002 23.9127 38.0075C23.9086 35.7731 23.8978 30.8367 23.8967 28.9585C35.497 23.0459 45.2703 18.0596 50.7825 15.2438C45.3216 12.4601 40.3792 9.93823 37.1151 8.27051L36.6306 8.51837Z" fill="#F8B8B4"/>
<path d="M73.275 34.7056C73.2703 31.9408 73.1918 29.1666 73.2603 26.4018C73.2603 26.3163 73.235 26.2323 73.1868 26.1582C73.1386 26.084 73.0692 26.0223 72.9855 25.9792C68.0599 23.4784 63.1364 20.9745 58.215 18.4676C53.3334 15.9812 48.4529 13.4936 43.5735 11.0049C41.5141 9.95261 39.4543 8.90058 37.3941 7.84879C37.309 7.8055 37.2124 7.78271 37.1142 7.78271C37.0159 7.78271 36.9194 7.8055 36.8342 7.84879C33.5502 9.52532 30.2654 11.2008 26.9797 12.8752C23.1467 14.8287 19.3127 16.7807 15.4778 18.7311C13.6005 19.6853 11.7227 20.6388 9.84442 21.5914C9.76104 21.6348 9.69187 21.6965 9.64369 21.7706C9.59552 21.8447 9.56999 21.9285 9.56961 22.0139C9.56961 24.1487 9.57331 26.2834 9.5807 28.4181C9.58181 28.9351 9.58264 29.4519 9.5832 29.9687C9.5832 30.3166 9.49807 30.7717 9.60372 31.1101C9.71658 31.4717 10.4883 31.7245 10.8377 31.9029L12.1133 32.5547C16.7881 34.9413 21.4636 37.3261 26.1401 39.7091C31.5038 42.4423 36.8692 45.1731 42.2361 47.9014L44.0724 48.8341L44.9179 49.2633C45.2013 49.4299 45.4983 49.5777 45.8066 49.7054C46.1726 49.8302 46.5148 49.5718 46.8201 49.4169L47.7427 48.9486C48.3646 48.633 48.9864 48.3172 49.6081 48.0012C52.3163 46.625 55.0237 45.2475 57.7303 43.8689C62.6874 41.3443 67.6429 38.8174 72.597 36.2882C72.8998 36.1333 73.2476 36.013 73.2759 35.6592C73.3011 35.345 73.2759 35.021 73.2759 34.7064C73.2759 34.0766 72.1667 34.0754 72.1667 34.7064C72.1667 35.024 72.1667 35.3416 72.1667 35.6592L72.4415 35.2366C69.2946 36.8436 66.1469 38.4496 62.9982 40.0543C59.1679 42.0068 55.3366 43.958 51.5041 45.9078C49.5831 46.8845 47.6618 47.8605 45.7403 48.8356H46.3002C41.2768 46.287 36.2563 43.7342 31.2388 41.1771C26.2808 38.6521 21.3242 36.1253 16.3688 33.5968C14.3842 32.5836 12.4008 31.5707 10.4184 30.5581L10.693 30.9807C10.6946 28.5554 10.6846 26.1304 10.6805 23.7054C10.6805 23.1417 10.6799 22.578 10.6788 22.0144L10.4043 22.437C13.9443 20.6427 17.4821 18.8446 21.0175 17.0428C24.7818 15.1268 28.545 13.2092 32.3073 11.2899C34.0032 10.4254 35.6989 9.56023 37.3941 8.69439H36.8342C40.9172 10.7795 45.0013 12.8632 49.0865 14.9454C54.202 17.5535 59.3187 20.1597 64.4366 22.7639C67.0987 24.1178 69.7617 25.4717 72.4257 26.8255L72.1511 26.403C72.0824 29.1678 72.1611 31.941 72.1658 34.7069C72.1669 35.3352 73.2761 35.3364 73.275 34.7056Z" fill="#211715"/>
<path d="M45.3906 40.1021C45.3906 42.1728 45.4073 44.2438 45.4075 46.3145C45.4075 46.9443 46.5167 46.9453 46.5167 46.3145C46.5167 44.2438 46.5001 42.1728 46.4998 40.1021C46.4998 39.4723 45.3906 39.4713 45.3906 40.1021Z" fill="#211715"/>
<path d="M46.3298 39.7998C42.1209 37.6703 37.9164 35.5343 33.7164 33.3919C29.1851 31.0849 24.655 28.776 20.1261 26.4651C18.41 25.59 16.6949 24.7143 14.9808 23.8382C14.3629 23.5219 13.8028 24.3675 14.4209 24.6833C17.999 26.5119 21.5783 28.3383 25.1589 30.1624C29.8636 32.5603 34.5697 34.9563 39.2771 37.3506C41.4401 38.4502 43.6043 39.5483 45.7699 40.6449C46.3902 40.9586 46.9495 40.1132 46.3298 39.7998Z" fill="#211715"/>
<path d="M46.1889 40.5263C49.2305 38.9881 52.2693 37.4451 55.3052 35.8974C58.5685 34.2371 61.8309 32.5751 65.0926 30.9116C66.3415 30.2755 67.5902 29.6383 68.8386 29.0002C69.4565 28.6848 68.8985 27.8387 68.279 28.1551C65.6929 29.4764 63.1059 30.7957 60.5179 32.113C57.1309 33.8386 53.7428 35.5628 50.3534 37.2855C48.7791 38.0848 47.2043 38.8833 45.629 39.6811C45.0098 39.9941 45.568 40.8402 46.1889 40.5263Z" fill="#211715"/>
<path d="M24.2067 29.3646C28.2656 27.296 32.3241 25.2267 36.3822 23.1569C39.6778 21.4768 42.9733 19.7954 46.2685 18.1126C47.678 17.3933 49.0873 16.6737 50.4966 15.9538C51.1141 15.6384 50.5565 14.7923 49.9367 15.1087C47.2119 16.5017 44.4863 17.8932 41.7599 19.2832C38.0928 21.1543 34.4255 23.0249 30.7579 24.8949L23.6479 28.5195C23.0298 28.8344 23.5877 29.6805 24.2075 29.3646H24.2067Z" fill="#211715"/>
<path d="M23.3398 28.9542C23.3434 31.7295 23.3568 34.5049 23.357 37.2803C23.357 37.9099 24.4662 37.9111 24.4662 37.2803C24.4662 34.5049 24.4527 31.7295 24.4491 28.9542C24.4491 28.3244 23.3398 28.3234 23.3398 28.9542Z" fill="#211715"/>
<path d="M40.8465 29.1196C40.8163 29.6438 40.6653 30.157 40.4028 30.628C39.8521 31.5823 38.7895 32.2356 37.6706 32.6513C36.5516 33.067 36.3914 32.9593 35.2336 33.2816C34.331 33.5329 33.386 33.8947 32.9991 34.7007C32.837 35.1137 32.7408 35.5445 32.7132 35.9809C32.63 37.6317 32.645 39.3491 32.6217 41.0482C32.6232 41.1667 32.5818 41.2826 32.5035 41.379C32.4252 41.4753 32.3141 41.5472 32.1864 41.584C30.8666 41.9234 29.4757 41.9888 28.1225 41.7751C27.9825 41.7342 27.8579 41.6603 27.762 41.5615C27.6157 41.4396 27.5102 41.2847 27.457 41.1135C27.3527 40.3423 27.3025 39.5994 27.2728 38.8558C26.3042 39.0455 25.1972 39.3733 24.1671 39.1517C23.4508 38.9973 22.7806 38.5155 22.6696 37.8722L22.5787 37.3408C22.4187 34.7425 22.2589 35.0697 22.0989 32.4717C22.0451 31.5972 22.0019 30.6755 22.4544 29.8962C22.8437 29.3133 23.3815 28.8183 24.0251 28.4504C25.2668 27.6493 26.6135 26.9833 28.036 26.4668C28.036 26.4668 38.9938 28.7861 40.8465 29.1196Z" fill="#F3736F"/>
<path d="M38.6051 29.9904C39.2429 29.6753 40.0645 29.3205 40.8576 28.9011C42.1737 28.2065 43.4249 27.3281 43.6836 26.1495C43.7722 25.6395 43.7694 25.1204 43.6753 24.6112C43.4221 22.8074 42.9385 20.5047 41.6646 19.021C40.8881 18.1127 39.6624 16.9412 38.4673 16.4007C38.4673 16.4007 36.3939 15.515 34.3796 15.3993C31.1457 15.2131 29.4907 16.4296 29.4907 16.4296C27.6167 17.6825 26.3172 19.4893 25.8303 21.5189L25.2663 24.3846L25.0625 25.4198L38.6051 29.9904Z" fill="white"/>
<path d="M25.6426 44.1107C25.5835 43.8545 25.5883 43.5901 25.6567 43.3358C25.7252 43.0815 25.8556 42.8433 26.0388 42.638C26.4581 42.1984 26.9701 41.8348 27.5462 41.5673C28.1286 41.9697 30.4945 42.0473 32.1877 41.5844C32.2453 41.5689 32.2998 41.5457 32.3494 41.5156C32.3702 41.6901 32.3835 41.7977 32.3835 41.7977C32.5596 43.2169 31.5854 43.7875 30.967 44.1122C30.2307 44.4982 29.4375 44.7929 28.61 44.9879C28.1126 45.1232 27.5894 45.1684 27.0718 45.1207C26.8134 45.0939 26.5647 45.0176 26.3431 44.8972C26.1215 44.7768 25.9324 44.6152 25.789 44.4236C25.7239 44.3258 25.6746 44.2205 25.6426 44.1107Z" fill="white"/>
<path d="M20.6902 41.0363C20.7652 40.8491 20.8721 40.673 21.0071 40.5141C21.463 40.0474 22.0181 39.6639 22.641 39.3854C22.9583 39.1925 23.3181 39.0607 23.697 38.9986C23.8479 39.0652 24.0067 39.1168 24.1706 39.1523C25.2008 39.3739 26.3075 39.0463 27.2764 38.8564C27.2972 39.3925 27.3294 39.9279 27.3845 40.474L26.9494 40.5374C26.9819 41.1491 26.3671 41.6262 25.7706 41.9391C25.0586 42.3124 24.2917 42.5972 23.4915 42.7855C23.0107 42.9167 22.5047 42.9599 22.0043 42.9127C21.7545 42.8874 21.514 42.814 21.2998 42.6976C21.0857 42.5813 20.9031 42.4248 20.7651 42.2394C20.6539 42.0558 20.5896 41.853 20.5767 41.6451C20.5637 41.4373 20.6025 41.2295 20.6902 41.0363Z" fill="white"/>
<path d="M31.828 41.7981C31.8841 42.1049 31.847 42.4193 31.7203 42.7093C31.5936 42.9992 31.382 43.2543 31.107 43.4485C30.3096 43.9496 29.4112 44.312 28.4599 44.5163C27.6907 44.6961 26.1619 44.814 26.1469 43.7734C26.1336 42.8436 27.2212 42.3053 28.0065 41.8953C28.6208 41.575 28.062 40.7286 27.4467 41.0502C26.5185 41.5341 25.5865 42.0766 25.1936 43.0076C24.9956 43.4338 24.9827 43.9094 25.1575 44.3435C25.3322 44.7775 25.6822 45.1394 26.1406 45.3599C27.2062 45.8525 28.4627 45.5884 29.5334 45.2454C30.4085 44.9903 31.2265 44.6024 31.9506 44.0993C32.3159 43.8165 32.5969 43.4589 32.7689 43.0579C32.9409 42.6569 32.9986 42.2247 32.937 41.7994C32.9332 41.6706 32.8735 41.5481 32.7703 41.457C32.6671 41.366 32.5282 41.3133 32.3824 41.31C32.2356 41.311 32.0952 41.3628 31.9914 41.4544C31.8876 41.546 31.8288 41.6699 31.8277 41.7994L31.828 41.7981Z" fill="#211715"/>
<path d="M23.4758 38.5359C22.9855 38.6529 22.5215 38.8433 22.104 39.0986C21.6882 39.3095 21.2996 39.5594 20.9449 39.8442C20.2622 40.4184 19.8132 41.3147 20.1155 42.1442C20.4349 43.0216 21.4781 43.4476 22.4653 43.4246C23.5299 43.4001 24.6211 43.0252 25.5581 42.6022C26.4801 42.1862 27.5128 41.5545 27.505 40.5374C27.5003 39.9078 26.3911 39.9063 26.3958 40.5374C26.4013 41.2562 25.199 41.6895 24.5933 41.9296C24.1549 42.1011 23.7002 42.2383 23.2346 42.3394C22.7656 42.4748 22.2613 42.4826 21.7873 42.3617C20.9859 42.0964 21.0059 41.3272 21.4623 40.7911C21.7513 40.4857 22.1012 40.2296 22.4947 40.0353C22.88 39.7849 23.3126 39.5968 23.7722 39.4796C24.4713 39.3538 24.1754 38.4104 23.4775 38.5359H23.4758Z" fill="#211715"/>
<path d="M27.8899 25.9952C26.3138 26.5608 24.8282 27.3057 23.4708 28.211C22.7911 28.6249 22.2427 29.1854 21.8777 29.8391C21.5783 30.5257 21.4563 31.2626 21.5206 31.9961C21.5608 33.0519 21.6759 34.1004 21.8195 35.1483C21.9493 36.0952 21.9429 37.0603 22.1356 37.9986C22.221 38.3332 22.3981 38.6442 22.6513 38.9044C22.9045 39.1646 23.2262 39.3661 23.5881 39.4911C24.5199 39.8442 25.5462 39.7128 26.5042 39.5217C27.2003 39.383 26.9058 38.4393 26.2095 38.578C25.1743 38.7845 23.4273 38.945 23.1971 37.6935C23.0455 36.8677 23.0466 36.016 22.9323 35.1765C22.8125 34.2956 22.7144 33.4185 22.6586 32.5327C22.5802 31.9091 22.6043 31.2787 22.7302 30.6612C22.915 30.0672 23.3169 29.5438 23.8735 29.1721C25.1747 28.2403 26.6282 27.4877 28.1847 26.9399C28.3241 26.902 28.4418 26.8186 28.514 26.7068C28.5861 26.595 28.6072 26.463 28.5729 26.338C28.5333 26.2131 28.4394 26.1071 28.3116 26.043C28.1839 25.9788 28.0327 25.9617 27.8908 25.9954L27.8899 25.9952Z" fill="#211715"/>
<path d="M27.7756 30.7138C26.8253 31.2966 26.5868 32.2105 26.5696 33.1711C26.5521 34.1456 26.6109 35.1194 26.6453 36.093C26.6905 37.3702 26.6841 38.6492 26.7812 39.9247C26.8261 40.5153 26.777 41.2374 27.2021 41.727C27.61 42.1968 28.11 42.2954 28.7425 42.3541C29.3497 42.4064 29.9613 42.4045 30.568 42.3485C31.1992 42.3152 31.8224 42.2071 32.4209 42.0272C33.1447 41.7784 33.1763 41.1662 33.183 40.5741C33.1902 39.9014 33.1929 39.2283 33.2004 38.5559C33.2076 37.8907 33.219 37.2254 33.244 36.5603C33.2276 36.0157 33.309 35.4721 33.4849 34.9499C33.8551 34.0654 35.1693 33.774 36.0943 33.577C37.294 33.3215 38.4486 32.9898 39.4475 32.3225C40.0516 31.9242 40.5433 31.4081 40.8842 30.8146C41.2252 30.2211 41.4063 29.5661 41.4133 28.9007C41.441 28.2709 40.3318 28.2719 40.3041 28.9007C40.3016 29.4015 40.1703 29.8952 39.9201 30.3447C39.6699 30.7942 39.3073 31.1877 38.8596 31.4955C38.066 32.019 37.1512 32.3814 36.1806 32.5569C35.192 32.7507 34.1421 32.9973 33.3327 33.5601C32.434 34.184 32.2121 35.1375 32.1547 36.0984C32.0818 37.3113 32.0904 38.5293 32.081 39.7441C32.0787 40.0411 32.0761 40.3382 32.0729 40.6352C32.0919 40.7735 32.0901 40.9133 32.0676 41.0512C32.0363 41.1297 32.0493 41.1001 31.9908 41.1287C31.7365 41.2174 31.469 41.2733 31.1966 41.2946C30.9152 41.3394 30.6312 41.371 30.3459 41.3891C29.8121 41.4281 29.2755 41.4244 28.7425 41.3778C28.5678 41.3765 28.3951 41.3449 28.2342 41.2848C27.9761 41.1493 27.983 40.8867 27.9569 40.659C27.8299 39.5068 27.8097 38.3489 27.7836 37.1926C27.7587 36.0937 27.6951 34.9959 27.6785 33.897C27.6724 33.4833 27.6646 33.0663 27.7007 32.6533C27.7037 32.6191 27.7068 32.5848 27.7107 32.5508C27.722 32.4529 27.7035 32.5807 27.7137 32.5347C27.7409 32.4042 27.7811 32.2762 27.8338 32.152C27.931 31.9159 28.1052 31.7104 28.3343 31.5613C28.9167 31.2043 28.3621 30.3556 27.7745 30.7162L27.7756 30.7138Z" fill="#211715"/>
<path d="M29.2139 16.0067C27.2215 17.3291 25.8325 19.2381 25.2992 21.3871C25.1509 22.0015 26.2199 22.2641 26.3688 21.6475C26.8211 19.7424 28.0283 18.042 29.7738 16.8518C29.8972 16.7834 29.9865 16.6761 30.0234 16.5517C30.0603 16.4273 30.0422 16.2951 29.9726 16.1821C29.8977 16.0707 29.7761 15.9898 29.6341 15.957C29.4921 15.9242 29.3411 15.942 29.2139 16.0067Z" fill="#211715"/>
<path d="M25.8074 26.4659C25.1907 26.1265 24.9342 25.5532 24.8335 24.9447C24.7207 24.2623 24.853 23.3939 25.978 23.1458C26.3821 23.0749 26.8017 23.144 27.1496 23.3389C27.5158 23.5269 27.8125 23.8045 28.004 24.1381C28.1954 24.4716 28.2734 24.8469 28.2285 25.2187C28.1526 26.0274 27.2882 26.7688 26.3781 26.6516C26.1753 26.6254 25.9809 26.5621 25.8074 26.4659Z" fill="white"/>
<path d="M26.0883 26.0432C25.9611 25.9714 25.8486 25.8812 25.7555 25.7763C25.8052 25.8308 25.7334 25.7467 25.7228 25.733C25.6966 25.6979 25.6716 25.6621 25.6479 25.6255C25.6291 25.5964 25.6111 25.5666 25.5939 25.5365C25.5939 25.5365 25.5254 25.3987 25.5564 25.4677C25.4931 25.323 25.4442 25.1737 25.4103 25.0214C25.4003 24.9785 25.3911 24.9355 25.3826 24.8925C25.3762 24.8592 25.3615 24.7408 25.3776 24.8722C25.3701 24.8103 25.3629 24.7484 25.3593 24.6862C25.3539 24.572 25.3568 24.4576 25.3679 24.3437C25.3756 24.2519 25.3679 24.3437 25.3651 24.3601C25.3723 24.3287 25.3779 24.2974 25.3859 24.2661C25.4031 24.1974 25.428 24.1323 25.4527 24.0652C25.4125 24.1753 25.4766 24.0246 25.4974 23.9918C25.5182 23.959 25.6308 23.8357 25.5487 23.9162C25.594 23.8712 25.642 23.8284 25.6923 23.7878C25.7567 23.7364 25.5842 23.8426 25.7123 23.7748C25.7553 23.752 25.7955 23.7276 25.841 23.7065C25.8717 23.6921 25.9031 23.6779 25.935 23.6657C25.8554 23.6963 25.9427 23.6657 25.956 23.6613C26.0385 23.6374 26.1225 23.6177 26.2075 23.6023C26.0836 23.6209 26.2588 23.6055 26.3046 23.6062C26.3504 23.6069 26.3961 23.6091 26.4416 23.6136C26.4807 23.6167 26.479 23.6167 26.4369 23.6136C26.4663 23.6182 26.4954 23.6236 26.5239 23.6299C26.6858 23.6638 26.8372 23.7286 26.9676 23.8196C26.974 23.8235 27.0508 23.8746 26.9954 23.8352C27.0253 23.8558 27.0541 23.8776 27.0827 23.8993C27.1591 23.9578 27.2313 24.0203 27.299 24.0865C27.4769 24.2614 27.5982 24.4753 27.6501 24.7058C27.6481 24.6977 27.6811 24.8497 27.6689 24.7814C27.6567 24.7131 27.6784 24.8702 27.6775 24.8612C27.6837 24.9366 27.6855 25.0122 27.6828 25.0877C27.6828 25.131 27.6789 25.1746 27.6747 25.2179C27.6767 25.1964 27.695 25.1347 27.672 25.2353C27.6529 25.3165 27.6281 25.3966 27.5977 25.4751C27.5422 25.6219 27.6215 25.4381 27.576 25.5189C27.5511 25.5636 27.5242 25.6077 27.4951 25.6505C27.4614 25.7103 27.4171 25.765 27.3636 25.8122C27.3011 25.8737 27.2336 25.9309 27.1615 25.9835C27.2214 25.94 27.1501 25.9901 27.1401 25.9957C27.0935 26.0222 27.0475 26.0488 26.9987 26.0726C26.8759 26.1314 26.7399 26.1655 26.6005 26.1726C26.4183 26.1778 26.2389 26.1319 26.088 26.0417C25.961 25.9762 25.8097 25.9579 25.6674 25.9908C25.5251 26.0238 25.4034 26.1052 25.3292 26.2173C25.2549 26.3294 25.2342 26.4629 25.2715 26.5884C25.3088 26.714 25.4011 26.8213 25.5282 26.8869C26.5542 27.4252 27.7466 27.0596 28.3916 26.2279C28.6581 25.8541 28.7986 25.4212 28.7967 24.9796C28.7948 24.5379 28.6505 24.1059 28.3808 23.7339C27.8314 22.9886 26.8001 22.4344 25.7741 22.686C25.3427 22.7913 24.9615 23.017 24.6873 23.3293C24.4132 23.6415 24.2609 24.0236 24.2531 24.4185C24.1846 25.3569 24.6175 26.3664 25.5287 26.8869C25.6557 26.9524 25.807 26.9707 25.9493 26.9378C26.0198 26.9214 26.0859 26.8931 26.144 26.8542C26.202 26.8154 26.2508 26.7668 26.2875 26.7113C26.3243 26.6558 26.3483 26.5945 26.3582 26.5308C26.3681 26.4671 26.3637 26.4023 26.3452 26.3402C26.3267 26.278 26.2946 26.2196 26.2505 26.1684C26.2065 26.1172 26.1515 26.0742 26.0886 26.0417L26.0883 26.0432Z" fill="#211715"/>
<path d="M29.375 20.0089V25.4635C29.375 26.0933 30.4842 26.0942 30.4842 25.4635V20.0089C30.4842 19.379 29.375 19.3781 29.375 20.0089Z" fill="#211715"/>
<path d="M29.7393 26.3911C28.0337 26.6463 26.2928 27.2335 23.7773 27.6018C25.3277 28.2612 28.2436 29.5276 31.0318 30.7581C33.4546 29.8876 34.1443 29.7359 35.6606 29.223C33.1238 28.0681 29.7443 26.3904 29.7393 26.3911Z" fill="white"/>
<path d="M29.592 25.9193C27.581 26.2266 25.646 26.83 23.63 27.1297C23.1686 27.1984 23.0835 27.8478 23.4978 28.0242C25.1369 28.7218 26.7699 29.4331 28.3988 30.1468C28.8881 30.361 29.3772 30.5756 29.866 30.7906C30.1222 30.9034 30.3771 31.0188 30.6344 31.1292C30.7658 31.1921 30.9132 31.2242 31.0626 31.2226C31.2121 31.2211 31.3586 31.1858 31.4882 31.1201C32.2532 30.8481 33.0234 30.588 33.7987 30.3401C34.4692 30.127 35.1422 29.92 35.808 29.6954C36.2182 29.5571 36.4009 29.0103 35.9406 28.8011C34.6267 28.2019 33.3264 27.5796 32.0306 26.9511C31.3629 26.6274 30.7062 26.2606 30.0196 25.9684C29.3793 25.6964 28.8161 26.54 29.4598 26.8136C30.1464 27.1057 30.803 27.4725 31.471 27.7962C32.7669 28.4248 34.0671 29.0467 35.381 29.6462L35.5135 28.7517C33.9731 29.2714 32.4138 29.7387 30.8851 30.2868L31.3124 30.3357C28.8999 29.2714 26.4873 28.2121 24.0579 27.1794L23.9254 28.0737C25.9413 27.7739 27.8761 27.1705 29.8874 26.8632C30.0287 26.828 30.1486 26.7451 30.2212 26.6324C30.2938 26.5198 30.3134 26.3865 30.2756 26.2613C30.2337 26.1375 30.1392 26.0327 30.0118 25.969C29.8844 25.9052 29.734 25.8874 29.592 25.9193Z" fill="#211715"/>
<path d="M34.2037 28.6579C34.3673 27.4883 35.7544 26.5131 37.5355 27.1898C37.8045 27.9195 38.2717 29.0225 38.559 29.9444C38.1675 30.2241 37.8289 30.4668 37.8289 30.4668C37.256 31.077 35.9904 30.9672 35.3021 30.5977C34.9288 30.4001 34.6271 30.1127 34.4326 29.769C34.238 29.4254 34.1586 29.04 34.2037 28.6579Z" fill="white"/>
<path d="M37.3455 26.6062C36.6024 26.3971 35.7964 26.4503 35.0968 26.7547C34.4972 27.0358 34.0365 27.5025 33.8032 28.0652C33.2541 29.3375 34.1227 30.7703 35.5352 31.2267C36.3996 31.5061 37.5817 31.4652 38.2228 30.8107C38.3236 30.7174 38.3799 30.5935 38.3799 30.4646C38.3799 30.3357 38.3236 30.2118 38.2228 30.1185C38.1182 30.0278 37.9774 29.977 37.8307 29.977C37.6841 29.977 37.5433 30.0278 37.4386 30.1185C37.4109 30.1457 37.3832 30.1706 37.3554 30.1973C37.3371 30.2154 37.2531 30.2744 37.3394 30.2166C37.2808 30.2537 37.2191 30.2869 37.155 30.316C37.1272 30.3287 37.0304 30.3563 37.1314 30.3265C37.1001 30.3358 37.0695 30.3456 37.0379 30.3539C36.9579 30.3751 36.8764 30.3914 36.7939 30.4028C36.9048 30.3874 36.7939 30.4028 36.7642 30.4028C36.7213 30.4043 36.6786 30.4075 36.6356 30.4082C36.5576 30.4082 36.4803 30.4045 36.4026 30.4018C36.3749 30.4018 36.2612 30.3894 36.3694 30.4018C36.3353 30.3979 36.3011 30.3925 36.2673 30.3872C36.1753 30.3722 36.0843 30.3532 35.9944 30.3302C35.9232 30.3118 35.8533 30.29 35.7837 30.2673C35.8907 30.302 35.7105 30.236 35.6805 30.222C35.617 30.1913 35.5556 30.1573 35.4967 30.12C35.3616 30.0373 35.5413 30.1542 35.4673 30.1002C35.429 30.072 35.3913 30.0439 35.3547 30.0143C35.3015 29.9715 35.2502 29.9272 35.2008 29.8807C35.1797 29.8609 35.1589 29.8403 35.1384 29.8198C35.1384 29.8198 35.0433 29.717 35.0952 29.7757C35.147 29.8344 35.0594 29.7309 35.0588 29.73C35.0422 29.7087 35.0258 29.6871 35.0103 29.6654C34.9679 29.6069 34.9291 29.5465 34.8941 29.4843C34.8786 29.4567 34.8639 29.4285 34.8495 29.4006C34.857 29.4153 34.8894 29.4985 34.8583 29.416C34.8373 29.3588 34.814 29.303 34.7962 29.2448C34.7824 29.1993 34.7713 29.1533 34.7605 29.107C34.7585 29.0982 34.7397 28.9847 34.7519 29.0684C34.7638 29.1493 34.7491 29.0285 34.748 29.0126C34.7427 28.9041 34.7452 28.7954 34.7555 28.6871C34.7483 28.797 34.7524 28.7038 34.7646 28.6492C34.7792 28.5832 34.7977 28.5178 34.8201 28.4535C34.8353 28.4104 34.8545 28.3686 34.8705 28.3258C34.9094 28.2218 34.8251 28.3913 34.8672 28.3338C34.8839 28.3108 34.8949 28.2822 34.9091 28.258C34.9353 28.2126 34.9636 28.1685 34.9939 28.1256C35.0136 28.0972 35.1462 27.9384 35.0494 28.0441C35.1214 27.9642 35.2001 27.8891 35.2848 27.8195C35.3059 27.8024 35.439 27.706 35.3775 27.7476C35.3051 27.7965 35.4093 27.7287 35.416 27.7248C35.449 27.7057 35.4814 27.6864 35.5153 27.6683C35.5707 27.638 35.6301 27.6101 35.6894 27.5844C35.6964 27.5814 35.817 27.5354 35.7332 27.5655C35.6542 27.5944 35.7837 27.5504 35.7998 27.5455C35.8715 27.5237 35.9444 27.5053 36.0183 27.4902C36.0671 27.4804 36.2598 27.4586 36.1223 27.4696C36.2864 27.4581 36.4513 27.4567 36.6156 27.4655C36.6395 27.4655 36.7243 27.4767 36.6092 27.4625C36.6575 27.4687 36.7055 27.476 36.7531 27.4843C36.8527 27.5019 36.9506 27.5247 37.0479 27.5504C37.1897 27.5849 37.3413 27.5682 37.4692 27.5041C37.5972 27.44 37.691 27.3337 37.7301 27.2086C37.7692 27.0834 37.7503 26.9497 37.6777 26.8368C37.605 26.7239 37.4845 26.6411 37.3427 26.6066L37.3455 26.6062Z" fill="#211715"/>
<path d="M39.0417 23.1741C39.0206 23.0434 39.0333 23.1173 39.0417 23.1934C39.0478 23.2575 39.0535 23.3216 39.0589 23.3857C39.0736 23.5687 39.0846 23.7527 39.0944 23.9358C39.1152 24.3375 39.1304 24.7405 39.1196 25.1425C39.1176 25.2213 39.1149 25.3001 39.1088 25.3784C39.1054 25.4241 39.1021 25.5986 39.1027 25.4674C39.1027 25.5971 39.0525 25.4674 39.1232 25.4572C39.0453 25.4696 38.8961 25.6103 38.8148 25.6683C38.2572 26.0654 37.7153 26.4794 37.1566 26.8753C37.0859 26.9357 37.0352 27.0119 37.0101 27.0959C36.9849 27.1798 36.9863 27.2682 37.014 27.3515C37.3604 28.2785 37.7522 29.1927 38.0445 30.1349C38.068 30.2067 38.1097 30.2728 38.1663 30.3283C38.2229 30.3838 38.293 30.4273 38.3714 30.4556C38.4497 30.4838 38.5343 30.4961 38.6188 30.4914C38.7033 30.4867 38.7855 30.4652 38.8592 30.4285C41.1589 29.2935 44.3725 28.1369 44.3043 25.383C44.2445 24.1718 44.0289 22.9706 43.6615 21.8024C43.3733 20.6887 42.8379 19.6364 42.0864 18.7062C41.1769 17.6541 40.0924 16.6042 38.7494 15.9791C38.1183 15.6854 37.557 16.5298 38.1895 16.8242C39.261 17.3228 40.1351 18.1261 40.8965 18.9446C41.6089 19.7265 42.135 20.6273 42.4433 21.593C42.7717 22.5998 43.0017 23.6295 43.1308 24.671C43.2101 25.2538 43.2727 25.8817 43.0137 26.4383C42.7884 26.8698 42.4575 27.2518 42.0448 27.557C40.9548 28.4288 39.5705 28.9561 38.2993 29.5834L39.114 29.877C38.8218 28.9348 38.4299 28.0207 38.0836 27.0936L37.9408 27.5697C38.5384 27.1462 39.116 26.7013 39.7155 26.28C40.1315 25.9886 40.2049 25.704 40.2252 25.2551C40.2668 24.474 40.2291 23.6913 40.1126 22.9162C40.0729 22.7913 39.9791 22.6853 39.8513 22.6212C39.7236 22.557 39.5724 22.5399 39.4304 22.5736C39.2905 22.6108 39.1722 22.694 39.0999 22.8061C39.0276 22.9181 39.007 23.0504 39.0422 23.1755L39.0417 23.1741Z" fill="#211715"/>
<path d="M29.6986 11.6503C29.6217 13.0817 30.1656 14.4852 31.2196 15.5755C32.1753 16.5425 33.5254 17.137 34.9757 17.2297C36.426 17.3224 37.859 16.9056 38.9627 16.0702C39.7251 16.1055 40.4764 15.8978 41.0799 15.4852C41.35 15.2993 41.5621 15.0558 41.6962 14.7777C41.8303 14.4996 41.8821 14.1959 41.8466 13.8953C41.8035 13.6865 41.703 13.4904 41.5538 13.324C41.4046 13.1576 41.2114 13.0261 40.9911 12.941C41.4074 11.986 41.4546 10.9363 41.1252 9.95523C40.7958 8.97412 40.1084 8.11646 39.1698 7.51552C36.7018 5.96867 33.215 6.18154 31.1877 8.21677C30.2592 9.17649 29.7334 10.3889 29.6986 11.6503Z" fill="white"/>
<path d="M30.4983 9.0751C30.1379 9.64475 29.8938 10.2659 29.7773 10.9102C31.2434 11.0248 32.7205 10.8678 34.1138 10.4492C34.1529 10.4375 34.1942 10.4331 34.2353 10.4362C34.2764 10.4393 34.3163 10.4499 34.3526 10.4673C34.5275 10.5542 34.3162 10.8911 34.2175 11.0452C34.8387 11.1996 36.3597 10.9474 37.0318 10.6215C37.4056 11.423 37.7869 11.8407 38.5196 12.1434L40.4862 12.8346C40.66 12.843 40.8305 12.88 40.9889 12.9435C41.4046 11.9881 41.4512 10.9385 41.1216 9.95736C40.7919 8.97626 40.1045 8.1186 39.166 7.51748C36.698 5.97062 33.2112 6.18349 31.1838 8.21872C30.9221 8.48229 30.6923 8.76931 30.4983 9.0751Z" fill="white"/>
<path d="M41.6122 12.8648C41.9738 11.8641 41.9816 10.79 41.6345 9.78527C41.2875 8.78056 40.6021 7.89285 39.6695 7.24016C38.7494 6.61903 37.6631 6.21815 36.5159 6.07639C35.3686 5.93462 34.1993 6.05677 33.1213 6.43101C30.8474 7.2541 29.4215 9.12736 29.1741 11.258C29.0417 12.3153 29.2288 13.3848 29.7165 14.3576C30.2041 15.3305 30.9749 16.1721 31.9505 16.797C34.2205 18.1959 37.5029 17.9497 39.5106 16.2896C40.0327 15.858 39.2471 15.167 38.7264 15.5974C37.9825 16.1863 37.0573 16.5672 36.068 16.6919C35.0787 16.8166 34.0696 16.6795 33.1687 16.2979C31.3019 15.475 30.2595 13.7075 30.2481 11.903C30.2373 10.1685 31.1727 8.48043 32.9055 7.60399C33.7399 7.19864 34.6781 6.98871 35.6305 6.99424C36.583 6.99976 37.5179 7.22056 38.3462 7.63556C39.3072 8.11186 40.0513 8.86741 40.4517 9.77349C40.8522 10.6796 40.8842 11.6801 40.5424 12.6047C40.3228 13.2054 41.3937 13.4628 41.6122 12.8648Z" fill="#211715"/>
<path d="M40.4885 13.323C40.6191 13.3313 40.4278 13.3017 40.544 13.3286C40.5933 13.3401 40.6433 13.3491 40.6921 13.3631C40.7198 13.3709 40.8335 13.4186 40.7495 13.3809C40.7952 13.4015 40.8407 13.4223 40.8842 13.4463C40.9042 13.457 41.0129 13.5265 40.9397 13.4749C40.9797 13.5034 41.0178 13.5339 41.0539 13.5662C41.0906 13.598 41.1251 13.6317 41.1571 13.6672C41.0922 13.5938 41.1771 13.6998 41.1884 13.7162C41.2152 13.7549 41.2394 13.795 41.2608 13.8363C41.2164 13.7492 41.2702 13.8703 41.2766 13.8901C41.2914 13.9342 41.3028 13.9792 41.3107 14.0247C41.2949 13.9283 41.3091 14.0636 41.3107 14.0839C41.3107 14.1328 41.3082 14.1793 41.3052 14.2273C41.2985 14.3367 41.324 14.1898 41.2935 14.2875C41.2688 14.3672 41.2206 14.5214 41.2045 14.5544C41.1284 14.6997 41.029 14.8346 40.9095 14.955C40.7739 15.0897 40.6107 15.2008 40.4286 15.2823C40.2431 15.3798 40.0424 15.4528 39.833 15.4991C39.7167 15.5279 39.5986 15.5509 39.4794 15.5681C39.44 15.5735 39.44 15.5735 39.4794 15.5681C39.45 15.5713 39.4206 15.5737 39.3912 15.576C39.3233 15.5811 39.2556 15.5835 39.1874 15.585C39.0403 15.585 38.8993 15.6366 38.7953 15.7283C38.6912 15.8201 38.6328 15.9446 38.6328 16.0744C38.6328 16.2041 38.6912 16.3286 38.7953 16.4204C38.8993 16.5122 39.0403 16.5637 39.1874 16.5637C40.5104 16.5351 41.8473 15.9031 42.2968 14.758C42.4045 14.497 42.4433 14.2178 42.4102 13.9416C42.3771 13.6654 42.273 13.3995 42.1057 13.1642C41.9263 12.9267 41.6871 12.7291 41.4068 12.5867C41.1265 12.4443 40.8127 12.361 40.4899 12.3433C40.3431 12.344 40.2025 12.3958 40.0986 12.4874C39.9948 12.579 39.9361 12.7031 39.9353 12.8326C39.9388 12.9614 39.9983 13.0842 40.1016 13.1753C40.2048 13.2664 40.3439 13.3189 40.4899 13.322L40.4885 13.323Z" fill="#211715"/>
<path d="M33.1963 13.4305C33.1893 13.545 33.1536 13.6566 33.0917 13.7574C33.0299 13.8582 32.9434 13.9456 32.8386 14.0134C32.6898 14.0976 32.5098 14.1276 32.3364 14.097C32.2181 14.0785 32.1063 14.0357 32.0103 13.9719C31.9142 13.9081 31.8366 13.8253 31.7837 13.73C31.7071 13.5773 31.6872 13.4071 31.7271 13.2438C31.767 13.0805 31.8645 12.9326 32.0056 12.8213C32.1432 12.7203 32.319 12.669 32.4977 12.6777C32.6763 12.6864 32.8447 12.7544 32.9689 12.868C33.0517 12.941 33.1151 13.0294 33.1544 13.1267C33.1938 13.224 33.2081 13.3278 33.1963 13.4305Z" fill="#211715"/>
<path d="M36.5674 14.0384C36.5603 14.1528 36.5245 14.2645 36.4627 14.3652C36.4008 14.466 36.3144 14.5534 36.2097 14.6212C36.0608 14.7056 35.8807 14.7357 35.7072 14.7051C35.5889 14.6865 35.4773 14.6436 35.3813 14.5798C35.2854 14.5161 35.2078 14.4333 35.1548 14.3381C35.0782 14.1854 35.0583 14.0151 35.0982 13.8518C35.1381 13.6885 35.2355 13.5405 35.3766 13.4291C35.5142 13.3282 35.69 13.2769 35.8686 13.2856C36.0473 13.2943 36.2156 13.3624 36.3397 13.4761C36.4225 13.5491 36.4859 13.6374 36.5252 13.7347C36.5646 13.8319 36.579 13.9356 36.5674 14.0384Z" fill="#211715"/>
<path d="M36.4991 10.7505C36.6772 11.1682 36.9286 11.5585 37.2439 11.9074C37.5198 12.1867 37.8602 12.4109 38.2422 12.5648C38.3727 12.6276 38.5251 12.645 38.6695 12.6138C38.7748 12.5882 38.8692 12.5359 38.9409 12.4632C39.0126 12.3906 39.0583 12.3009 39.0725 12.2053C39.0866 12.1098 39.0685 12.0127 39.0204 11.9263C38.9723 11.8398 38.8964 11.7678 38.8021 11.7192C38.6142 11.6426 38.4362 11.5484 38.271 11.4383L38.3819 11.5149C38.2218 11.4041 38.0781 11.276 37.9541 11.1337L38.0406 11.2328C37.8393 10.9884 37.6728 10.7231 37.5451 10.4427L37.6005 10.5597C37.5894 10.5365 37.5783 10.5132 37.5675 10.49C37.5245 10.3686 37.4343 10.2646 37.3127 10.1963C37.2498 10.1639 37.1802 10.1427 37.108 10.1339C37.0359 10.1252 36.9624 10.1291 36.8919 10.1454C36.8214 10.1617 36.7553 10.1901 36.6973 10.229C36.6392 10.2679 36.5904 10.3165 36.5537 10.372C36.5153 10.428 36.4906 10.4905 36.481 10.5554C36.4715 10.6203 36.4773 10.6863 36.4982 10.7491L36.4991 10.7505Z" fill="#211715"/>
<path d="M36.754 10.1978C36.121 10.4914 35.0384 10.7202 34.367 10.5721L34.6984 11.291C34.9119 10.9543 35.1449 10.4863 34.7882 10.1532C34.3762 9.76861 33.79 10.0395 33.3185 10.1532C32.2234 10.4054 31.0891 10.4994 29.9599 10.4314C29.2466 10.3965 29.2489 11.3752 29.9599 11.4102C30.7111 11.4495 31.4649 11.4266 32.2113 11.3416C32.5629 11.3008 32.912 11.2479 33.2575 11.1765C33.4367 11.1398 33.6144 11.099 33.7908 11.0541C33.8898 11.0297 33.988 11.0015 34.0858 10.9734C34.1252 10.9624 34.1646 10.9509 34.2037 10.9389C34.2813 10.9144 34.2822 10.9144 34.2065 10.9389L33.9619 10.8131L34.0032 10.8462L33.8607 10.6304C33.8052 10.5134 33.9089 10.5237 33.846 10.6218C33.8088 10.6795 33.7769 10.74 33.74 10.7982C33.6984 10.8632 33.6739 10.9356 33.6684 11.0101C33.663 11.0846 33.6767 11.1592 33.7086 11.2283C33.7404 11.2974 33.7897 11.3593 33.8525 11.4093C33.9153 11.4593 33.9902 11.496 34.0714 11.5168C34.6129 11.6076 35.1698 11.5992 35.7075 11.4924C36.2665 11.4185 36.8088 11.267 37.3142 11.0436C37.9459 10.75 37.386 9.90465 36.7543 10.1985L36.754 10.1978Z" fill="#211715"/>
<path d="M13.06 10.4428C13.147 10.7144 13.6193 12.2879 13.6617 12.3437C13.756 12.4673 14.0646 12.4056 14.2307 12.3775C14.9351 12.2454 15.5999 11.9834 16.1813 11.6086C16.7628 11.2338 17.2479 10.7547 17.6047 10.2028C18.2478 9.24807 18.4587 8.11434 18.1953 7.02832C18.1745 6.95688 18.1302 6.89245 18.0681 6.84313C18.0059 6.79381 17.9286 6.76179 17.8459 6.7511C16.755 6.59352 15.0973 6.4269 13.3045 7.31165C12.3157 7.80101 11.3953 9.05009 11.0703 10.008C11.6407 10.1132 12.7186 10.3601 13.06 10.4428Z" fill="#F8B8B4"/>
<path d="M12.5244 10.5729C12.6536 10.9801 12.774 11.3892 12.9015 11.7963C13.0188 12.1734 13.0804 12.6953 13.5523 12.8516C13.8934 12.9271 14.2522 12.9125 14.5839 12.8095C15.0038 12.7181 15.4094 12.5814 15.7916 12.4026C16.5256 12.0503 17.1668 11.5649 17.673 10.9783C18.1792 10.3917 18.539 9.71719 18.7287 8.99915C18.8248 8.61943 18.8701 8.23109 18.8638 7.84207C18.8549 7.47505 18.8386 6.96661 18.6029 6.64951C18.2313 6.14987 17.279 6.16969 16.675 6.14376C15.8413 6.10339 15.0063 6.1992 14.2121 6.42636C13.3059 6.66985 12.4955 7.13279 11.8727 7.76255C11.2716 8.38196 10.8166 9.10101 10.5345 9.87755C10.4967 10.0028 10.5162 10.1361 10.5888 10.2487C10.6615 10.3613 10.7814 10.4442 10.9227 10.4795C11.5907 10.6047 12.2537 10.7557 12.9126 10.9145C13.602 11.0806 13.8962 10.1367 13.2074 9.97077C12.5488 9.81197 11.8855 9.66101 11.2175 9.53573L11.6057 10.1376C11.962 9.12834 12.7354 8.10681 13.8241 7.6221C14.9483 7.15243 16.2093 7.00025 17.4351 7.18633C17.5324 7.19263 17.6291 7.20506 17.7244 7.22352C17.6475 7.20272 17.6645 7.04148 17.6872 7.25826C17.6941 7.32506 17.718 7.39284 17.7277 7.46012C17.7736 7.78335 17.7727 8.11043 17.7249 8.43345C17.6323 9.0332 17.3901 9.60736 17.0159 10.1146C16.6886 10.5676 16.2648 10.9603 15.768 11.2707C15.512 11.4304 15.2384 11.5667 14.9513 11.6776C14.656 11.7703 14.3549 11.8483 14.0496 11.9111C14.0218 11.9184 13.9245 11.9196 13.9198 11.9277C13.9691 11.8433 14.1693 12.3574 14.1721 12.1538C14.1602 12.0931 14.1401 12.0339 14.1122 11.9774C14.0501 11.7882 13.9916 11.5984 13.9328 11.4087C13.8197 11.0434 13.711 10.6772 13.5953 10.3123C13.4018 9.707 12.3314 9.96441 12.5244 10.5729Z" fill="#211715"/>
<path d="M60.7662 8.48605C60.5219 8.6884 59.1345 9.87606 59.0624 9.90518C58.9019 9.97124 58.6628 9.76865 58.5309 9.66442C57.9794 9.21008 57.5431 8.65797 57.2506 8.04433C56.958 7.43069 56.8159 6.7694 56.8335 6.10386C56.8415 4.97005 57.3203 3.87818 58.1792 3.03486C58.2549 2.96238 58.3538 2.91188 58.4627 2.89004C58.5716 2.86819 58.6855 2.87603 58.7893 2.91252C59.8608 3.2952 61.3177 3.84793 62.3665 5.46647C62.9045 6.29838 63.0875 7.77281 62.8851 8.77183C62.8786 8.80581 62.864 8.83817 62.8421 8.8667C62.8202 8.89522 62.7916 8.91924 62.7582 8.9371C62.7248 8.95497 62.6874 8.96626 62.6486 8.97021C62.6098 8.97416 62.5706 8.97067 62.5334 8.95999C61.9297 8.78504 61.0707 8.56141 60.7662 8.48605Z" fill="#FBDBD9"/>
<path d="M60.3755 8.13999C60.0862 8.3805 59.8014 8.62543 59.5142 8.8679C59.3578 8.99978 59.2014 9.13191 59.0427 9.26281C58.9551 9.33622 58.7566 9.44094 58.7053 9.53612C58.771 9.41378 59.0974 9.52168 59.038 9.40962C59.0035 9.37537 58.9645 9.34482 58.9218 9.3186C58.7854 9.20978 58.6558 9.09445 58.5336 8.97311C58.3012 8.73685 58.1019 8.47666 57.9402 8.19822C57.6221 7.65441 57.4373 7.05757 57.3981 6.44657C57.3536 5.81529 57.4637 5.18296 57.7211 4.59264C57.848 4.30823 58.0109 4.03737 58.2067 3.7852C58.2946 3.66938 58.3913 3.55894 58.4962 3.45464C58.6027 3.34894 58.5819 3.3602 58.7383 3.41843C59.7801 3.80771 60.7323 4.30147 61.435 5.105C61.878 5.60679 62.1757 6.19625 62.3024 6.82239C62.3694 7.14248 62.4051 7.46706 62.4092 7.79254C62.4122 7.95525 62.4092 8.11845 62.3964 8.2819C62.392 8.33842 62.3873 8.39518 62.3804 8.45146C62.377 8.48939 62.3718 8.52731 62.3651 8.56475C62.3346 8.6773 62.3491 8.66971 62.4086 8.54199L62.6884 8.47519C62.5522 8.46217 62.4192 8.43004 62.2944 8.38001C62.108 8.32847 61.9214 8.2779 61.7345 8.22831C61.4614 8.15491 61.188 8.08395 60.9134 8.01544C60.2252 7.84417 59.9315 8.78814 60.6184 8.95917C60.9952 9.05312 61.3701 9.15246 61.7442 9.25278C62.2007 9.37659 62.7292 9.61221 63.1499 9.28312C63.4973 9.01153 63.4948 8.53294 63.5134 8.15051C63.5297 7.7257 63.5018 7.30046 63.4302 6.88014C63.2911 6.0828 62.9482 5.32386 62.4274 4.6608C61.9066 3.99774 61.2216 3.44797 60.4243 3.05312C60.1144 2.89581 59.7939 2.7555 59.4645 2.63301C59.0624 2.48058 58.6731 2.30906 58.2291 2.44485C57.7514 2.59166 57.415 3.05361 57.1585 3.415C56.8859 3.80434 56.6734 4.22399 56.5265 4.66286C56.2415 5.52068 56.2042 6.42778 56.4181 7.30155C56.632 8.17532 57.0902 8.98799 57.7511 9.66555C58.0763 9.99024 58.537 10.4439 59.0741 10.3996C59.346 10.3418 59.5879 10.2049 59.761 10.011C60.2324 9.622 60.6908 9.22269 61.1597 8.83242C61.6802 8.39885 60.8957 7.70788 60.3755 8.13999Z" fill="#211715"/>
<path d="M56.2582 26.472C56.1703 26.8241 55.7003 28.8618 55.6509 28.9354C55.54 29.0993 55.142 29.0409 54.928 29.0159C54.0185 28.8935 53.1487 28.6028 52.3756 28.1629C51.6025 27.7229 50.9436 27.1437 50.4421 26.4632C49.5446 25.2908 49.1796 23.8635 49.4196 22.4646C49.4363 22.3725 49.4836 22.2868 49.5556 22.2185C49.6276 22.1502 49.721 22.1023 49.824 22.081C51.7699 21.6341 53.8326 21.8122 55.6434 22.5836C56.8685 23.1084 58.1089 24.4186 58.6635 25.5723C58.6761 25.5992 58.682 25.6282 58.681 25.6573C58.6799 25.6864 58.6718 25.715 58.6573 25.7412C58.6428 25.7673 58.6221 25.7905 58.5967 25.8091C58.5713 25.8277 58.5417 25.8413 58.5099 25.849C57.7628 26.0382 56.6409 26.3582 56.2582 26.472Z" fill="#F8B8B4"/>
<path d="M55.7243 26.342C55.6222 26.7535 55.5282 27.1665 55.4298 27.5786C55.3743 27.8087 55.3189 28.0389 55.2634 28.2691C55.2015 28.4261 55.1589 28.5886 55.1364 28.7538C55.1419 28.9495 54.7279 28.1445 55.3405 28.558C55.2802 28.5528 55.2197 28.5505 55.1591 28.5512C54.9903 28.5374 54.8227 28.5141 54.6572 28.4814C54.2562 28.4103 53.8655 28.2995 53.4926 28.1511C52.7673 27.8549 52.1136 27.4382 51.567 26.9238C50.9694 26.3754 50.5136 25.7192 50.2309 25.0005C49.9482 24.2818 49.8454 23.5175 49.9295 22.7604C49.9522 22.5891 49.9312 22.5754 50.0451 22.5389C50.1687 22.5074 50.2949 22.4845 50.4225 22.4704C50.7725 22.411 51.1263 22.3706 51.4818 22.3493C52.2729 22.2992 53.068 22.3574 53.8389 22.522C54.8088 22.7066 55.7094 23.1059 56.4561 23.6823C56.8159 23.9748 57.1411 24.2989 57.4266 24.6495C57.5799 24.8381 57.722 25.0334 57.8526 25.2348C57.9064 25.318 57.9582 25.4022 58.0073 25.4873C58.0395 25.5426 58.0703 25.5984 58.1002 25.6544C58.1568 25.7443 58.1622 25.7626 58.1166 25.7095L58.1923 25.4626C58.3056 25.3936 58.3027 25.3805 58.1837 25.4234C58.1365 25.4354 58.0894 25.4479 58.0425 25.4604C57.9444 25.4862 57.8465 25.5123 57.7489 25.5387C57.532 25.5971 57.3155 25.6566 57.0994 25.7173C56.7689 25.8098 56.4389 25.9033 56.1103 26.0009C55.4373 26.201 55.7259 27.1465 56.4051 26.9446C56.8321 26.8179 57.2616 26.697 57.6917 26.5776C58.1526 26.4506 58.875 26.3889 59.1337 25.986C59.4249 25.5304 58.9651 24.9568 58.6981 24.5715C58.3733 24.1038 57.9931 23.6678 57.5639 23.271C55.9506 21.7807 53.4906 21.1956 51.2037 21.3902C50.7391 21.4302 50.2776 21.4938 49.8214 21.5808C49.2024 21.698 48.9207 22.0638 48.8414 22.5962C48.6956 23.6711 48.8805 24.7609 49.3766 25.7511C49.826 26.6728 50.5168 27.4872 51.3923 28.1275C52.2679 28.7678 53.3031 29.2156 54.4129 29.4342C54.924 29.5233 55.6436 29.6728 56.0429 29.2815C56.2035 29.0641 56.3003 28.8149 56.3246 28.5563C56.4863 27.9059 56.6319 27.2524 56.793 26.6018C56.9461 25.9882 55.8762 25.7261 55.7243 26.342Z" fill="#211715"/>
</svg>
